<svg xmlns="http://www.w3.org/2000/svg" xmlns:xlink="http://www.w3.org/1999/xlink" viewBox="0 0 414.58 309.53"><defs><style>.a{isolation:isolate;}.b,.ek,.eq{opacity:0.5;}.b{mix-blend-mode:screen;}.c{fill:#25054d;}.d,.ew{opacity:0.2;}.e{opacity:0;}.f{opacity:0.09;}.g{opacity:0.18;}.h{opacity:0.27;}.i{opacity:0.36;}.j{opacity:0.45;}.k{opacity:0.55;}.l{opacity:0.64;}.m{opacity:0.73;}.n{opacity:0.82;}.o{opacity:0.91;}.p{fill:url(#a);}.q{fill:url(#b);}.r{fill:url(#c);}.s{fill:url(#d);}.t{fill:url(#e);}.u{fill:url(#f);}.v{fill:url(#g);}.w{fill:url(#h);}.x{fill:url(#i);}.y{fill:url(#j);}.z{fill:url(#k);}.aa{fill:url(#l);}.ab{fill:url(#m);}.ac{fill:url(#n);}.ad{fill:url(#o);}.ae{fill:url(#p);}.af{fill:url(#q);}.ag{fill:url(#r);}.ah{fill:url(#s);}.ai{fill:url(#t);}.aj{fill:url(#u);}.ak{fill:url(#v);}.al{fill:url(#w);}.am{fill:url(#x);}.an{fill:url(#y);}.ao{fill:url(#z);}.ap{fill:url(#aa);}.aq{fill:url(#ab);}.ar{fill:url(#ac);}.as{fill:url(#ad);}.at{fill:url(#ae);}.au{fill:url(#af);}.av{fill:url(#ag);}.aw{fill:url(#ah);}.ax{fill:url(#ai);}.ay{fill:url(#aj);}.az{fill:url(#ak);}.ba{fill:url(#al);}.bb{fill:url(#am);}.bc{fill:url(#an);}.bd{fill:url(#ao);}.be{fill:url(#ap);}.bf{fill:url(#aq);}.bg{fill:#cba6e3;}.bh{fill:#cca7e3;}.bi{fill:#cca8e4;}.bj{fill:#cda9e4;}.bk{fill:#cdaae4;}.bl{fill:#ceabe4;}.bm{fill:#ceace5;}.bn{fill:#cfade5;}.bo{fill:#cfaee5;}.bp{fill:#d0afe6;}.bq{fill:#d1b0e6;}.br{fill:#d1b1e6;}.bs{fill:#d2b2e6;}.bt{fill:#d2b3e7;}.bu{fill:#d3b4e7;}.bv{fill:#d3b5e7;}.bw{fill:#d4b6e7;}.bx{fill:#d5b7e8;}.by{fill:#d5b8e8;}.bz{fill:#d6b9e8;}.ca{fill:#d6bae9;}.cb{fill:#d7bbe9;}.cc{fill:#d7bce9;}.cd{fill:#d8bde9;}.ce{fill:#d8beea;}.cf{fill:#d9bfea;}.cg{fill:#dac0ea;}.ch{fill:#dac1eb;}.ci{fill:#dbc2eb;}.cj{fill:#dcc3eb;}.ck{fill:#dcc4ec;}.cl{fill:#ddc5ec;}.cm{fill:#dec6ec;}.cn{fill:#dec7ed;}.co{fill:#dfc8ed;}.cp{fill:#dfc9ed;}.cq{fill:#e0caed;}.cr{fill:#e0cbee;}.cs{fill:#e1ccee;}.ct{fill:#e1cdee;}.cu{fill:#e2ceef;}.cv{fill:#e3cfef;}.cw{fill:#e3d0ef;}.cx{fill:#e4d1ef;}.cy{fill:#e4d2f0;}.cz{fill:#e5d3f0;}.da{fill:#e5d4f0;}.db{fill:#e6d5f0;}.dc{fill:#e7d6f1;}.dd{fill:#e7d7f1;}.de{fill:#e8d8f1;}.df{fill:#e8d9f2;}.dg{fill:#e9daf2;}.dh{fill:#e9dbf2;}.di{fill:#eadcf2;}.dj{fill:#eaddf3;}.dk,.eq,.ew{fill:#ebdef3;}.dl{fill:url(#ar);}.dm{fill:url(#as);}.dn{fill:url(#at);}.do{fill:url(#au);}.dp,.ef,.eg{mix-blend-mode:multiply;}.dp{fill:url(#av);}.dq{fill:#d1b4e3;}.dr{opacity:0.7;}.ds{opacity:0.02;}.dt{opacity:0.05;}.du{opacity:0.07;}.dv{opacity:0.1;}.dw{opacity:0.12;}.dx{opacity:0.15;}.dy{opacity:0.17;}.dz{opacity:0.2;}.ea{opacity:0.22;}.eb{opacity:0.25;}.ec{opacity:0.27;}.ed{opacity:0.3;}.ee{fill:url(#aw);}.ef,.eh{fill:#e5d4ef;}.ei{fill:url(#ax);}.ej{fill:#231f20;mix-blend-mode:color-dodge;}.el{fill:url(#ay);}.em{fill:url(#az);}.en{fill:url(#ba);}.eo{fill:url(#bb);}.ep{fill:url(#bc);}.er{fill:url(#bd);}.es{fill:url(#be);}.et{fill:url(#bf);}.eu{fill:url(#bg);}.ev{fill:url(#bh);}.ex{fill:url(#bi);}.ey{fill:url(#bj);}.ez{fill:url(#bk);}.fa{fill:url(#bl);}.fb{fill:url(#bm);}.fc{fill:url(#bn);}.fd{fill:url(#bo);}.fe{fill:url(#bp);}.ff{fill:url(#bq);}</style><linearGradient id="a" x1="259.12" y1="201.17" x2="259.12" y2="237.44" gradientUnits="userSpaceOnUse"><stop offset="0.04" stop-color="#6b24d6"/><stop offset="0.32" stop-color="#7a1cd0"/><stop offset="0.86" stop-color="#a306c1"/><stop offset="0.98" stop-color="#ad00bd"/></linearGradient><linearGradient id="b" x1="257.84" y1="196.61" x2="254.96" y2="240.88" xlink:href="#a"/><linearGradient id="c" x1="257.19" y1="191.56" x2="250.34" y2="243.96" xlink:href="#a"/><linearGradient id="d" x1="257.27" y1="186.12" x2="245.32" y2="246.62" xlink:href="#a"/><linearGradient id="e" x1="258.13" y1="180.42" x2="239.94" y2="248.79" xlink:href="#a"/><linearGradient id="f" x1="259.82" y1="174.59" x2="234.25" y2="250.41" xlink:href="#a"/><linearGradient id="g" x1="262.34" y1="168.77" x2="228.34" y2="251.43" xlink:href="#a"/><linearGradient id="h" x1="265.69" y1="163.12" x2="222.28" y2="251.8" xlink:href="#a"/><linearGradient id="i" x1="270.08" y1="157.36" x2="216.19" y2="251.43" xlink:href="#a"/><linearGradient id="j" x1="275.97" y1="151.03" x2="207.66" y2="254.09" xlink:href="#a"/><linearGradient id="k" x1="283" y1="145.02" x2="198.53" y2="256.06" xlink:href="#a"/><linearGradient id="l" x1="291.21" y1="139.45" x2="189.06" y2="257.02" xlink:href="#a"/><linearGradient id="m" x1="300.52" y1="134.54" x2="179.36" y2="256.91" xlink:href="#a"/><linearGradient id="n" x1="310.81" y1="130.49" x2="169.6" y2="255.69" xlink:href="#a"/><linearGradient id="o" x1="321.95" y1="127.49" x2="159.92" y2="253.33" xlink:href="#a"/><linearGradient id="p" x1="333.75" y1="125.69" x2="150.46" y2="249.82" xlink:href="#a"/><linearGradient id="q" x1="346" y1="125.18" x2="141.37" y2="245.15" xlink:href="#a"/><linearGradient id="r" x1="358.47" y1="126.03" x2="132.79" y2="239.32" xlink:href="#a"/><linearGradient id="s" x1="370.96" y1="128.37" x2="124.92" y2="232.45" xlink:href="#a"/><linearGradient id="t" x1="383.25" y1="132.23" x2="117.91" y2="224.65" xlink:href="#a"/><linearGradient id="u" x1="395.09" y1="137.6" x2="111.89" y2="216.02" xlink:href="#a"/><linearGradient id="v" x1="406.22" y1="144.43" x2="106.97" y2="206.68" xlink:href="#a"/><linearGradient id="w" x1="404.98" y1="146.69" x2="105.65" y2="205.02" xlink:href="#a"/><linearGradient id="x" x1="404.86" y1="146.41" x2="105.66" y2="204.72" gradientUnits="userSpaceOnUse"><stop offset="0.04" stop-color="#702ad7"/><stop offset="0.33" stop-color="#7f22d1"/><stop offset="0.9" stop-color="#a80cc1"/><stop offset="0.98" stop-color="#ae08bf"/></linearGradient><linearGradient id="y" x1="404.76" y1="146.13" x2="105.67" y2="204.41" gradientUnits="userSpaceOnUse"><stop offset="0.04" stop-color="#7430d7"/><stop offset="0.34" stop-color="#8328d1"/><stop offset="0.93" stop-color="#ac12c3"/><stop offset="0.98" stop-color="#b010c1"/></linearGradient><linearGradient id="z" x1="404.68" y1="145.84" x2="105.68" y2="204.11" gradientUnits="userSpaceOnUse"><stop offset="0.04" stop-color="#7937d8"/><stop offset="0.36" stop-color="#882ed2"/><stop offset="0.98" stop-color="#b118c2"/><stop offset="0.98" stop-color="#b118c2"/></linearGradient><linearGradient id="aa" x1="404.6" y1="145.56" x2="105.68" y2="203.81" gradientUnits="userSpaceOnUse"><stop offset="0.04" stop-color="#7d3dd8"/><stop offset="0.37" stop-color="#8c35d2"/><stop offset="0.98" stop-color="#b320c4"/></linearGradient><linearGradient id="ab" x1="404.52" y1="145.27" x2="105.69" y2="203.51" gradientUnits="userSpaceOnUse"><stop offset="0.04" stop-color="#8243d9"/><stop offset="0.39" stop-color="#913bd3"/><stop offset="0.98" stop-color="#b428c6"/></linearGradient><linearGradient id="ac" x1="404.45" y1="144.98" x2="105.69" y2="203.21" gradientUnits="userSpaceOnUse"><stop offset="0.04" stop-color="#8649da"/><stop offset="0.4" stop-color="#9541d4"/><stop offset="0.98" stop-color="#b62fc8"/></linearGradient><linearGradient id="ad" x1="404.37" y1="144.7" x2="105.69" y2="202.9" gradientUnits="userSpaceOnUse"><stop offset="0.04" stop-color="#8b4fda"/><stop offset="0.43" stop-color="#9a47d4"/><stop offset="0.98" stop-color="#b737ca"/></linearGradient><linearGradient id="ae" x1="404.3" y1="144.41" x2="105.69" y2="202.6" gradientUnits="userSpaceOnUse"><stop offset="0.04" stop-color="#9056db"/><stop offset="0.46" stop-color="#9f4dd5"/><stop offset="0.98" stop-color="#b83fcb"/></linearGradient><linearGradient id="af" x1="404.23" y1="144.12" x2="105.69" y2="202.3" gradientUnits="userSpaceOnUse"><stop offset="0.04" stop-color="#945cdc"/><stop offset="0.48" stop-color="#a353d6"/><stop offset="0.98" stop-color="#ba47cd"/></linearGradient><linearGradient id="ag" x1="404.16" y1="143.83" x2="105.69" y2="202" gradientUnits="userSpaceOnUse"><stop offset="0.04" stop-color="#9962dc"/><stop offset="0.52" stop-color="#a859d6"/><stop offset="0.98" stop-color="#bb4fcf"/></linearGradient><linearGradient id="ah" x1="404.1" y1="143.54" x2="105.69" y2="201.7" gradientUnits="userSpaceOnUse"><stop offset="0.04" stop-color="#9d68dd"/><stop offset="0.55" stop-color="#ac60d7"/><stop offset="0.98" stop-color="#bd57d1"/></linearGradient><linearGradient id="ai" x1="404.04" y1="143.25" x2="105.69" y2="201.4" gradientUnits="userSpaceOnUse"><stop offset="0.04" stop-color="#a26edd"/><stop offset="0.61" stop-color="#b166d8"/><stop offset="0.98" stop-color="#be5fd3"/></linearGradient><linearGradient id="aj" x1="403.99" y1="142.96" x2="105.69" y2="201.09" gradientUnits="userSpaceOnUse"><stop offset="0.04" stop-color="#a674de"/><stop offset="0.65" stop-color="#b56cd9"/><stop offset="0.98" stop-color="#c067d5"/></linearGradient><linearGradient id="ak" x1="403.95" y1="142.67" x2="105.69" y2="200.79" gradientUnits="userSpaceOnUse"><stop offset="0.04" stop-color="#ab7bdf"/><stop offset="0.74" stop-color="#ba73d9"/><stop offset="0.98" stop-color="#c16fd6"/></linearGradient><linearGradient id="al" x1="403.91" y1="142.37" x2="105.69" y2="200.49" gradientUnits="userSpaceOnUse"><stop offset="0.04" stop-color="#b081df"/><stop offset="0.87" stop-color="#bf78d9"/><stop offset="0.98" stop-color="#c277d8"/></linearGradient><linearGradient id="am" x1="403.88" y1="142.08" x2="105.69" y2="200.19" gradientUnits="userSpaceOnUse"><stop offset="0.04" stop-color="#b487e0"/><stop offset="0.95" stop-color="#c37eda"/><stop offset="0.98" stop-color="#c47eda"/></linearGradient><linearGradient id="an" x1="403.85" y1="141.78" x2="105.68" y2="199.89" gradientUnits="userSpaceOnUse"><stop offset="0.04" stop-color="#b98de1"/><stop offset="0.98" stop-color="#c586dc"/></linearGradient><linearGradient id="ao" x1="403.83" y1="141.49" x2="105.68" y2="199.59" gradientUnits="userSpaceOnUse"><stop offset="0.04" stop-color="#bd93e1"/><stop offset="0.98" stop-color="#c78ede"/></linearGradient><linearGradient id="ap" x1="403.81" y1="141.19" x2="105.68" y2="199.29" gradientUnits="userSpaceOnUse"><stop offset="0.04" stop-color="#c29ae2"/><stop offset="0.98" stop-color="#c896df"/></linearGradient><linearGradient id="aq" x1="403.8" y1="140.89" x2="105.68" y2="198.99" gradientUnits="userSpaceOnUse"><stop offset="0.04" stop-color="#c6a0e2"/><stop offset="0.98" stop-color="#ca9ee1"/></linearGradient><linearGradient id="ar" x1="369.94" y1="174.8" x2="366.19" y2="166.55" xlink:href="#a"/><linearGradient id="as" x1="7829.89" y1="-583.03" x2="7823.5" y2="-571.11" gradientTransform="matrix(-0.87, 0.5, -0.5, 1.44, 6855.4, -2849.35)" xlink:href="#al"/><linearGradient id="at" x1="355.37" y1="187.19" x2="350" y2="173.94" xlink:href="#a"/><linearGradient id="au" x1="7843.96" y1="-575.49" x2="7837.57" y2="-563.57" gradientTransform="matrix(-0.87, 0.5, -0.5, 1.44, 6855.4, -2849.35)" xlink:href="#al"/><linearGradient id="av" x1="306.11" y1="93.64" x2="165.97" y2="313.35" gradientUnits="userSpaceOnUse"><stop offset="0" stop-color="#fff"/><stop offset="1" stop-color="#e5d4ef"/></linearGradient><linearGradient id="aw" x1="221.07" y1="168.34" x2="208.04" y2="236.42" xlink:href="#a"/><linearGradient id="ax" x1="303.51" y1="21.64" x2="401.22" y2="165.69" gradientUnits="userSpaceOnUse"><stop offset="0" stop-color="#2d085d"/><stop offset="1" stop-color="#410f82"/></linearGradient><linearGradient id="ay" x1="248.53" y1="-0.04" x2="384.43" y2="200.31" gradientUnits="userSpaceOnUse"><stop offset="0.04" stop-color="#9f19ab"/><stop offset="0.24" stop-color="#ae25b1"/><stop offset="0.65" stop-color="#d744bf"/><stop offset="1" stop-color="#ff63ce"/></linearGradient><linearGradient id="az" x1="250.89" y1="17.18" x2="295.56" y2="103.85" xlink:href="#ay"/><linearGradient id="ba" x1="217.53" y1="29.63" x2="353.43" y2="229.98" xlink:href="#ax"/><linearGradient id="bb" x1="221.12" y1="67.27" x2="273.62" y2="123.77" gradientTransform="translate(330.58 -152.74) rotate(89.69)" xlink:href="#a"/><linearGradient id="bc" x1="219.89" y1="46.85" x2="264.56" y2="133.51" xlink:href="#ax"/><linearGradient id="bd" x1="143.95" y1="74.06" x2="279.85" y2="274.41" xlink:href="#ax"/><linearGradient id="be" x1="158.8" y1="124.89" x2="215.8" y2="179.89" gradientTransform="matrix(0.01, 1, -1, 0.01, 301.82, -34.97)" xlink:href="#a"/><linearGradient id="bf" x1="146.31" y1="91.28" x2="190.98" y2="177.94" xlink:href="#ax"/><linearGradient id="bg" x1="146.53" y1="44.47" x2="284.94" y2="248.51" xlink:href="#ay"/><linearGradient id="bh" x1="119.21" y1="106.6" x2="216.92" y2="250.65" xlink:href="#ay"/><linearGradient id="bi" x1="160.74" y1="46.29" x2="205.41" y2="132.96" xlink:href="#ay"/><linearGradient id="bj" x1="264.7" y1="44.17" x2="356.65" y2="177.03" xlink:href="#a"/><linearGradient id="bk" x1="276.44" y1="69.98" x2="353.6" y2="181.48" xlink:href="#a"/><linearGradient id="bl" x1="274.75" y1="71.15" x2="351.92" y2="182.65" xlink:href="#a"/><linearGradient id="bm" x1="277.01" y1="69.58" x2="354.18" y2="181.08" xlink:href="#a"/><linearGradient id="bn" x1="109.92" y1="119.1" x2="201.87" y2="251.96" xlink:href="#a"/><linearGradient id="bo" x1="123.47" y1="147.53" x2="200.63" y2="259.03" xlink:href="#a"/><linearGradient id="bp" x1="121.78" y1="148.69" x2="198.95" y2="260.19" xlink:href="#a"/><linearGradient id="bq" x1="124.04" y1="147.13" x2="201.21" y2="258.63" xlink:href="#a"/></defs><g class="a"><g class="b"><path class="c" d="M351.69,203.94l-45.06,26-51.1-29.51,45.06-26,51.1,29.5Zm2.26,0-53.37-30.81-47.31,27.32,53.36,30.81L354,203.94Z"/><path class="c" d="M255.33,213.3l-18.05,10.4-18.76-10.83,18-10.4,18.76,10.83Zm2.26,0-21-12.14-20.3,11.71,21,12.14,20.3-11.71Z"/><path class="c" d="M279.15,227l-18,10.4L242.34,226.6l18-10.41L279.15,227Zm2.26,0-21-12.14-20.3,11.7,21,12.15L281.41,227Z"/><path class="c" d="M303,240.76l-18.05,10.4-18.76-10.83,18-10.41L303,240.76Zm2.26,0-21-12.14-20.3,11.7,21,12.14,20.3-11.7Z"/><path class="c" d="M290.07,239.88a5.69,5.69,0,0,0-3.67-.52c.38-.73.08-1.55-.92-2.13a5.72,5.72,0,0,0-5.16,0c-2.6,1.5-.93,6.18-.93,6.18s8.1,1,10.7-.54C291.51,242,291.5,240.71,290.07,239.88Z"/><path class="c" d="M266.91,226.22a5.72,5.72,0,0,0-3.68-.53c.39-.72.08-1.55-.91-2.12a5.71,5.71,0,0,0-5.17,0c-2.6,1.5-.92,6.17-.92,6.17s8.09,1,10.69-.53C268.34,228.38,268.34,227,266.91,226.22Z"/><path class="c" d="M201.35,307.26l-79.11-45.67c-5.2-3-5.23-7.89,0-10.88L308.45,143.17c5.18-3,13.63-3,18.84,0l79.11,45.68c5.21,3,5.23,7.88.06,10.87L220.19,307.29C215,310.28,206.56,310.27,201.35,307.26ZM326.54,143.64c-4.79-2.77-12.57-2.78-17.33,0L122.94,251.15c-4.76,2.75-4.74,7.24.06,10l79.1,45.68c4.8,2.76,12.57,2.78,17.33,0L405.7,199.32c4.76-2.75,4.74-7.24-.05-10Z"/><polygon class="c" points="369.42 182.99 337.48 164.56 339.55 163.36 371.48 181.8 369.42 182.99"/><path class="c" d="M215.89,272.86l-31.42-18.14c-4.06-2.35-4.08-6.15,0-8.48a16.28,16.28,0,0,1,14.69,0l31.41,18.14c4.07,2.35,4.09,6.15.05,8.48A16.28,16.28,0,0,1,215.89,272.86Zm-17.9-26a13.78,13.78,0,0,0-12.43,0c-3.42,2-3.4,5.19,0,7.18L217,272.21a13.78,13.78,0,0,0,12.43,0c3.42-2,3.4-5.19,0-7.18Z"/><path class="c" d="M329.66,223.62a.52.52,0,0,1-.32-.43c0-.34.48-.62,1.06-.62l8.53,0,0-4.92c0-.34.47-.62,1.06-.62s1.07.28,1.07.62l0,6.15-10.66,0A1.54,1.54,0,0,1,329.66,223.62Z"/><path class="c" d="M266.3,187a.52.52,0,0,1-.32-.43l0-6.16,10.65,0c.59,0,1.07.28,1.07.62s-.47.61-1.06.61h-8.52l0,4.92c0,.34-.47.61-1.06.61A1.54,1.54,0,0,1,266.3,187Z"/><path class="c" d="M246,244.74l-7.38-4.26-2.1,1.21,7.38,4.26Zm2.31-1.84,7.7,4.45,2.1-1.22-7.7-4.44Zm2.42,7,7.37,4.25,2.11-1.21-7.38-4.26Zm7-1.55,3.29,1.9,2.1-1.21-3.29-1.91Zm-42.95-24.8L219,226l2.1-1.21-4.23-2.44Zm11.35,9.73-2.6-1.5-2.1,1.21,2.6,1.5Zm2.36-4.24-5.64-3.26-2.1,1.22,5.64,3.25Zm12.47,7.2L230.25,230l-2.1,1.21,10.74,6.2Zm2.12,12.43-7.7-4.45-2.1,1.21,7.7,4.45Zm.15,8.11,2.1-1.21-2.87-1.66-2.1,1.21Zm15.14.71-13.55-7.82-2.11,1.21,13.56,7.83Zm-34-19.66-9.11-5.26-2.1,1.22,9.11,5.26Zm24.34,2.86-6-3.45-2.1,1.22,6,3.44Zm-35.19-9.12-5.64-3.25-2.1,1.21,5.64,3.25ZM208,225.23,219.72,232l2.1-1.22L210.11,224Zm8.56,13.71-11.71-6.76-2.1,1.21,11.71,6.77Zm20.33.54-9-5.2-2.11,1.21,9,5.2Zm3.85,13.43-7.37-4.26-2.1,1.21,7.37,4.26Zm-20.21-9.25,9,5.2,2.1-1.21-9-5.2Zm13.13-.44-7.59-4.39-2.1,1.22,7.59,4.38Zm-17.47-2.06,2.61,1.5,2.1-1.21-2.6-1.51ZM268.15,260l2.27,1.31,2.1-1.21-2.27-1.32Zm-9.95-.15,7.37,4.26,2.1-1.21-7.37-4.26Zm-2,4.46,4.39,2.54,2.11-1.22-4.4-2.53ZM245,257.78l9.49,5.48,2.1-1.21-9.49-5.48Zm32.21-.63-12.63-7.29-2.1,1.21,12.63,7.3Zm-8.33.79-6.93-4-2.1,1.22,6.93,4Zm-17.77-10.26-3.37-1.94-2.1,1.21,3.36,1.94Zm-35.93-26.34L211.1,219,209,220.2l4.08,2.35ZM189.6,231.4l10,5.8,2.1-1.22-10-5.8Zm13.52-.22-6.57-3.8-2.1,1.22,6.57,3.79Zm3-3.87-4.73-2.73-2.1,1.22,4.73,2.73Zm2.25-4.3-2.13-1.23-2.1,1.22,2.12,1.22Zm-7,15.19,4.23,2.44,2.1-1.21L203.48,237Z"/><path class="c" d="M369.17,192.76l10.09,5.82a1.65,1.65,0,0,0,1.5,0,.45.45,0,0,0,0-.86l-10.09-5.83a1.65,1.65,0,0,0-1.5,0A.46.46,0,0,0,369.17,192.76Zm9.06,6.42-10.09-5.83a1.65,1.65,0,0,0-1.5,0,.46.46,0,0,0,0,.87L376.73,200a1.65,1.65,0,0,0,1.5,0C378.65,199.81,378.64,199.42,378.23,199.18Zm-2.53,1.46-10.09-5.83a1.65,1.65,0,0,0-1.5,0,.46.46,0,0,0,0,.87l10.08,5.82a1.65,1.65,0,0,0,1.5,0C376.12,201.27,376.11,200.88,375.7,200.64Z"/></g><g class="b"><path class="c" d="M179.13,166.32,100,120.65c-5.21-3-5.24-7.89-.06-10.88L286.23,2.23c5.18-3,13.63-3,18.83,0l79.11,45.67c5.21,3,5.24,7.88.06,10.87L198,166.35C192.79,169.34,184.34,169.33,179.13,166.32ZM304.31,2.7c-4.79-2.77-12.56-2.78-17.33,0L100.72,110.21c-4.77,2.75-4.74,7.24,0,10l79.11,45.68c4.79,2.76,12.56,2.78,17.33,0L383.47,58.38c4.77-2.75,4.74-7.24-.05-10Z"/><polygon class="c" points="347.19 42.05 315.26 23.62 317.32 22.43 349.25 40.86 347.19 42.05"/><path class="c" d="M314.36,51l-6.9-4-2,1.14,6.9,4Zm2.16-1.71,7.21,4.15,2-1.13-7.2-4.16Zm10.83,1,3.15,1.81,2-1.13-3.14-1.82Zm-8.56,5.53,6.89,4,2-1.13-6.9-4Zm6.56-1.45,3.08,1.78,2-1.13-3.08-1.78ZM285.17,31.23l4,2.28,2-1.14-4-2.28Zm10.62,9.09-2.43-1.4-2,1.13,2.44,1.41Zm2.21-4-5.28-3-2,1.14,5.28,3Zm11.66,6.73-10-5.79-2,1.13,10.05,5.8Zm4,12.92-9.19-5.45-2,1.13,9.19,5.46ZM292.15,30l11,6.33,2-1.14-11-6.32Zm26.68,15.41,6.9,4,2-1.13-6.9-4Zm.34-2.07-8.42-4.87-2,1.14,8.42,4.86ZM294.1,44.58l-8.53-4.92-2,1.14,8.52,4.92Zm22.77,2.67L311.29,44l-2,1.14,5.58,3.22ZM284,38.73l-5.28-3-2,1.14,5.27,3Zm-5.14-5.94,11,6.33,2-1.14-11-6.32Zm8,12.83-11-6.32-2,1.13,11,6.33Zm19,.5-8.42-4.86-2,1.14,8.42,4.86Zm3.61,12.57-6.9-4-2,1.14,6.9,4Zm-12.7.18,2.64,1.52,2-1.14-2.64-1.52ZM290.54,50,299,54.9l2-1.14L292.5,48.9Zm-12.35-1.89,5.27,3,2-1.13L280.15,47Zm24.63,1.47-7.1-4.1-2,1.14,7.11,4.1Zm-16.34-1.93,2.43,1.41,2-1.13-2.44-1.41Zm57.65,10.07-2,1.13,4.1,2.37,2-1.13Zm-59-5.63,10,5.8,2-1.14L287.05,51Zm7.4-24.19-6.25-3.61-2,1.14,6.25,3.6Zm39.63,25.15L340.54,58l2-1.13L334.09,52ZM304.73,37.28l2.43,1.4,2-1.13-2.44-1.41Zm38.82,25.38-11.82-6.83-2,1.14,11.82,6.82ZM319.13,53.8,316,52l-2,1.14,3.14,1.81ZM285.52,29.15,281.7,27l-2,1.13,3.82,2.21Zm-23.93,9.41L271,44l2-1.14-9.4-5.42Zm12.65-.2-6.15-3.55-2,1.13,6.15,3.55Zm2.81-3.62-4.42-2.55-2,1.13,4.43,2.56Zm2.1-4-2-1.15-2,1.13,2,1.15Zm-6.54,14.21,3.95,2.28,2-1.14-4-2.28Z"/><path class="c" d="M334.83,70.2h0a.87.87,0,0,0,0-1.65l-5.71-3.3,2.9-1.67c1.19-.69,1.18-1.8,0-2.5h0a1.53,1.53,0,0,0-1.38,0l-2.45,1.41a5.58,5.58,0,0,1-2.65.67l-5.61.1,0,0c.81-.47.81-1.23,0-1.71l-2.31-1.33a3.3,3.3,0,0,0-3,0l-6.21,3.59a.9.9,0,0,0,0,1.71l2.31,1.33a3.34,3.34,0,0,0,2.36.25c-.41.4-.31.93.29,1.28l3.09,1.79,3.85,2.22,2.06,1.19a3.24,3.24,0,0,0,2.82.07,1.11,1.11,0,0,0,.66-.74,3.16,3.16,0,0,0,2.81,0c.53-.31.7-.75.5-1.14h0a3.26,3.26,0,0,0,2.86.06c.67-.37.8-.94.4-1.39A3.21,3.21,0,0,0,334.83,70.2Z"/></g><g class="d"><path class="e" d="M210.61,290.26a26.39,26.39,0,0,0,13.15-3.17L407,181.6c4.79-2.77,7.54-7.16,7.54-12,0-5.34-3.31-10.31-9.08-13.64l-79.06-45.65a32.46,32.46,0,0,0-16-4.06,26.45,26.45,0,0,0-13.16,3.17L114,214.89c-4.8,2.77-7.55,7.15-7.55,12,0,5.34,3.32,10.31,9.09,13.65l79.06,45.64A32.33,32.33,0,0,0,210.61,290.26Z"/><path class="f" d="M297.46,109.71,114.19,215.2c-4.61,2.66-7.22,6.84-7.2,11.47,0,5.06,3.2,9.8,8.74,13l75.5,43.58c.12.07,3.81,2.19,4,2.23a31.53,31.53,0,0,0,16.07,3.6,28.27,28.27,0,0,0,13-3.46L406.49,180.71c4.61-2.67,7.22-6.84,7.19-11.47,0-5.06-3.19-9.8-8.73-13l-78.59-45.37a33,33,0,0,0-5.82-2.59,34,34,0,0,0-10-1.63A25.84,25.84,0,0,0,297.46,109.71Z"/><path class="g" d="M297.61,110,114.33,215.52c-4.41,2.55-6.88,6.53-6.84,10.91.05,4.78,3.08,9.28,8.39,12.34l75.85,43.8c.24.14,3.71,2.1,4,2.19a30.59,30.59,0,0,0,16.18,3.14c4.1,0,9.84-2.06,12.78-3.76L405.94,179.81c4.42-2.55,6.89-6.52,6.84-10.91,0-4.78-3.08-9.28-8.38-12.34l-78.11-45.1a38.68,38.68,0,0,0-5.76-2.63,33.79,33.79,0,0,0-9.9-1.76A25.26,25.26,0,0,0,297.61,110Z"/><path class="h" d="M297.76,110.34,114.48,215.83c-4.23,2.45-6.56,6.22-6.49,10.37.07,4.5,3,8.75,8,11.68l76.21,44c.36.21,3.61,2,4,2.16a29.68,29.68,0,0,0,16.28,2.68c3.64,0,10-2.54,12.6-4.05L405.39,178.92c4.23-2.44,6.56-6.21,6.49-10.36-.07-4.5-3-8.76-8-11.69l-77.64-44.82a43.76,43.76,0,0,0-5.7-2.67,33.47,33.47,0,0,0-9.8-1.88A24.8,24.8,0,0,0,297.76,110.34Z"/><path class="i" d="M297.9,110.66,114.63,216.15c-4,2.33-6.23,5.9-6.14,9.81.09,4.22,2.84,8.24,7.68,11l76.56,44.21c.49.28,3.52,1.94,4.08,2.12a28.78,28.78,0,0,0,16.38,2.22c3.19,0,10.13-3,12.42-4.34L404.84,178c4-2.33,6.23-5.9,6.14-9.81-.09-4.22-2.84-8.24-7.68-11l-77.17-44.55a51.29,51.29,0,0,0-5.63-2.71,33.16,33.16,0,0,0-9.71-2A24.11,24.11,0,0,0,297.9,110.66Z"/><path class="j" d="M298.05,111,114.78,216.47c-3.86,2.22-5.91,5.59-5.8,9.25.12,3.94,2.73,7.72,7.34,10.38l76.92,44.41a41.62,41.62,0,0,0,4.11,2.08,27.83,27.83,0,0,0,16.49,1.77c2.73,0,10.27-3.51,12.23-4.64L404.29,177.14c3.85-2.23,5.9-5.59,5.79-9.26-.12-3.94-2.72-7.71-7.33-10.37l-76.7-44.28a61.38,61.38,0,0,0-5.57-2.76,33.44,33.44,0,0,0-9.61-2.12A23.75,23.75,0,0,0,298.05,111Z"/><path class="k" d="M298.2,111.29,114.92,216.78c-3.66,2.12-5.57,5.28-5.44,8.71.14,3.66,2.61,7.19,7,9.72l77.28,44.61a36.51,36.51,0,0,0,4.16,2.05,26.85,26.85,0,0,0,16.58,1.31c2.28,0,10.41-4,12.05-4.93l177.21-102c3.66-2.12,5.57-5.28,5.44-8.71-.14-3.66-2.61-7.19-7-9.72l-76.22-44c-.82-.48-4.58-2.45-5.51-2.8a32.87,32.87,0,0,0-9.52-2.24A23.15,23.15,0,0,0,298.2,111.29Z"/><path class="l" d="M298.34,111.61,115.07,217.1c-3.48,2-5.24,5-5.09,8.15.16,3.38,2.49,6.68,6.63,9.07l77.63,44.82a31.22,31.22,0,0,0,4.2,2c5.37,2.1,11.83,2.45,16.69.85,1.82,0,10.55-4.47,11.86-5.22l176.2-101.42c3.47-2,5.24-5,5.08-8.16-.15-3.38-2.48-6.67-6.62-9.06L325.9,114.4c-.66-.37-4.7-2.54-5.45-2.83A32.91,32.91,0,0,0,311,109.2C306.3,108.86,301.7,109.67,298.34,111.61Z"/><path class="m" d="M298.49,111.92,115.22,217.41c-3.29,1.9-4.92,4.66-4.74,7.6.18,3.1,2.37,6.16,6.28,8.42l78,45a28.81,28.81,0,0,0,4.24,2c5.49,2,12.06,2.22,16.8.39,1.36,0,10.69-4.95,11.67-5.52L402.64,174.46c3.28-1.89,4.91-4.65,4.73-7.59-.18-3.11-2.36-6.16-6.27-8.42L325.82,115c-.49-.28-4.83-2.65-5.38-2.87a32.37,32.37,0,0,0-9.33-2.49C306.42,109.24,301.81,110,298.49,111.92Z"/><path class="n" d="M298.64,112.24,115.36,217.73c-3.1,1.79-4.58,4.34-4.38,7s2.25,5.64,5.92,7.76l78.35,45.24a25.18,25.18,0,0,0,4.28,1.94c5.6,2,12.29,2,16.89-.07.91,0,10.84-5.43,11.49-5.81L402.09,173.57c3.1-1.79,4.58-4.34,4.38-7s-2.25-5.64-5.92-7.76l-74.81-43.19c-.32-.19-4.95-2.76-5.32-2.92a32.64,32.64,0,0,0-9.23-2.61C306.54,109.62,301.93,110.34,298.64,112.24Z"/><path class="o" d="M298.78,112.55,115.51,218c-2.91,1.68-4.26,4-4,6.5s2.13,5.11,5.57,7.1l78.7,45.44a23.39,23.39,0,0,0,4.32,1.91c5.73,1.88,12.52,1.75,17-.53.45,0,11-5.91,11.3-6.1l173.17-99.68c2.91-1.68,4.25-4,4-6.49s-2.13-5.12-5.57-7.11l-74.33-42.91c-.17-.09-5.08-2.88-5.26-3a32.62,32.62,0,0,0-9.14-2.73C306.67,110,302,110.67,298.78,112.55Z"/><path d="M217.71,277.28,401,171.79c5.5-3.18,4.81-8.72-1.54-12.39l-79.06-45.64c-6.35-3.67-16-4.07-21.46-.89L115.66,218.36c-5.5,3.18-4.81,8.72,1.54,12.39l79.05,45.64C202.6,280.06,212.21,280.46,217.71,277.28Z"/></g><path class="p" d="M191.75,259.43l-73.91-42.67c-3.73-2.15-5.58-5-5.63-8,0-.26,0-2.56,0-2.83.31-3.48,3-1.56,7.93-4.42L294,101.14c9.62-5.55,24.18-6.16,32.52-1.34l73.91,42.67c3.72,2.15,5.57-1.64,5.63,1.37,0,.26,0,3.68,0,3.94-.3,3.49-3,7.11-7.93,10L224.27,258.08C214.65,263.64,200.08,264.25,191.75,259.43Z"/><path class="q" d="M294,100.84c9.62-5.56,24.18-6.16,32.52-1.35l73.91,42.68c3.66,2.11,5.38-1.41,5.59,1.53,0,.31,0,3.62,0,3.93-.29,3.5-3,7.12-7.93,10L224.27,258c-9.62,5.56-24.19,6.16-32.52,1.35l-73.91-42.67c-3.74-2.16-5.6-5-5.63-8.06,0-.3,0-2.53.06-2.83.42-3.44,3-1.74,7.9-4.56Z"/><path class="r" d="M294,100.54c9.62-5.56,24.18-6.16,32.52-1.35l73.91,42.67c3.59,2.08,5.23-1.18,5.55,1.7,0,.36.08,3.56.05,3.93-.28,3.5-3,7.12-7.93,10L224.27,257.81c-9.62,5.56-24.19,6.17-32.52,1.35l-73.91-42.67c-3.75-2.16-5.62-5.06-5.63-8.09,0-.33.05-2.5.1-2.83.5-3.39,3-1.91,7.86-4.69Z"/><path class="s" d="M294,100.24c9.62-5.56,24.18-6.16,32.52-1.35l73.91,42.67c3.52,2,5.11-.95,5.51,1.86.06.41.13,3.51.09,3.92-.27,3.51-3,7.13-7.93,10L224.27,257.68c-9.62,5.56-24.19,6.16-32.52,1.35l-73.91-42.67c-3.76-2.18-5.64-5.08-5.63-8.12,0-.37.07-2.47.13-2.84.58-3.33,3.07-2.07,7.83-4.82Z"/><path class="t" d="M294,99.94c9.62-5.56,24.18-6.16,32.52-1.35l73.91,42.67c3.46,2,5-.72,5.47,2,.08.45.17,3.45.13,3.92-.26,3.5-3,7.13-7.93,10L224.27,257.54c-9.62,5.56-24.19,6.17-32.52,1.35l-73.91-42.67c-3.78-2.18-5.66-5.09-5.63-8.15,0-.4.09-2.43.17-2.84.63-3.28,3.09-2.24,7.79-4.95Z"/><path class="u" d="M294,99.64c9.62-5.56,24.18-6.17,32.52-1.35L400.4,141c3.39,2,4.91-.5,5.43,2.18a36.42,36.42,0,0,1,.17,3.91c-.25,3.51-3,7.15-7.93,10L224.27,257.41c-9.62,5.56-24.19,6.16-32.52,1.35l-73.91-42.67c-3.79-2.19-5.67-5.12-5.62-8.18,0-.43.1-2.41.19-2.85.69-3.23,3.12-2.41,7.76-5.09Z"/><path class="v" d="M294,99.33c9.62-5.55,24.18-6.16,32.52-1.34l73.91,42.67c3.33,1.92,4.83-.27,5.4,2.34a31.8,31.8,0,0,1,.21,3.91c-.26,3.51-3,7.15-7.94,10L224.27,257.28c-9.62,5.55-24.19,6.16-32.52,1.34L117.84,216c-3.8-2.19-5.69-5.13-5.62-8.21a27.39,27.39,0,0,1,.23-2.84c.73-3.19,3.14-2.58,7.72-5.23Z"/><path class="w" d="M294,99c9.62-5.56,24.18-6.16,32.52-1.35l73.91,42.68c3.26,1.88,4.75-.05,5.36,2.5a28.27,28.27,0,0,1,.25,3.9c-.25,3.52-3,7.16-7.94,10L224.27,257.14c-9.62,5.56-24.19,6.16-32.52,1.35l-73.91-42.67c-3.81-2.2-5.7-5.16-5.62-8.24a23,23,0,0,1,.26-2.85c.78-3.15,3.18-2.75,7.69-5.36Z"/><path class="x" d="M294,98.73c9.62-5.56,24.18-6.16,32.52-1.35l73.91,42.67c3.19,1.85,4.68.18,5.32,2.67a24.21,24.21,0,0,1,.29,3.9c-.25,3.51-2.95,7.16-7.94,10L224.27,257c-9.62,5.55-24.19,6.16-32.52,1.34l-73.91-42.67c-3.83-2.21-5.71-5.17-5.62-8.27a21.34,21.34,0,0,1,.29-2.85c.82-3.1,3.21-2.92,7.66-5.49Z"/><path class="y" d="M294,98.43c9.62-5.56,24.18-6.16,32.52-1.35l73.91,42.67c3.13,1.81,4.62.4,5.28,2.82a21.32,21.32,0,0,1,.33,3.9c-.24,3.52-2.95,7.18-7.94,10.06L224.27,256.87c-9.62,5.56-24.19,6.16-32.52,1.35l-73.91-42.67c-3.84-2.22-5.72-5.2-5.62-8.3a20.06,20.06,0,0,1,.33-2.86c.85-3,3.23-3.08,7.62-5.62Z"/><path class="z" d="M294,98.13c9.62-5.56,24.18-6.16,32.52-1.35l73.91,42.67c3.06,1.77,4.55.62,5.24,3a19,19,0,0,1,.37,3.9c-.24,3.52-2.94,7.18-7.94,10.07L224.27,256.74c-9.62,5.55-24.19,6.16-32.52,1.34l-73.91-42.67c-3.85-2.22-5.73-5.21-5.62-8.33a17.75,17.75,0,0,1,.36-2.86c.88-3,3.26-3.25,7.59-5.75Z"/><path class="aa" d="M294,97.83c9.62-5.56,24.18-6.16,32.52-1.35l73.91,42.67c3,1.73,4.49.84,5.2,3.14a17.09,17.09,0,0,1,.41,3.89c-.23,3.53-2.94,7.19-7.94,10.08L224.27,256.6c-9.62,5.56-24.19,6.16-32.52,1.35l-73.91-42.67c-3.86-2.23-5.74-5.23-5.62-8.36a15.75,15.75,0,0,1,.4-2.86c.9-3,3.28-3.43,7.55-5.89Z"/><path class="ab" d="M294,97.53c9.62-5.56,24.18-6.17,32.52-1.35l73.91,42.67c2.93,1.69,4.43,1.06,5.16,3.3A15.07,15.07,0,0,1,406,146c-.23,3.54-2.93,7.2-7.94,10.1L224.27,256.47c-9.62,5.55-24.19,6.16-32.52,1.34l-73.91-42.67c-3.87-2.23-5.75-5.25-5.62-8.39a15,15,0,0,1,.43-2.86c.93-2.93,3.31-3.59,7.52-6Z"/><path class="ac" d="M294,97.22c9.62-5.55,24.18-6.16,32.52-1.34l73.91,42.67c2.86,1.65,4.37,1.27,5.13,3.46a14.18,14.18,0,0,1,.48,3.88c-.23,3.53-2.93,7.2-7.94,10.1L224.27,256.33c-9.62,5.56-24.19,6.16-32.52,1.35L117.84,215c-3.89-2.25-5.76-5.27-5.62-8.42a14.41,14.41,0,0,1,.46-2.87c1-2.89,3.34-3.76,7.49-6.16Z"/><path class="ad" d="M294,96.92c9.62-5.56,24.18-6.16,32.52-1.35l73.91,42.67c2.8,1.62,4.32,1.5,5.09,3.63a13.13,13.13,0,0,1,.52,3.87c-.22,3.54-2.92,7.22-7.94,10.12L224.27,256.2c-9.62,5.55-24.19,6.16-32.52,1.34l-73.91-42.67c-3.9-2.25-5.77-5.29-5.62-8.45a13.2,13.2,0,0,1,.5-2.87c1-2.84,3.36-3.93,7.45-6.29Z"/><path class="ae" d="M294,96.62c9.62-5.56,24.18-6.16,32.52-1.35l73.91,42.67c2.73,1.58,4.26,1.71,5.05,3.79a11.63,11.63,0,0,1,.56,3.87c-.22,3.54-2.92,7.22-7.94,10.12L224.27,256.06c-9.62,5.56-24.19,6.16-32.52,1.35l-73.91-42.67c-3.91-2.26-5.78-5.31-5.62-8.48a12.25,12.25,0,0,1,.53-2.88c1-2.8,3.4-4.09,7.42-6.42Z"/><path class="af" d="M294,96.32c9.62-5.56,24.18-6.16,32.52-1.35l73.91,42.67c2.67,1.54,4.21,1.93,5,4a10.68,10.68,0,0,1,.6,3.86c-.22,3.55-2.91,7.23-7.94,10.14L224.27,255.93c-9.62,5.55-24.19,6.16-32.52,1.34L117.84,214.6c-3.92-2.26-5.79-5.32-5.62-8.51a11.77,11.77,0,0,1,.57-2.87c1-2.77,3.42-4.27,7.38-6.56Z"/><path class="ag" d="M294,96c9.62-5.56,24.18-6.16,32.52-1.35l73.91,42.67c2.6,1.5,4.15,2.14,5,4.11a9.89,9.89,0,0,1,.64,3.86c-.21,3.54-2.91,7.23-7.94,10.14L224.27,255.79c-9.62,5.56-24.19,6.16-32.52,1.35l-73.91-42.67c-3.94-2.27-5.8-5.35-5.62-8.54a11,11,0,0,1,.6-2.88c1.05-2.73,3.45-4.44,7.35-6.69Z"/><path class="ah" d="M294,95.72c9.62-5.56,24.18-6.17,32.52-1.35L400.4,137c2.53,1.46,4.1,2.35,4.93,4.27a9.2,9.2,0,0,1,.68,3.85c-.21,3.55-2.9,7.25-7.94,10.16L224.27,255.66c-9.62,5.55-24.19,6.16-32.52,1.34l-73.91-42.67c-4-2.28-5.8-5.36-5.61-8.57a10,10,0,0,1,.63-2.88c1.07-2.69,3.47-4.61,7.31-6.83Z"/><path class="ai" d="M294,95.41c9.62-5.55,24.18-6.16,32.52-1.34l73.91,42.67c2.47,1.42,4,2.56,4.89,4.43A8.46,8.46,0,0,1,406,145c-.21,3.55-2.9,7.25-7.94,10.16L224.27,255.52c-9.62,5.56-24.19,6.16-32.52,1.35L117.84,214.2c-4-2.29-5.81-5.39-5.61-8.6a9.45,9.45,0,0,1,.66-2.89c1.09-2.65,3.5-4.77,7.28-7Z"/><path class="aj" d="M294,95.11c9.62-5.56,24.18-6.16,32.52-1.35l73.91,42.68c2.4,1.38,4,2.77,4.85,4.59a8.09,8.09,0,0,1,.77,3.84c-.21,3.56-2.9,7.26-7.95,10.18L224.27,255.39c-9.62,5.55-24.19,6.16-32.52,1.34l-73.91-42.67c-4-2.29-5.82-5.4-5.61-8.63a9.22,9.22,0,0,1,.69-2.89c1.12-2.62,3.53-4.94,7.25-7.09Z"/><path class="ak" d="M191.75,256.6l-73.91-42.67c-8.34-4.81-7.29-13.22,2.33-18.78L294,94.81c9.62-5.56,24.18-6.16,32.52-1.35l73.91,42.67c8.34,4.82,7.29,13.23-2.33,18.78L224.27,255.25C214.65,260.81,200.08,261.41,191.75,256.6Z"/><path class="al" d="M191.75,256.68,117.84,214c-3.73-2.15-5.58-5-5.63-8,0-.26,0-6.06,0-6.33.31-3.48,3-1.56,7.93-4.42L294,94.89c9.62-5.55,24.18-6.16,32.52-1.34l73.91,42.67c3.72,2.15,5.57-1.64,5.63,1.37,0,.26,0,7.18,0,7.44-.3,3.49-3,7.11-7.93,10L224.27,255.33C214.65,260.89,200.08,261.5,191.75,256.68Z"/><path class="am" d="M294,94.59c9.62-5.56,24.18-6.16,32.52-1.35l73.91,42.68c3.64,2.1,5.26-1.43,5.57,1.5,0,.34.06,7,0,7.38-.41,3.46-3,7-7.92,9.89L224.27,255c-9.62,5.56-24.19,6.16-32.52,1.35l-73.91-42.67c-3.71-2.14-5.53-5-5.63-8,0-.34,0-5.95.09-6.29.55-3.4,3-1.69,7.87-4.5Z"/><path class="an" d="M294,94.29c9.62-5.56,24.18-6.16,32.52-1.35l73.91,42.67c3.56,2.06,5-1.2,5.51,1.63.07.43.13,6.88.07,7.33-.47,3.43-3,7-7.91,9.82L224.27,254.73c-9.62,5.56-24.19,6.16-32.52,1.35l-73.91-42.67c-3.69-2.13-5.49-5-5.62-7.95,0-.42.06-5.83.15-6.26.69-3.31,3-1.82,7.8-4.57Z"/><path class="ao" d="M294,94c9.62-5.56,24.18-6.16,32.52-1.35l73.91,42.67c3.48,2,4.89-1,5.45,1.75.11.53.19,6.73.11,7.27-.51,3.41-3,7-7.89,9.76L224.27,254.43c-9.62,5.56-24.19,6.16-32.52,1.35l-73.91-42.67c-3.68-2.13-5.46-5-5.62-7.92,0-.49.09-5.71.21-6.21.8-3.23,3.06-1.95,7.74-4.65Z"/><path class="ap" d="M294,93.69c9.62-5.56,24.18-6.16,32.52-1.35L400.4,135c3.4,2,4.76-.78,5.39,1.88a69.29,69.29,0,0,1,.16,7.21c-.55,3.38-3.06,6.91-7.88,9.69L224.27,254.13c-9.62,5.56-24.19,6.16-32.52,1.35l-73.91-42.67c-3.66-2.12-5.44-4.93-5.62-7.88,0-.56.12-5.59.28-6.18.87-3.15,3.08-2.07,7.67-4.72Z"/><path class="aq" d="M294,93.39c9.62-5.56,24.18-6.17,32.52-1.35l73.91,42.67c3.31,1.91,4.65-.57,5.33,2a55.15,55.15,0,0,1,.21,7.16c-.58,3.36-3.08,6.85-7.87,9.62L224.27,253.83c-9.62,5.55-24.19,6.16-32.52,1.34L117.84,212.5c-3.65-2.1-5.42-4.9-5.61-7.83a51,51,0,0,1,.33-6.15c.93-3.08,3.11-2.2,7.61-4.8Z"/><path class="ar" d="M294,93.08c9.62-5.55,24.18-6.16,32.52-1.34l73.91,42.67c3.23,1.86,4.56-.37,5.28,2.12a46.87,46.87,0,0,1,.25,7.11c-.61,3.33-3.11,6.8-7.86,9.55L224.27,253.53c-9.62,5.55-24.19,6.16-32.52,1.34L117.84,212.2c-3.63-2.09-5.4-4.88-5.61-7.8a43.49,43.49,0,0,1,.4-6.1c1-3,3.13-2.33,7.54-4.88Z"/><path class="as" d="M294,92.78c9.62-5.56,24.18-6.16,32.52-1.35l73.91,42.68c3.15,1.81,4.47-.16,5.22,2.25a37.73,37.73,0,0,1,.29,7c-.62,3.31-3.12,6.75-7.84,9.47L224.27,253.22c-9.62,5.56-24.19,6.17-32.52,1.35L117.84,211.9c-3.61-2.09-5.39-4.85-5.61-7.76a36.82,36.82,0,0,1,.46-6.07c1-2.94,3.16-2.45,7.48-4.95Z"/><path class="at" d="M294,92.48c9.62-5.56,24.18-6.16,32.52-1.35L400.4,133.8c3.07,1.77,4.39,0,5.16,2.38a31.47,31.47,0,0,1,.34,7c-.65,3.29-3.14,6.7-7.83,9.41L224.27,252.92c-9.62,5.56-24.19,6.16-32.52,1.35L117.84,211.6c-3.6-2.08-5.38-4.83-5.61-7.72a31.16,31.16,0,0,1,.53-6c1-2.87,3.18-2.57,7.41-5Z"/><path class="au" d="M294,92.18c9.62-5.56,24.18-6.16,32.52-1.35L400.4,133.5c3,1.73,4.31.24,5.1,2.5a27.37,27.37,0,0,1,.39,6.94c-.67,3.27-3.17,6.65-7.82,9.34L224.27,252.62c-9.62,5.56-24.19,6.16-32.52,1.35L117.84,211.3c-3.58-2.07-5.36-4.81-5.6-7.69a27.38,27.38,0,0,1,.58-6c1.07-2.81,3.21-2.71,7.35-5.1Z"/><path class="av" d="M294,91.88c9.62-5.56,24.18-6.16,32.52-1.35L400.4,133.2c2.9,1.68,4.23.44,5,2.63a24.08,24.08,0,0,1,.44,6.88c-.68,3.24-3.19,6.6-7.81,9.27L224.27,252.32c-9.62,5.56-24.19,6.16-32.52,1.35L117.84,211c-3.57-2.06-5.35-4.79-5.6-7.65a24,24,0,0,1,.64-6c1.09-2.75,3.24-2.83,7.29-5.17Z"/><path class="aw" d="M294,91.58c9.62-5.56,24.18-6.16,32.52-1.35L400.4,132.9c2.82,1.63,4.16.64,5,2.75a20.68,20.68,0,0,1,.48,6.83c-.69,3.22-3.2,6.55-7.79,9.2L224.27,252c-9.62,5.56-24.19,6.16-32.52,1.35l-73.91-42.68c-3.55-2.05-5.34-4.75-5.6-7.6a21.38,21.38,0,0,1,.71-5.93c1.11-2.68,3.25-2.95,7.22-5.24Z"/><path class="ax" d="M294,91.28c9.62-5.56,24.18-6.17,32.52-1.35L400.4,132.6c2.74,1.58,4.09.83,4.92,2.87a18.48,18.48,0,0,1,.53,6.78c-.71,3.2-3.22,6.49-7.78,9.13L224.27,251.72c-9.62,5.55-24.19,6.16-32.52,1.34l-73.91-42.67c-3.54-2-5.33-4.73-5.6-7.57a19.15,19.15,0,0,1,.77-5.88c1.14-2.63,3.28-3.09,7.16-5.33Z"/><path class="ay" d="M294,91c9.62-5.55,24.18-6.16,32.52-1.34L400.4,132.3c2.66,1.53,4,1,4.86,3a16.42,16.42,0,0,1,.58,6.71c-.73,3.18-3.25,6.45-7.77,9.07L224.27,251.41c-9.62,5.56-24.19,6.17-32.52,1.35l-73.91-42.67c-3.52-2-5.31-4.71-5.59-7.53a17.15,17.15,0,0,1,.83-5.85c1.15-2.57,3.3-3.21,7.09-5.4Z"/><path class="az" d="M294,90.67c9.62-5.56,24.18-6.16,32.52-1.35L400.4,132c2.58,1.49,4,1.22,4.81,3.13a14.78,14.78,0,0,1,.62,6.66c-.74,3.16-3.27,6.4-7.76,9L224.27,251.11c-9.62,5.56-24.19,6.16-32.52,1.35l-73.91-42.67c-3.5-2-5.3-4.68-5.59-7.49a15.42,15.42,0,0,1,.89-5.81c1.17-2.52,3.33-3.34,7-5.48Z"/><path class="ba" d="M294,90.37c9.62-5.56,24.18-6.16,32.52-1.35l73.91,42.67c2.49,1.44,3.88,1.41,4.75,3.25a13.32,13.32,0,0,1,.66,6.61c-.75,3.14-3.28,6.35-7.74,8.92L224.27,250.81c-9.62,5.56-24.19,6.16-32.52,1.35l-73.91-42.67c-3.49-2-5.29-4.66-5.59-7.46a14.07,14.07,0,0,1,1-5.77c1.19-2.46,3.35-3.46,7-5.55Z"/><path class="bb" d="M294,90.07c9.62-5.56,24.18-6.16,32.52-1.35l73.91,42.67c2.41,1.39,3.81,1.6,4.69,3.38a12.05,12.05,0,0,1,.71,6.55c-.76,3.12-3.31,6.29-7.73,8.85L224.27,250.51c-9.62,5.56-24.19,6.16-32.52,1.35l-73.91-42.67c-3.47-2-5.28-4.64-5.58-7.42a12.8,12.8,0,0,1,1-5.74c1.21-2.4,3.38-3.59,6.9-5.62Z"/><path class="bc" d="M294,89.77c9.62-5.56,24.18-6.16,32.52-1.35l73.91,42.67c2.33,1.35,3.74,1.79,4.63,3.5a11,11,0,0,1,.76,6.5c-.78,3.09-3.33,6.24-7.72,8.78L224.27,250.21c-9.62,5.56-24.19,6.16-32.52,1.35l-73.91-42.68c-3.46-2-5.27-4.6-5.58-7.37a11.7,11.7,0,0,1,1.08-5.7c1.22-2.35,3.4-3.72,6.83-5.7Z"/><path class="bd" d="M294,89.47c9.62-5.56,24.18-6.17,32.52-1.35l73.91,42.67c2.25,1.3,3.67,2,4.57,3.62a10,10,0,0,1,.8,6.45c-.79,3.07-3.34,6.19-7.7,8.71L224.27,249.91c-9.62,5.55-24.19,6.16-32.52,1.34l-73.91-42.67c-3.44-2-5.26-4.58-5.58-7.34a10.88,10.88,0,0,1,1.14-5.66c1.24-2.3,3.43-3.84,6.77-5.78Z"/><path class="be" d="M294,89.16c9.62-5.55,24.18-6.16,32.52-1.34l73.91,42.67c2.17,1.25,3.6,2.15,4.51,3.75a9.06,9.06,0,0,1,.85,6.38c-.8,3.06-3.36,6.15-7.69,8.65L224.27,249.6c-9.62,5.56-24.19,6.17-32.52,1.35l-73.91-42.67c-3.42-2-5.25-4.56-5.58-7.3a10,10,0,0,1,1.21-5.63c1.26-2.24,3.45-4,6.7-5.85Z"/><path class="bf" d="M294,88.86c9.62-5.56,24.18-6.16,32.52-1.35l73.91,42.68a11.51,11.51,0,0,1,4.45,3.87,8.3,8.3,0,0,1,.9,6.33c-.82,3-3.39,6.09-7.68,8.57L224.27,249.3c-9.62,5.56-24.19,6.16-32.52,1.35L117.84,208c-3.41-2-5.24-4.54-5.57-7.26a9.22,9.22,0,0,1,1.26-5.59c1.28-2.2,3.47-4.1,6.64-5.93Z"/><path class="bg" d="M191.75,250.35l-73.91-42.67c-8.34-4.81-7.29-13.22,2.33-18.78L294,88.56c9.62-5.56,24.18-6.16,32.52-1.35l73.91,42.67c8.34,4.82,7.29,13.23-2.33,18.78L224.27,249C214.65,254.56,200.08,255.16,191.75,250.35Z"/><path class="bg" d="M191.75,250.35l-73.91-42.67c-8.34-4.81-7.29-13.22,2.33-18.78L294,88.56c9.62-5.56,24.18-6.16,32.52-1.35l73.91,42.67c8.34,4.82,7.29,13.23-2.33,18.78L224.27,249C214.65,254.56,200.08,255.16,191.75,250.35Z"/><path class="bh" d="M120.24,188.91,294,88.59c9.61-5.54,24.13-6.14,32.45-1.34l73.88,42.65c8.32,4.81,7.28,13.19-2.33,18.74L224.24,249c-9.61,5.54-24.13,6.15-32.45,1.34l-73.88-42.65C109.59,202.84,110.63,194.45,120.24,188.91Z"/><path class="bi" d="M120.3,188.91,294,88.63c9.58-5.54,24.07-6.14,32.37-1.35l73.85,42.64c8.3,4.79,7.26,13.16-2.32,18.69L224.2,248.9c-9.58,5.53-24.07,6.13-32.37,1.34L118,207.6C109.68,202.81,110.72,194.44,120.3,188.91Z"/><path class="bj" d="M120.36,188.92,294,88.66c9.55-5.52,24-6.12,32.29-1.34l73.82,42.62c8.28,4.78,7.24,13.13-2.31,18.65L224.16,248.85c-9.56,5.51-24,6.11-32.29,1.33L118,207.56C109.77,202.78,110.81,194.44,120.36,188.92Z"/><path class="bk" d="M120.43,188.92,294,88.69c9.53-5.5,23.95-6.1,32.21-1.33l73.8,42.6c8.25,4.77,7.22,13.1-2.32,18.6L224.12,248.79c-9.53,5.51-24,6.11-32.21,1.34l-73.8-42.61C109.86,202.75,110.89,194.43,120.43,188.92Z"/><path class="bl" d="M120.49,188.93,294.05,88.72c9.51-5.49,23.9-6.08,32.14-1.33L400,130c8.23,4.76,7.2,13.06-2.31,18.55L224.09,248.74c-9.51,5.49-23.9,6.09-32.14,1.33l-73.77-42.59C110,202.73,111,194.42,120.49,188.93Z"/><path class="bm" d="M120.55,188.94,294.07,88.76c9.49-5.48,23.84-6.08,32.06-1.33L399.87,130c8.21,4.75,7.18,13-2.3,18.51L224.05,248.69c-9.49,5.48-23.84,6.07-32.06,1.33l-73.74-42.58C110,202.7,111.06,194.41,120.55,188.94Z"/><path class="bn" d="M120.61,188.94,294.09,88.79c9.46-5.47,23.78-6.06,32-1.33L399.78,130c8.2,4.73,7.17,13-2.3,18.46L224,248.64c-9.46,5.46-23.78,6.06-32,1.32L118.32,207.4C110.12,202.67,111.15,194.41,120.61,188.94Z"/><path class="bo" d="M120.68,189,294.1,88.82c9.45-5.45,23.73-6,31.9-1.32L399.69,130c8.18,4.72,7.15,13-2.29,18.42L224,248.59c-9.44,5.45-23.72,6-31.9,1.32l-73.68-42.55C110.21,202.64,111.24,194.4,120.68,189Z"/><path class="bp" d="M120.74,189,294.12,88.85c9.42-5.43,23.67-6,31.82-1.32l73.66,42.53c8.16,4.71,7.13,12.93-2.28,18.37L223.94,248.53c-9.42,5.44-23.67,6-31.82,1.32l-73.66-42.52C110.3,202.62,111.32,194.39,120.74,189Z"/><path class="bq" d="M120.8,189,294.14,88.88c9.39-5.42,23.6-6,31.74-1.31l73.63,42.51c8.14,4.7,7.12,12.9-2.28,18.33L223.9,248.48c-9.4,5.43-23.61,6-31.74,1.32l-73.64-42.51C110.39,202.59,111.41,194.38,120.8,189Z"/><path class="br" d="M120.87,189l173.29-100c9.37-5.41,23.54-6,31.66-1.32l73.6,42.5c8.12,4.69,7.1,12.87-2.27,18.28L223.86,248.43c-9.37,5.41-23.55,6-31.66,1.31l-73.61-42.49C110.48,202.56,111.5,194.38,120.87,189Z"/><path class="bs" d="M120.93,189,294.17,89c9.35-5.4,23.49-6,31.59-1.31l73.58,42.48c8.09,4.67,7.08,12.84-2.27,18.24l-173.25,100c-9.35,5.4-23.49,6-31.58,1.31l-73.58-42.48C110.57,202.53,111.58,194.37,120.93,189Z"/><path class="bt" d="M121,189,294.19,89c9.33-5.38,23.43-6,31.51-1.3l73.55,42.46c8.07,4.66,7.06,12.81-2.27,18.19l-173.2,100c-9.32,5.38-23.43,6-31.5,1.3l-73.55-42.46C110.65,202.51,111.67,194.36,121,189Z"/><path class="bu" d="M121.06,189,294.21,89c9.3-5.37,23.37-6,31.43-1.3l73.52,42.45c8,4.65,7,12.77-2.26,18.14l-173.15,100c-9.3,5.37-23.37,6-31.43,1.31L118.8,207.13C110.74,202.48,111.75,194.36,121.06,189Z"/><path class="bv" d="M121.12,189,294.23,89.05c9.27-5.36,23.31-5.94,31.35-1.3l73.49,42.43c8,4.64,7,12.74-2.25,18.1L223.71,248.22c-9.28,5.36-23.31,5.94-31.35,1.3l-73.49-42.43C110.83,202.45,111.84,194.35,121.12,189Z"/><path class="bw" d="M121.18,189,294.24,89.08c9.26-5.34,23.26-5.92,31.27-1.3L399,130.2c8,4.63,7,12.71-2.25,18.05L223.67,248.17c-9.25,5.34-23.25,5.92-31.27,1.3l-73.46-42.42C110.92,202.42,111.93,194.34,121.18,189Z"/><path class="bx" d="M121.24,189l173-99.89c9.23-5.33,23.2-5.91,31.19-1.29l73.44,42.4c8,4.61,7,12.68-2.24,18l-173,99.89c-9.23,5.33-23.19,5.91-31.19,1.29L119,207C111,202.4,112,194.33,121.24,189Z"/><path class="by" d="M121.31,189l173-99.87c9.21-5.31,23.14-5.89,31.11-1.29l73.41,42.39c8,4.6,7,12.64-2.23,18l-173,99.87c-9.21,5.31-23.14,5.89-31.12,1.29L119.07,207C111.1,202.37,112.1,194.33,121.31,189Z"/><path class="bz" d="M121.37,189,294.3,89.18c9.18-5.31,23.08-5.88,31-1.29l73.38,42.37c8,4.59,7,12.61-2.22,17.92L223.56,248c-9.19,5.31-23.08,5.88-31,1.29l-73.38-42.37C111.19,202.34,112.18,194.32,121.37,189Z"/><path class="ca" d="M121.43,189,294.31,89.21c9.17-5.29,23-5.87,31-1.28l73.35,42.35c7.94,4.58,6.94,12.58-2.22,17.87L223.52,248c-9.16,5.29-23,5.87-31,1.29l-73.36-42.36C111.28,202.31,112.27,194.31,121.43,189Z"/><path class="cb" d="M121.5,189,294.33,89.24c9.14-5.27,23-5.85,30.88-1.28l73.33,42.34c7.91,4.57,6.92,12.55-2.22,17.82L223.48,247.91c-9.13,5.28-23,5.85-30.87,1.28l-73.33-42.33C111.36,202.29,112.36,194.3,121.5,189Z"/><path class="cc" d="M121.56,189,294.35,89.27c9.11-5.26,22.9-5.83,30.8-1.27l73.3,42.32c7.89,4.55,6.9,12.52-2.21,17.78L223.45,247.86c-9.12,5.26-22.91,5.83-30.8,1.28l-73.3-42.32C111.45,202.26,112.44,194.3,121.56,189Z"/><path class="cd" d="M121.62,189,294.37,89.31c9.09-5.25,22.84-5.82,30.72-1.28l73.27,42.31c7.87,4.54,6.89,12.48-2.21,17.73L223.41,247.81c-9.09,5.25-22.85,5.82-30.72,1.27l-73.27-42.3C111.54,202.23,112.53,194.29,121.62,189Z"/><path class="ce" d="M121.68,189.05l172.7-99.71c9.07-5.24,22.79-5.81,30.65-1.27l73.24,42.29c7.85,4.53,6.87,12.45-2.2,17.69l-172.7,99.7c-9.07,5.24-22.79,5.81-30.64,1.28l-73.25-42.29C111.63,202.2,112.62,194.28,121.68,189.05Z"/><path class="cf" d="M121.75,189.05,294.4,89.37c9.05-5.22,22.73-5.79,30.56-1.27l73.22,42.28C406,134.9,405,142.8,396,148L223.33,247.7c-9,5.23-22.73,5.79-30.56,1.27L119.55,206.7C111.72,202.18,112.7,194.27,121.75,189.05Z"/><path class="cg" d="M121.81,189.06,294.42,89.4c9-5.21,22.67-5.77,30.48-1.26l73.19,42.26c7.82,4.51,6.84,12.39-2.19,17.6L223.3,247.65c-9,5.21-22.68,5.78-30.49,1.26l-73.19-42.25C111.81,202.15,112.79,194.27,121.81,189.06Z"/><path class="ch" d="M121.87,189.06,294.43,89.44c9-5.2,22.62-5.76,30.41-1.26L398,130.41c7.8,4.5,6.82,12.36-2.18,17.56L223.26,247.6c-9,5.19-22.61,5.76-30.41,1.26l-73.16-42.24C111.9,202.12,112.87,194.26,121.87,189.06Z"/><path class="ci" d="M121.94,189.07l172.51-99.6c9-5.18,22.56-5.75,30.33-1.26l73.13,42.22c7.78,4.49,6.8,12.33-2.17,17.52l-172.52,99.6c-9,5.18-22.55,5.74-30.33,1.25l-73.13-42.22C112,202.09,113,194.25,121.94,189.07Z"/><path class="ci" d="M122,189.08,294.47,89.5c8.95-5.17,22.5-5.73,30.25-1.25l73.11,42.2c7.75,4.48,6.78,12.3-2.18,17.47L223.18,247.5c-9,5.16-22.49,5.73-30.25,1.25l-73.1-42.21C112.07,202.06,113.05,194.25,122,189.08Z"/><path class="cj" d="M122.06,189.08,294.49,89.53c8.93-5.15,22.43-5.71,30.17-1.25l73.08,42.19c7.73,4.47,6.76,12.27-2.17,17.42L223.15,247.44c-8.93,5.16-22.44,5.72-30.18,1.25L119.9,206.5C112.16,202,113.13,194.24,122.06,189.08Z"/><path class="ck" d="M122.12,189.09,294.5,89.57c8.91-5.15,22.38-5.71,30.1-1.25l73,42.17c7.71,4.46,6.74,12.24-2.16,17.38L223.11,247.39c-8.91,5.14-22.38,5.7-30.1,1.25l-73-42.18C112.25,202,113.22,194.23,122.12,189.09Z"/><path class="cl" d="M122.19,189.09,294.52,89.6c8.88-5.13,22.32-5.69,30-1.25l73,42.16c7.69,4.45,6.73,12.2-2.16,17.33l-172.33,99.5c-8.88,5.13-22.32,5.69-30,1.24l-73-42.16C112.34,202,113.3,194.22,122.19,189.09Z"/><path class="cm" d="M122.25,189.1,294.54,89.63c8.86-5.12,22.26-5.67,29.94-1.24l73,42.14c7.67,4.43,6.71,12.17-2.15,17.29L223,247.29c-8.86,5.11-22.26,5.67-29.93,1.24l-73-42.15C112.43,202,113.39,194.22,122.25,189.1Z"/><path class="cn" d="M122.31,189.11,294.56,89.66c8.83-5.1,22.2-5.65,29.85-1.24l73,42.13c7.65,4.42,6.69,12.14-2.14,17.24L223,247.24c-8.84,5.1-22.21,5.65-29.86,1.23l-73-42.12C112.52,201.93,113.48,194.21,122.31,189.11Z"/><path class="co" d="M122.38,189.11,294.57,89.69c8.82-5.08,22.15-5.64,29.78-1.23l72.94,42.11c7.64,4.41,6.68,12.11-2.14,17.2L223,247.18c-8.82,5.09-22.15,5.64-29.78,1.24l-72.94-42.11C112.61,201.9,113.56,194.2,122.38,189.11Z"/><path class="cp" d="M122.44,189.12,294.59,89.73c8.79-5.08,22.09-5.63,29.7-1.23l72.91,42.09c7.62,4.4,6.66,12.07-2.13,17.15L222.92,247.13c-8.79,5.08-22.09,5.63-29.7,1.23l-72.91-42.09C112.69,201.87,113.65,194.19,122.44,189.12Z"/><path class="cq" d="M122.5,189.13,294.61,89.76c8.77-5.06,22-5.61,29.62-1.23l72.89,42.08c7.59,4.39,6.64,12-2.13,17.1L222.88,247.08c-8.76,5.06-22,5.61-29.62,1.23l-72.88-42.08C112.78,201.84,113.73,194.19,122.5,189.13Z"/><path class="cr" d="M122.57,189.13,294.63,89.79c8.74-5.05,22-5.59,29.54-1.22L397,130.63c7.57,4.37,6.62,12-2.12,17.06L222.84,247c-8.74,5.05-22,5.59-29.54,1.22l-72.86-42.06C112.87,201.82,113.82,194.18,122.57,189.13Z"/><path class="cs" d="M122.63,189.14l172-99.32c8.72-5,21.92-5.58,29.47-1.22l72.83,42.05c7.55,4.36,6.6,12-2.12,17L222.81,247c-8.72,5-21.92,5.58-29.47,1.22l-72.83-42C113,201.79,113.91,194.17,122.63,189.14Z"/><path class="ct" d="M122.69,189.14l172-99.28c8.7-5,21.85-5.57,29.39-1.22l72.8,42c7.53,4.35,6.59,12-2.11,17l-172,99.28c-8.7,5-21.86,5.57-29.39,1.22l-72.8-42C113.05,201.76,114,194.16,122.69,189.14Z"/><path class="cu" d="M122.75,189.15,294.68,89.89c8.67-5,21.79-5.55,29.31-1.22l72.77,42c7.51,4.34,6.57,11.91-2.1,16.92L222.73,246.87c-8.67,5-21.79,5.55-29.31,1.22l-72.77-42C113.14,201.73,114.08,194.16,122.75,189.15Z"/><path class="cv" d="M122.82,189.16,294.69,89.92c8.66-5,21.74-5.54,29.24-1.21l72.74,42c7.49,4.33,6.55,11.88-2.1,16.88L222.69,246.82c-8.65,5-21.73,5.54-29.23,1.21l-72.74-42C113.23,201.71,114.17,194.15,122.82,189.16Z"/><path class="cw" d="M122.88,189.16,294.71,90c8.63-5,21.68-5.52,29.15-1.2l72.72,42c7.47,4.31,6.54,11.85-2.09,16.83L222.66,246.77c-8.63,5-21.68,5.52-29.15,1.21l-72.72-42C113.31,201.68,114.25,194.14,122.88,189.16Z"/><path class="cx" d="M122.94,189.17,294.73,90c8.6-5,21.62-5.51,29.07-1.21l72.69,42c7.46,4.3,6.52,11.82-2.08,16.78L222.62,246.72c-8.61,5-21.62,5.5-29.07,1.2l-72.69-42C113.4,201.65,114.34,194.14,122.94,189.17Z"/><path class="cy" d="M123,189.17,294.75,90c8.58-5,21.56-5.49,29-1.2l72.66,42c7.44,4.29,6.5,11.78-2.08,16.74L222.58,246.66c-8.58,5-21.56,5.5-29,1.21l-72.67-42C113.49,201.62,114.42,194.13,123,189.17Z"/><path class="cz" d="M123.07,189.18,294.76,90.05c8.56-4.94,21.51-5.48,28.92-1.2l72.64,41.94c7.41,4.28,6.48,11.75-2.08,16.69l-171.7,99.13c-8.55,4.94-21.5,5.48-28.91,1.2L121,205.87C113.58,201.6,114.51,194.12,123.07,189.18Z"/><path class="da" d="M123.13,189.19,294.78,90.08c8.54-4.92,21.45-5.46,28.84-1.19l72.61,41.92c7.39,4.27,6.46,11.72-2.07,16.65l-171.65,99.1c-8.54,4.93-21.45,5.46-28.84,1.2l-72.61-41.92C113.67,201.57,114.6,194.11,123.13,189.19Z"/><path class="db" d="M123.19,189.19,294.8,90.12c8.51-4.92,21.39-5.45,28.76-1.2l72.58,41.91c7.37,4.25,6.45,11.69-2.07,16.6l-171.6,99.08c-8.51,4.91-21.39,5.45-28.76,1.19l-72.58-41.9C113.76,201.54,114.68,194.11,123.19,189.19Z"/><path class="dc" d="M123.26,189.2l171.56-99c8.49-4.9,21.33-5.43,28.68-1.19l72.55,41.89c7.35,4.24,6.43,11.66-2.06,16.56L222.43,246.46c-8.49,4.9-21.33,5.43-28.68,1.19L121.2,205.76C113.85,201.51,114.77,194.1,123.26,189.2Z"/><path class="dd" d="M123.32,189.2l171.51-99c8.47-4.89,21.27-5.42,28.61-1.18L396,130.87c7.33,4.23,6.41,11.62-2,16.51l-171.52,99c-8.46,4.89-21.27,5.42-28.6,1.19l-72.52-41.87C113.94,201.49,114.85,194.09,123.32,189.2Z"/><path class="de" d="M123.38,189.21l171.47-99c8.44-4.87,21.21-5.4,28.53-1.18l72.49,41.86c7.31,4.22,6.4,11.59-2.05,16.47l-171.46,99c-8.45,4.88-21.22,5.41-28.53,1.18l-72.49-41.85C114,201.46,114.94,194.08,123.38,189.21Z"/><path class="df" d="M123.45,189.22l171.42-99c8.42-4.87,21.15-5.39,28.44-1.18l72.47,41.84c7.29,4.21,6.38,11.56-2,16.42l-171.42,99c-8.42,4.86-21.16,5.39-28.45,1.18L121.4,205.64C114.11,201.43,115,194.08,123.45,189.22Z"/><path class="dg" d="M123.51,189.22,294.89,90.28c8.39-4.85,21.09-5.38,28.36-1.18l72.44,41.83c7.28,4.19,6.36,11.53-2,16.37L222.28,246.25c-8.39,4.85-21.1,5.37-28.37,1.17L121.47,205.6C114.2,201.4,115.11,194.07,123.51,189.22Z"/><path class="dh" d="M123.57,189.23,294.9,90.31c8.38-4.83,21-5.36,28.29-1.17L395.61,131c7.25,4.18,6.34,11.49-2,16.33L222.24,246.2c-8.37,4.83-21,5.36-28.29,1.17l-72.41-41.81C114.29,201.37,115.2,194.06,123.57,189.23Z"/><path class="di" d="M123.63,189.23,294.92,90.34c8.35-4.82,21-5.34,28.21-1.17L395.52,131c7.23,4.17,6.32,11.46-2,16.28L222.21,246.14c-8.35,4.82-21,5.35-28.21,1.17l-72.39-41.79C114.38,201.35,115.29,194.06,123.63,189.23Z"/><path class="dj" d="M123.7,189.24,294.94,90.38c8.32-4.81,20.92-5.33,28.13-1.17L395.43,131c7.21,4.16,6.3,11.43-2,16.24L222.17,246.09c-8.33,4.81-20.92,5.33-28.13,1.17l-72.36-41.78C114.47,201.32,115.37,194.05,123.7,189.24Z"/><path class="dk" d="M123.76,189.25,295,90.41c8.3-4.8,20.86-5.32,28.05-1.17L395.34,131c7.19,4.16,6.29,11.41-2,16.2L222.13,246c-8.3,4.79-20.86,5.31-28,1.16l-72.33-41.76C114.56,201.29,115.46,194,123.76,189.25Z"/><path class="dl" d="M363.47,175.42l8.79-5.07a4.79,4.79,0,0,0,2-3.8h0c0-1.46-.89-2.13-2-1.5l-8.79,5.08a4.74,4.74,0,0,0-2,3.79h0C361.48,175.38,362.37,176.06,363.47,175.42Z"/><path class="dm" d="M362.68,175.14a1.12,1.12,0,0,0,.53-.17L372,169.9a4.27,4.27,0,0,0,1.72-3.35c0-.56-.17-1.22-.67-1.22a1.09,1.09,0,0,0-.53.17l-8.79,5.07a4.26,4.26,0,0,0-1.73,3.35C362,174.48,362.18,175.14,362.68,175.14Z"/><path class="dn" d="M347.78,184.48l8.79-5.07a4.79,4.79,0,0,0,2-3.8h0c0-1.46-.89-2.13-2-1.5l-8.79,5.07a4.78,4.78,0,0,0-2,3.8h0C345.79,184.44,346.68,185.12,347.78,184.48Z"/><path class="do" d="M347,184.2a1.16,1.16,0,0,0,.53-.17l8.79-5.07a4.27,4.27,0,0,0,1.72-3.35c0-.56-.17-1.22-.68-1.22a1.16,1.16,0,0,0-.53.17L348,179.63a4.28,4.28,0,0,0-1.72,3.35C346.31,183.54,346.49,184.2,347,184.2Z"/><path class="dp" d="M206.58,247.52h0a21.8,21.8,0,0,1-10.72-2.58l-70.28-40.58c-3-1.71-4.59-4-4.59-6.47s1.61-4.72,4.53-6.41l175-101.06a21.53,21.53,0,0,1,10.6-2.54,21.82,21.82,0,0,1,10.72,2.58L392.16,131c3,1.71,4.59,4,4.59,6.48s-1.61,4.72-4.53,6.4L217.18,245A21.64,21.64,0,0,1,206.58,247.52ZM311.16,88.88a20.55,20.55,0,0,0-10.1,2.4L126,192.35c-2.6,1.5-4,3.46-4,5.54s1.45,4.08,4.09,5.61l70.28,40.57a20.74,20.74,0,0,0,10.22,2.45h0a20.55,20.55,0,0,0,10.1-2.41l175-101.06c2.6-1.5,4-3.47,4-5.54s-1.45-4.09-4.09-5.61L321.38,91.32A20.85,20.85,0,0,0,311.16,88.88Z"/><path class="dq" d="M360.38,119.78l-17.44-10.06c-.68-.4-.6-1.09.2-1.55h0a3,3,0,0,1,2.67-.11l17.44,10.07c.68.39.6,1.09-.2,1.54h0A2.94,2.94,0,0,1,360.38,119.78Z"/><g class="b"><path class="c" d="M82.89,255.53l-79-45.6c-5.2-3-5.23-7.87-.06-10.86l186-107.36c5.17-3,13.6-3,18.81,0l79,45.6c5.2,3,5.23,7.87.06,10.86l-186,107.36C96.53,258.54,88.09,258.53,82.89,255.53Zm125-163.35c-4.79-2.77-12.55-2.78-17.31,0L4.61,199.51c-4.75,2.74-4.73,7.22.06,10l79,45.59c4.79,2.77,12.55,2.78,17.3,0l186-107.37c4.75-2.74,4.73-7.23-.06-10Z"/><polygon class="c" points="250.68 131.46 218.8 113.06 220.86 111.87 252.74 130.27 250.68 131.46"/><polygon class="c" points="99.12 217.62 90.74 212.78 88.78 213.91 97.17 218.75 99.12 217.62"/><polygon class="c" points="76.55 204.53 70.43 200.99 68.47 202.12 74.6 205.66 76.55 204.53"/><polygon class="c" points="75.27 209 65.91 203.6 63.95 204.73 73.31 210.13 75.27 209"/><polygon class="c" points="89.08 211.76 78.17 205.46 76.21 206.59 87.12 212.89 89.08 211.76"/><polygon class="c" points="87.7 216.18 82.44 213.14 80.48 214.28 85.74 217.31 87.7 216.18"/><polygon class="c" points="76.89 209.94 74.93 211.07 78.87 213.34 80.83 212.21 76.89 209.94"/><polygon class="c" points="159.12 182.87 150.74 178.03 148.78 179.16 157.17 184 159.12 182.87"/><polygon class="c" points="136.55 169.78 130.43 166.24 128.47 167.37 134.6 170.91 136.55 169.78"/><polygon class="c" points="135.27 174.25 125.91 168.85 123.95 169.98 133.31 175.38 135.27 174.25"/><polygon class="c" points="149.08 177.01 138.17 170.71 136.21 171.84 147.12 178.14 149.08 177.01"/><polygon class="c" points="147.7 181.43 142.44 178.39 140.49 179.53 145.74 182.56 147.7 181.43"/><polygon class="c" points="136.89 175.19 134.93 176.32 138.87 178.59 140.83 177.46 136.89 175.19"/><polygon class="c" points="220.12 148.87 211.74 144.03 209.78 145.16 218.17 150 220.12 148.87"/><polygon class="c" points="197.55 135.78 191.43 132.24 189.47 133.37 195.6 136.91 197.55 135.78"/><polygon class="c" points="196.27 140.25 186.91 134.85 184.95 135.98 194.31 141.38 196.27 140.25"/><polygon class="c" points="210.08 143.01 199.17 136.71 197.21 137.84 208.12 144.14 210.08 143.01"/><polygon class="c" points="208.7 147.43 203.44 144.39 201.49 145.53 206.74 148.56 208.7 147.43"/><polygon class="c" points="197.89 141.19 195.93 142.32 199.87 144.59 201.83 143.46 197.89 141.19"/><polygon class="c" points="142.63 205.78 140.21 204.38 138.25 205.51 140.68 206.91 142.63 205.78"/><polygon class="c" points="125.72 198.28 136.64 204.58 138.59 203.45 127.68 197.15 125.72 198.28"/><polygon class="c" points="134.4 208.43 139.65 211.46 141.61 210.33 136.35 207.3 134.4 208.43"/><polygon class="c" points="117.87 198.88 127.22 204.29 129.18 203.16 119.83 197.75 117.87 198.88"/><polygon class="c" points="126.07 196.22 124.08 195.07 122.13 196.2 124.11 197.35 126.07 196.22"/><polygon class="c" points="128.84 205.22 132.78 207.49 134.74 206.36 130.8 204.09 128.84 205.22"/><path class="c" d="M211.07,162l-52.31-30.2c-2-1.18-3.15-2.83-3.15-4.66,0-2.16,1.58-4.31,4.34-5.9l4.62-2.67a19.81,19.81,0,0,1,9.63-2.41,15.15,15.15,0,0,1,7.46,1.73L226,143.48c2,1.17,3.16,2.83,3.16,4.66,0,2.16-1.59,4.31-4.34,5.9ZM174.2,117.35a18.59,18.59,0,0,0-9,2.25l-4.62,2.66c-2.38,1.38-3.74,3.15-3.74,4.87,0,1.38.91,2.67,2.55,3.62l51.71,29.85,13.16-7.6c2.37-1.37,3.74-3.14,3.74-4.86,0-1.39-.91-2.67-2.56-3.62l-44.35-25.61A14,14,0,0,0,174.2,117.35Z"/><path class="c" d="M174.28,133.18a15.83,15.83,0,0,1-7.79-1.87c-2.19-1.27-3.4-3-3.4-4.84s1.19-3.54,3.36-4.79a15.62,15.62,0,0,1,7.69-1.85,15.91,15.91,0,0,1,7.79,1.87c2.19,1.27,3.4,3,3.4,4.84s-1.19,3.55-3.36,4.8A15.62,15.62,0,0,1,174.28,133.18ZM174.14,121a14.38,14.38,0,0,0-7.09,1.69c-1.78,1-2.76,2.36-2.76,3.75s1,2.76,2.8,3.8a14.7,14.7,0,0,0,7.19,1.71,14.49,14.49,0,0,0,7.09-1.68c1.78-1,2.76-2.36,2.76-3.76s-1-2.75-2.8-3.8A14.67,14.67,0,0,0,174.14,121Z"/><path class="c" d="M152.68,195.44l-52.3-30.2c-2-1.17-3.16-2.83-3.16-4.66,0-2.16,1.59-4.31,4.34-5.9l4.62-2.67a19.87,19.87,0,0,1,9.63-2.41,15.19,15.19,0,0,1,7.47,1.73l44.35,25.6c2,1.18,3.15,2.83,3.15,4.66,0,2.16-1.58,4.31-4.34,5.91ZM115.81,150.8a18.59,18.59,0,0,0-9,2.25l-4.62,2.67c-2.37,1.37-3.74,3.14-3.74,4.86,0,1.39.91,2.67,2.56,3.62l51.7,29.85,13.16-7.59c2.38-1.38,3.74-3.15,3.74-4.87,0-1.38-.91-2.67-2.55-3.62l-44.35-25.6A14,14,0,0,0,115.81,150.8Z"/><path class="c" d="M115.89,166.63a15.77,15.77,0,0,1-7.78-1.87c-2.2-1.27-3.41-3-3.41-4.84s1.19-3.54,3.36-4.79a17,17,0,0,1,15.48,0c2.2,1.26,3.41,3,3.41,4.84s-1.19,3.54-3.36,4.79A15.66,15.66,0,0,1,115.89,166.63Zm-.13-12.15a14.39,14.39,0,0,0-7.1,1.69c-1.78,1-2.76,2.36-2.76,3.75s1,2.76,2.81,3.8a15.89,15.89,0,0,0,14.28,0c1.78-1,2.76-2.36,2.76-3.75s-1-2.76-2.81-3.81A14.63,14.63,0,0,0,115.76,154.48Z"/><path class="c" d="M139.23,219.06h0a15.26,15.26,0,0,1-7.46-1.72l-47.84-27.8,14.36-8.28a19.71,19.71,0,0,1,9.63-2.42,15.26,15.26,0,0,1,7.46,1.73l39.29,22.85c2,1.18,3.15,2.83,3.15,4.66,0,2.16-1.58,4.31-4.34,5.91l-4.62,2.66A19.7,19.7,0,0,1,139.23,219.06Zm-52.9-29.51,46,26.75a14,14,0,0,0,6.86,1.56,18.59,18.59,0,0,0,9-2.25l4.62-2.66c2.38-1.38,3.74-3.15,3.74-4.87,0-1.38-.91-2.67-2.55-3.62l-39.29-22.85a14,14,0,0,0-6.86-1.57,18.59,18.59,0,0,0-9,2.25Z"/><path class="c" d="M107.67,196.18a15.83,15.83,0,0,1-7.79-1.87c-2.19-1.27-3.4-3-3.4-4.84s1.19-3.54,3.36-4.79a15.63,15.63,0,0,1,7.7-1.85,15.9,15.9,0,0,1,7.78,1.87c2.2,1.27,3.41,3,3.41,4.85s-1.2,3.54-3.36,4.79A15.69,15.69,0,0,1,107.67,196.18ZM107.54,184a14.39,14.39,0,0,0-7.1,1.69c-1.78,1-2.76,2.36-2.76,3.75s1,2.76,2.8,3.8a15.91,15.91,0,0,0,14.29,0c1.78-1,2.76-2.36,2.76-3.75s-1-2.76-2.81-3.81A14.63,14.63,0,0,0,107.54,184Z"/><path class="c" d="M196.23,184.56h0a15.26,15.26,0,0,1-7.46-1.72L140.93,155l14.36-8.28a19.71,19.71,0,0,1,9.63-2.42,15.26,15.26,0,0,1,7.46,1.73l39.29,22.85c2,1.18,3.15,2.83,3.15,4.66,0,2.16-1.58,4.31-4.34,5.91l-4.62,2.66A19.7,19.7,0,0,1,196.23,184.56Zm-52.9-29.51,46,26.75a14,14,0,0,0,6.86,1.56,18.59,18.59,0,0,0,9-2.25l4.62-2.66c2.38-1.38,3.74-3.15,3.74-4.87,0-1.38-.91-2.67-2.55-3.62l-39.29-22.85a14,14,0,0,0-6.86-1.57,18.59,18.59,0,0,0-9,2.25Z"/><path class="c" d="M164.67,161.68a15.83,15.83,0,0,1-7.79-1.87c-2.19-1.27-3.4-3-3.4-4.84s1.19-3.54,3.36-4.79a15.63,15.63,0,0,1,7.7-1.85,15.9,15.9,0,0,1,7.78,1.87c2.2,1.27,3.41,3,3.41,4.85s-1.2,3.54-3.36,4.79A15.69,15.69,0,0,1,164.67,161.68Zm-.13-12.15a14.39,14.39,0,0,0-7.1,1.69c-1.78,1-2.76,2.36-2.76,3.75s1,2.76,2.8,3.8a15.91,15.91,0,0,0,14.29,0c1.78-1,2.76-2.36,2.76-3.75s-1-2.76-2.81-3.81A14.63,14.63,0,0,0,164.54,149.53Z"/><path class="c" d="M89.93,230.19,37.63,200c-2-1.17-3.16-2.83-3.16-4.66,0-2.16,1.59-4.31,4.34-5.9l4.62-2.67a19.87,19.87,0,0,1,9.63-2.41,15.19,15.19,0,0,1,7.47,1.73l44.35,25.6c2,1.18,3.15,2.83,3.15,4.66,0,2.16-1.58,4.31-4.34,5.91ZM53.06,185.55a18.59,18.59,0,0,0-9,2.25l-4.62,2.67c-2.37,1.37-3.74,3.14-3.74,4.86,0,1.39.91,2.67,2.56,3.62l51.7,29.85,13.16-7.59c2.38-1.38,3.74-3.15,3.74-4.87,0-1.38-.91-2.67-2.55-3.62l-44.35-25.6A14,14,0,0,0,53.06,185.55Z"/><path class="c" d="M53.14,201.38a15.77,15.77,0,0,1-7.78-1.87c-2.2-1.27-3.41-3-3.41-4.84s1.19-3.54,3.36-4.79A15.66,15.66,0,0,1,53,188a15.77,15.77,0,0,1,7.78,1.88c2.2,1.26,3.41,3,3.41,4.84s-1.19,3.54-3.36,4.79A15.66,15.66,0,0,1,53.14,201.38ZM53,189.23a14.39,14.39,0,0,0-7.1,1.69c-1.78,1-2.76,2.36-2.76,3.75s1,2.76,2.81,3.8a14.52,14.52,0,0,0,7.18,1.71,14.39,14.39,0,0,0,7.1-1.68c1.78-1,2.76-2.36,2.76-3.75s-1-2.76-2.81-3.81A14.63,14.63,0,0,0,53,189.23Z"/><path class="c" d="M111.71,187.15a10.62,10.62,0,0,0-9.59,0c-2.64,1.53,0,2.47,2.68,4s4.3,3.07,6.94,1.55S114.36,188.68,111.71,187.15Zm-1,4.4a2.54,2.54,0,0,1-2.28,0l-4.32-2.5a.69.69,0,0,1,0-1.31,2.51,2.51,0,0,1,2.28,0l4.32,2.49A.7.7,0,0,1,110.69,191.55Z"/><path class="c" d="M106,188.32a1.12,1.12,0,0,0-1,0,.31.31,0,0,0,0,.59,1.12,1.12,0,0,0,1,0C106.31,188.75,106.31,188.49,106,188.32Z"/><path class="c" d="M109.74,190.46a1.14,1.14,0,0,0-1,0,.31.31,0,0,0,0,.59,1.12,1.12,0,0,0,1,0C110,190.89,110,190.63,109.74,190.46Z"/><path class="c" d="M117.75,161.67a1.8,1.8,0,0,1-.64-1.21c0-.26.36-.46.8-.46a7.71,7.71,0,0,0,1.73-.19,1.57,1.57,0,0,0,1.11,0c.29-.17.38-.39.24-.54,1.16-.74,1.71-1.62.05-2.57a4.34,4.34,0,0,0-4.45,0,1.32,1.32,0,0,0-1,.15.38.38,0,0,0,0,.64,1.73,1.73,0,0,0-.33,1c0,.26-.35.47-.79.46a6.67,6.67,0,0,1-2.11-.36,3.51,3.51,0,0,0-2.74.18l-1.28.74c-.25.15-.25.38,0,.52l6.88,4a1,1,0,0,0,.91,0l1.28-.74C118.17,162.83,118.27,162.17,117.75,161.67Z"/><path class="c" d="M54.62,196.8a1.76,1.76,0,0,1-.63-1.22c0-.25.35-.45.8-.46a8.23,8.23,0,0,0,1.72-.18,1.63,1.63,0,0,0,1.11,0c.29-.17.39-.4.25-.55,1.16-.73,1.7-1.61.05-2.57a4.38,4.38,0,0,0-4.46,0,1.28,1.28,0,0,0-.94.14.38.38,0,0,0,0,.64,1.77,1.77,0,0,0-.32,1c0,.25-.35.47-.8.46a6.62,6.62,0,0,1-2.1-.37,3.55,3.55,0,0,0-2.74.19l-1.29.74c-.24.14-.24.37,0,.52l6.88,4a1,1,0,0,0,.9,0l1.28-.74C55.05,198,55.15,197.3,54.62,196.8Z"/><path class="c" d="M175.75,128.67a1.8,1.8,0,0,1-.64-1.21c0-.26.36-.46.8-.46a7.71,7.71,0,0,0,1.73-.19,1.57,1.57,0,0,0,1.11,0c.29-.17.38-.39.24-.54,1.16-.74,1.71-1.62,0-2.57a4.34,4.34,0,0,0-4.45,0,1.32,1.32,0,0,0-1,.15.38.38,0,0,0,0,.64,1.73,1.73,0,0,0-.33,1c0,.26-.35.47-.79.46a6.67,6.67,0,0,1-2.11-.36,3.51,3.51,0,0,0-2.74.18l-1.28.74c-.25.15-.25.38,0,.52l6.88,4a1,1,0,0,0,.91,0l1.28-.74C176.17,129.83,176.27,129.17,175.75,128.67Z"/></g><g class="dr"><path class="ds" d="M231.32,222a14.09,14.09,0,0,1-7-1.68l-16.72-9.65L190.83,201a6.56,6.56,0,0,1-3.6-5.6c0-2.53,1.65-4.94,4.55-6.61a18.14,18.14,0,0,1,8.77-2.21,14.09,14.09,0,0,1,7,1.67l16.72,9.65L241,207.53a6.55,6.55,0,0,1,3.61,5.6c0,2.52-1.66,4.93-4.56,6.6A18,18,0,0,1,231.32,222Z"/><path class="dt" d="M192.4,189h0a17.63,17.63,0,0,1,8.55-2.15,14.4,14.4,0,0,1,6,1.22c.27.13.57.28.81.42l16.29,9.41,1.36.78,14.92,8.62a8,8,0,0,1,2.92,2.83,5.63,5.63,0,0,1,.72,2.52c.09,2.43-1.49,4.79-4.33,6.44a17.63,17.63,0,0,1-8.55,2.15,14.4,14.4,0,0,1-6-1.23,8.8,8.8,0,0,1-.81-.42L208,210.15l-1.36-.79-14.92-8.61a8,8,0,0,1-2.92-2.83,5.65,5.65,0,0,1-.73-2.52C188,193,189.56,190.61,192.4,189Z"/><path class="du" d="M193,189.16h0a17.11,17.11,0,0,1,8.32-2.09,14,14,0,0,1,5.87,1.21c.24.11.56.28.78.41l15.85,9.15,1.33.77L239.7,207a8.67,8.67,0,0,1,2.89,2.7,5.68,5.68,0,0,1,.79,2.39c.17,2.35-1.32,4.67-4.12,6.28a17,17,0,0,1-8.32,2.09,14.05,14.05,0,0,1-5.88-1.21c-.23-.11-.56-.28-.78-.41l-15.85-9.15-1.32-.77-14.52-8.38a8.67,8.67,0,0,1-2.89-2.7,5.56,5.56,0,0,1-.8-2.39C188.74,193.09,190.23,190.78,193,189.16Z"/><path class="dv" d="M193.65,189.36h0a16.4,16.4,0,0,1,8.09-2,13.52,13.52,0,0,1,5.71,1.19c.21.1.56.28.75.4l15.42,8.9,1.29.74L239,206.72a9.71,9.71,0,0,1,2.87,2.57,5.64,5.64,0,0,1,.86,2.27c.25,2.26-1.15,4.53-3.91,6.12a16.59,16.59,0,0,1-8.09,2,13.59,13.59,0,0,1-5.71-1.19c-.21-.1-.56-.29-.75-.4l-15.42-8.9-1.29-.75-14.11-8.15a9.65,9.65,0,0,1-2.86-2.56,5.65,5.65,0,0,1-.87-2.28C189.5,193.22,190.9,191,193.65,189.36Z"/><path class="dw" d="M194.28,189.55h0a16,16,0,0,1,7.86-2,13.1,13.1,0,0,1,5.54,1.17l.73.39,15,8.65,1.25.73,13.71,7.91a11,11,0,0,1,2.83,2.44,5.68,5.68,0,0,1,.94,2.15c.33,2.16-1,4.39-3.7,6a15.86,15.86,0,0,1-7.86,2,13.1,13.1,0,0,1-5.54-1.17l-.73-.39-15-8.65-1.25-.73-13.71-7.91a11,11,0,0,1-2.83-2.44,5.68,5.68,0,0,1-.94-2.15C190.25,193.34,191.57,191.12,194.28,189.55Z"/><path class="dx" d="M194.9,189.75h0a15.48,15.48,0,0,1,7.64-1.89,12.67,12.67,0,0,1,5.37,1.16c.15.07.55.29.7.38l14.54,8.39,1.23.71,13.3,7.68a13.19,13.19,0,0,1,2.8,2.3,5.78,5.78,0,0,1,1,2c.42,2.07-.81,4.25-3.48,5.79a15.42,15.42,0,0,1-7.63,1.89A12.52,12.52,0,0,1,225,217l-.7-.37-14.54-8.4-1.23-.71-13.3-7.68a12.66,12.66,0,0,1-2.8-2.3,5.85,5.85,0,0,1-1-2C191,193.47,192.24,191.29,194.9,189.75Z"/><path class="dy" d="M195.53,190h0a14.92,14.92,0,0,1,7.4-1.82,12.11,12.11,0,0,1,5.21,1.14l.67.36,14.11,8.15,1.19.69,12.9,7.44a15.77,15.77,0,0,1,2.76,2.17,5.86,5.86,0,0,1,1.08,1.91c.51,2-.65,4.13-3.26,5.64a15.07,15.07,0,0,1-7.41,1.82,12.21,12.21,0,0,1-5.2-1.14c-.13-.06-.55-.3-.67-.37L210.2,207.8l-1.19-.69-12.9-7.45a15,15,0,0,1-2.77-2.17,6.13,6.13,0,0,1-1.08-1.91C191.76,193.6,192.91,191.46,195.53,190Z"/><path class="dz" d="M196.16,190.15h0a14.38,14.38,0,0,1,7.17-1.76,11.76,11.76,0,0,1,5,1.12c.11.05.55.3.65.36l13.68,7.89,1.15.67,12.5,7.22a19.36,19.36,0,0,1,2.73,2,6.52,6.52,0,0,1,1.15,1.79c.59,1.9-.48,4-3.05,5.47A14.43,14.43,0,0,1,230,216.7a11.77,11.77,0,0,1-5-1.12l-.65-.36-13.67-7.89-1.16-.67L197,199.45a20.32,20.32,0,0,1-2.74-2,6.52,6.52,0,0,1-1.15-1.79C192.51,193.72,193.58,191.63,196.16,190.15Z"/><path class="ea" d="M196.78,190.35h0a13.93,13.93,0,0,1,6.95-1.7,11.19,11.19,0,0,1,4.86,1.11l.62.34,13.24,7.65,1.12.64,12.1,7a18.26,18.26,0,0,1,2.7,1.9,4.13,4.13,0,0,1,1.22,1.67c.68,1.81-.31,3.85-2.84,5.31a14,14,0,0,1-6.94,1.69,11.34,11.34,0,0,1-4.87-1.1l-.62-.35-13.24-7.64-1.12-.65-12.1-7a18.3,18.3,0,0,1-2.7-1.91,4,4,0,0,1-1.22-1.66C193.26,193.85,194.25,191.8,196.78,190.35Z"/><path class="eb" d="M197.41,190.54h0a13.44,13.44,0,0,1,6.71-1.63,10.89,10.89,0,0,1,4.7,1.1l.59.33,12.81,7.39,1.08.63L235,205.11a25.22,25.22,0,0,1,2.67,1.77,4,4,0,0,1,1.3,1.55c.77,1.71-.15,3.71-2.63,5.14a13.29,13.29,0,0,1-6.71,1.63,10.75,10.75,0,0,1-4.7-1.09l-.6-.33-12.8-7.39-1.09-.63L198.74,199a26.29,26.29,0,0,1-2.67-1.77,4.12,4.12,0,0,1-1.29-1.55C194,194,194.93,192,197.41,190.54Z"/><path class="ec" d="M198,190.74h0a12.88,12.88,0,0,1,6.49-1.56,10.47,10.47,0,0,1,4.53,1.07l.57.33L222,197.72l1,.6,11.29,6.52c.12.07,2.59,1.53,2.64,1.64a4,4,0,0,1,1.36,1.42c.87,1.63,0,3.59-2.41,5a12.82,12.82,0,0,1-6.48,1.56,10.33,10.33,0,0,1-4.53-1.07l-.57-.32L212,205.91l-1.05-.6-11.29-6.52c-.12-.07-2.58-1.53-2.64-1.64a4,4,0,0,1-1.36-1.42C194.75,194.1,195.6,192.15,198,190.74Z"/><path class="ed" d="M224.87,212.65l-13.49-7.79-13.49-7.79c-2.72-1.57-2.38-4.32.77-6.13h0c3.14-1.82,7.89-2,10.62-.44l13.49,7.79,13.49,7.79c2.72,1.57,2.38,4.31-.77,6.13h0C232.35,214,227.6,214.22,224.87,212.65Z"/></g><path class="ee" d="M225.6,208.87l-33.44-19.3c-3.37-1.95-2.95-5.35,1-7.6h0c3.89-2.25,9.79-2.5,13.16-.55l33.44,19.31c3.37,2,2.95,5.35-.94,7.6h0C234.87,210.58,229,210.82,225.6,208.87Z"/><path class="ef" d="M225.6,208.43l-33.44-19.31c-3.37-1.94-2.95-5.35,1-7.6h0c3.89-2.25,9.79-2.49,13.16-.54l33.44,19.31c3.37,1.94,2.95,5.35-.94,7.6h0C234.87,210.13,229,210.38,225.6,208.43Z"/><polygon class="dk" points="223.19 198.74 222.31 195.81 220.9 196.62 211.86 191.4 210.47 192.21 219.5 197.43 218.1 198.24 223.19 198.74"/><path class="dk" d="M233.81,200a8.48,8.48,0,0,0-7.68,0c-2,1.16-2.09,3-.24,4.26L224,205.34l3.79-.27a8.57,8.57,0,0,0,6-.63C236,203.21,235.94,201.23,233.81,200Z"/><path class="ef" d="M259.52,177.08l-6.9-4-2,1.14,6.9,4Zm2.17-1.72,7.2,4.16,2-1.14-7.2-4.16Zm10.83,1,3.14,1.82,2-1.14-3.15-1.81ZM264,181.9l6.9,4,2-1.14-6.89-4Zm6.57-1.45,3.08,1.78,2-1.13-3.08-1.78Zm-40.18-23.19,4,2.28,2-1.13-4-2.29Zm10.62,9.1L238.52,165l-2,1.14,2.43,1.4Zm2.2-4-5.28-3-2,1.13,5.27,3.05Zm11.67,6.74-10.05-5.8-2,1.13,10,5.8Zm2,11.62-7.2-4.16-2,1.14,7.21,4.16ZM237.31,156l11,6.33,2-1.13-10.95-6.33ZM264,171.45l6.9,4,2-1.13-6.9-4Zm-7,16.89,2-1.13-2.69-1.55-2,1.13Zm14.16.67-12.68-7.32-2,1.13,12.68,7.33Zm-6.78-19.63-8.42-4.86-2,1.13,8.42,4.86Zm-25.08,1.24-8.52-4.92-2,1.13,8.52,4.92ZM262,173.29l-5.58-3.23-2,1.14,5.58,3.22Zm-32.92-8.53-5.27-3-2,1.14,5.28,3ZM224,158.82l11,6.33,2-1.14-11-6.32Zm8,12.84L221,165.33l-2,1.13,11,6.33Zm19,.5-8.42-4.86-2,1.13,8.43,4.86Zm3.61,12.56-6.9-4-2,1.14,6.9,4Zm-12.69.18,2.64,1.52,2-1.13-2.64-1.53Zm4.26,2.46,7.2,4.16,2-1.14-7.21-4.16ZM235.7,176.07l8.42,4.86,2-1.13-8.42-4.86Zm-12.35-1.89,5.28,3,2-1.14L225.32,173ZM248,175.66l-7.11-4.11-2,1.14,7.1,4.1Zm-16.35-1.93,2.44,1.4,2-1.13-2.43-1.41Zm57.66,10.06-2,1.13,4.11,2.38,2-1.14Zm-9.07,7.51,2.13,1.23,2-1.13-2.13-1.23Zm-9.3-.13,6.9,4,2-1.13-6.9-4Zm-1.85,4.17,4.11,2.38,2-1.14-4.1-2.37Zm-10.5-6.06,8.88,5.13,2-1.14-8.88-5.13Zm-28.33-11.12,10,5.8,2-1.13-10-5.8Zm7.4-24.19-6.25-3.61-2,1.14,6.25,3.61Zm39.64,25.15,8.42,4.87,2-1.14L279.25,178Zm-27.4-15.81,2.44,1.4,2-1.13-2.43-1.41Zm38.83,25.38-11.82-6.82-2,1.13,11.82,6.83Zm-7.8.74-6.48-3.74-2,1.13,6.48,3.75Zm-16.63-9.6L261.15,178l-2,1.14,3.15,1.82Zm-33.61-24.64L226.86,153l-2,1.14,3.82,2.2Zm-23.93,9.41,9.4,5.42,2-1.13-9.39-5.43Zm12.65-.21-6.15-3.55-2,1.14,6.15,3.55Zm2.82-3.61-4.43-2.56-2,1.14,4.43,2.55Zm2.1-4-2-1.15-2,1.14,2,1.15ZM217.77,171l4,2.28,2-1.13-3.95-2.29Z"/><g class="eg"><path class="eh" d="M364.26,139.09l10.08,5.82a1.62,1.62,0,0,0,1.5,0,.46.46,0,0,0,0-.87l-10.08-5.82a1.71,1.71,0,0,0-1.51,0A.46.46,0,0,0,364.26,139.09Zm9.05,6.42-10.08-5.82a1.71,1.71,0,0,0-1.51,0,.46.46,0,0,0,0,.87l10.08,5.82a1.67,1.67,0,0,0,1.51,0A.46.46,0,0,0,373.31,145.51ZM370.78,147l-10.08-5.82a1.71,1.71,0,0,0-1.51,0,.46.46,0,0,0,0,.87l10.08,5.82a1.67,1.67,0,0,0,1.51,0A.46.46,0,0,0,370.78,147Z"/></g><path class="ds" d="M356.68,110.47,305,82.29a7.35,7.35,0,0,1,0-12.73l17.72-10.84a7.38,7.38,0,0,1,7.37,0l51.68,28.18a7.36,7.36,0,0,1,0,12.73l-17.72,10.84A7.35,7.35,0,0,1,356.68,110.47Z"/><path class="dt" d="M357,109.76l-51.18-27.9a7.16,7.16,0,0,1,0-12.4l16.64-10.22a7.17,7.17,0,0,1,7.18,0l51.19,27.9a7.16,7.16,0,0,1,0,12.4L364.2,109.75A7.19,7.19,0,0,1,357,109.76Z"/><path class="du" d="M357.34,109.05,306.65,81.44a7,7,0,0,1,0-12.09l15.56-9.59a7,7,0,0,1,7,0l50.69,27.61a7,7,0,0,1,0,12.09L364.34,109A7,7,0,0,1,357.34,109.05Z"/><path class="dv" d="M357.67,108.33,307.47,81a6.8,6.8,0,0,1,0-11.76l14.48-9a6.79,6.79,0,0,1,6.81,0l50.2,27.33a6.79,6.79,0,0,1,0,11.76l-14.47,9A6.77,6.77,0,0,1,357.67,108.33Z"/><path class="dw" d="M358,107.62l-49.71-27a6.61,6.61,0,0,1,0-11.44l13.4-8.34a6.61,6.61,0,0,1,6.62,0l49.71,27a6.61,6.61,0,0,1,0,11.44l-13.39,8.34A6.58,6.58,0,0,1,358,107.62Z"/><path class="dx" d="M358.32,106.91,309.11,80.15a6.42,6.42,0,0,1,0-11.11l12.32-7.72a6.42,6.42,0,0,1,6.44,0l49.21,26.75a6.43,6.43,0,0,1,0,11.12l-12.32,7.72A6.42,6.42,0,0,1,358.32,106.91Z"/><path class="dy" d="M358.65,106.2,309.93,79.73a6.24,6.24,0,0,1,0-10.8l11.23-7.09a6.21,6.21,0,0,1,6.25,0L376.12,88.3a6.24,6.24,0,0,1,0,10.79l-11.24,7.1A6.23,6.23,0,0,1,358.65,106.2Z"/><path class="dz" d="M359,105.49,310.75,79.3a6,6,0,0,1,0-10.47l10.15-6.47a6,6,0,0,1,6.06,0l48.23,26.18a6,6,0,0,1,0,10.47L365,105.48A6,6,0,0,1,359,105.49Z"/><path class="ea" d="M359.31,104.77l-47.74-25.9a5.87,5.87,0,0,1,0-10.15l9.07-5.85a5.88,5.88,0,0,1,5.88,0l47.73,25.9a5.87,5.87,0,0,1,0,10.15l-9.07,5.85A5.88,5.88,0,0,1,359.31,104.77Z"/><path class="eb" d="M359.64,104.06,312.39,78.44a5.67,5.67,0,0,1,0-9.82l8-5.23a5.7,5.7,0,0,1,5.69,0L373.3,89a5.68,5.68,0,0,1,0,9.83l-8,5.22A5.65,5.65,0,0,1,359.64,104.06Z"/><path class="ec" d="M360,103.35,313.21,78a5.5,5.5,0,0,1,0-9.51l6.91-4.6a5.49,5.49,0,0,1,5.5,0l46.75,25.34a5.49,5.49,0,0,1,0,9.5l-6.91,4.6A5.51,5.51,0,0,1,360,103.35Z"/><path class="ed" d="M360.29,102.64,314,77.59a5.31,5.31,0,0,1,0-9.18l5.83-4a5.32,5.32,0,0,1,5.32,0l46.26,25a5.31,5.31,0,0,1,0,9.18l-5.83,4A5.3,5.3,0,0,1,360.29,102.64Z"/><path class="ei" d="M360.57,104.07,306.23,72.74C299.75,69,300.56,62.47,308,58.15l.19-.06c7.48-4.32,18.8-4.79,25.28-1.05l42.61,24.57c6.48,3.74,5.67,10.27-1.81,14.59Z"/><path class="ej" d="M374.31,95.32l-13.74,7.88L306.23,71.86c-2.75-1.58-4.17-3.67-4.34-5.87-.18,2.52,1.23,5,4.34,6.75l54.34,31.33,13.74-7.87c4.31-2.49,6.39-5.72,6.15-8.72C380.27,90.23,378.2,93.07,374.31,95.32Z"/><g class="ek"><path class="dk" d="M330,67.33l1.48-1.9-3.29.86-2.65-1.41.37,2.07-3.08,1,3.49.45.77,2,1.75-1.78,3.6.22Zm8.1,4.68,1.49-1.9-3.3.86-2.64-1.41.37,2.07-3.08,1,3.49.45.77,2,1.75-1.78,3.59.22Zm8.11,4.68,1.48-1.9-3.29.86-2.65-1.41.37,2.07-3.08,1,3.49.45.77,2L345,78l3.6.22Zm8.1,4.68,1.49-1.9-3.3.85-2.64-1.41.37,2.08-3.08,1,3.49.45.77,2,1.75-1.78,3.59.22Zm8.11,4.68,1.48-1.9-3.29.85-2.65-1.41.37,2.08-3.08,1,3.49.45.77,2,1.75-1.78,3.6.22Z"/></g><g class="eg"><path class="eh" d="M274.47,152.13a4.69,4.69,0,0,1-4.24,0c-1.17-.68-1.18-1.78,0-2.45a4.64,4.64,0,0,1,4.23,0A1.29,1.29,0,0,1,274.47,152.13Z"/><path class="eh" d="M290,161.08a4.66,4.66,0,0,1-4.24,0,1.29,1.29,0,0,1,0-2.44,4.66,4.66,0,0,1,4.24,0A1.29,1.29,0,0,1,290,161.08Z"/></g><path class="ef" d="M304.33,163.58a1.08,1.08,0,0,0-.54-.13c5-6.08,3.16-13.6-5.61-18.67s-21.67-6.13-32.17-3.28a.56.56,0,0,0-.16-.14,13.76,13.76,0,0,0-12.45,0c-3.43,2-3.41,5.2,0,7.19a.88.88,0,0,0,.36.1c-1.8,4.32,6.87,7.83,15.52,12.82s14.83,10.09,22.41,8.93a.34.34,0,0,0,.2.37,13.82,13.82,0,0,0,12.45,0C307.79,168.79,307.77,165.57,304.33,163.58ZM254.46,142a11.48,11.48,0,0,1,10.19,0,32,32,0,0,0-6.56,2.81,12.16,12.16,0,0,0-3.81,3.08C251.64,146.13,251.69,143.55,254.46,142ZM294,163.18a10.53,10.53,0,0,1-9.53,0l-18.07-10.43c-2.64-1.52-2.65-4,0-5.51a10.56,10.56,0,0,1,9.53,0l18.07,10.43C296.56,159.2,296.57,161.67,294,163.18Zm-1,7h0a19.88,19.88,0,0,0,5.35-2.2,21.09,21.09,0,0,0,4.89-3.8l.07.06c2.86,1.65,2.88,4.33,0,6A11.43,11.43,0,0,1,293,170.14Z"/><path class="ef" d="M335.26,137c-6-3.47-15.75-3.49-21.72,0-5.72,3.29-5.93,8.56-.69,12.05l-5.33,3.07,10.74-.74c5.64,1.45,12.46.85,17.06-1.8C341.3,146.09,341.27,140.48,335.26,137Zm-14.4,8.51-1.17-.67,3.16-1.82-3.27-1.89L316.43,143l-1.16-.66,7-4,1.16.67-2.87,1.66,3.27,1.88,2.86-1.65,1.17.67Zm3.13,1.81-1.14-.66,5.3-3,1.14.65Zm6.15-3.66a1.29,1.29,0,0,1-.63-.17c-.21-.12-.31-.25-.31-.37s.09-.25.28-.36a1.11,1.11,0,0,1,.63-.17,1.24,1.24,0,0,1,.64.18c.2.11.31.24.31.36s-.1.25-.3.37A1.22,1.22,0,0,1,330.14,143.66Zm4,1.42L329,147.75l-.85-.49,4.63-3ZM327,149a1.39,1.39,0,0,1-.72-.19c-.23-.13-.35-.27-.35-.42s.12-.29.36-.43a1.48,1.48,0,0,1,.72-.2,1.51,1.51,0,0,1,.73.2q.35.21.33.42c0,.15-.12.28-.34.41A1.58,1.58,0,0,1,327,149Z"/><path class="ds" d="M324.75,123.53,252.5,81.8a9.14,9.14,0,0,1,0-15.81l20.68-12.17a9.17,9.17,0,0,1,9.16,0l72.24,41.73a9.14,9.14,0,0,1,0,15.81L333.9,123.52A9.12,9.12,0,0,1,324.75,123.53Z"/><path class="dt" d="M325.15,122.65,253.52,81.27a8.91,8.91,0,0,1,0-15.41l19.34-11.39a8.89,8.89,0,0,1,8.92,0l71.63,41.37a8.9,8.9,0,0,1,0,15.41l-19.33,11.39A8.91,8.91,0,0,1,325.15,122.65Z"/><path class="du" d="M325.56,121.76l-71-41a8.67,8.67,0,0,1,0-15l18-10.63a8.68,8.68,0,0,1,8.69,0l71,41a8.68,8.68,0,0,1,0,15l-18,10.62A8.65,8.65,0,0,1,325.56,121.76Z"/><path class="dv" d="M326,120.88,255.56,80.21a8.43,8.43,0,0,1,0-14.6l16.65-9.85a8.42,8.42,0,0,1,8.46,0l70.41,40.66a8.44,8.44,0,0,1,0,14.61l-16.65,9.85A8.44,8.44,0,0,1,326,120.88Z"/><path class="dw" d="M326.38,120l-69.8-40.31a8.2,8.2,0,0,1,0-14.2l15.31-9.08a8.21,8.21,0,0,1,8.23,0l69.79,40.32a8.2,8.2,0,0,1,0,14.2L334.6,120A8.19,8.19,0,0,1,326.38,120Z"/><path class="dx" d="M326.78,119.11l-69.18-40a8,8,0,0,1,0-13.8l14-8.3a8,8,0,0,1,8,0l69.19,40a8,8,0,0,1,0,13.8l-14,8.3A8,8,0,0,1,326.78,119.11Z"/><path class="dy" d="M327.19,118.23,258.62,78.62a7.74,7.74,0,0,1,0-13.4l12.62-7.53a7.76,7.76,0,0,1,7.77,0l68.57,39.61a7.74,7.74,0,0,1,0,13.4L335,118.22A7.77,7.77,0,0,1,327.19,118.23Z"/><path class="dz" d="M327.6,117.34l-68-39.25a7.51,7.51,0,0,1,0-13l11.28-6.76a7.53,7.53,0,0,1,7.53,0l68,39.26a7.51,7.51,0,0,1,0,13l-11.29,6.75A7.51,7.51,0,0,1,327.6,117.34Z"/><path class="ea" d="M328,116.46l-67.36-38.9a7.29,7.29,0,0,1,0-12.6l9.95-6a7.27,7.27,0,0,1,7.3,0l67.35,38.9a7.28,7.28,0,0,1,0,12.6l-9.94,6A7.3,7.3,0,0,1,328,116.46Z"/><path class="eb" d="M328.41,115.58,261.67,77a7,7,0,0,1,0-12.19l8.6-5.21a7.06,7.06,0,0,1,7.07,0l66.74,38.55a7,7,0,0,1,0,12.2l-8.6,5.2A7.06,7.06,0,0,1,328.41,115.58Z"/><path class="ec" d="M328.82,114.69l-66.13-38.2a6.81,6.81,0,0,1,0-11.79l7.26-4.43a6.82,6.82,0,0,1,6.84,0L342.9,98.45a6.82,6.82,0,0,1,0,11.8l-7.26,4.43A6.82,6.82,0,0,1,328.82,114.69Z"/><path class="ed" d="M329.23,113.81,263.71,76a6.58,6.58,0,0,1,0-11.39l5.92-3.66a6.6,6.6,0,0,1,6.6,0l65.52,37.85a6.58,6.58,0,0,1,0,11.39l-5.92,3.66A6.6,6.6,0,0,1,329.23,113.81Z"/><path class="el" d="M329.54,113.45l-79.67-46c-6.48-3.74-5.67-10.28,1.81-14.59l7.08-4.09c7.48-4.32,18.79-4.79,25.27-1.05L352,87c6.48,3.74,5.66,10.27-1.82,14.59Z"/><path class="ej" d="M350.16,100.67l-20.62,11.9-79.67-46c-2.75-1.58-4.17-3.67-4.34-5.87-.18,2.52,1.23,5,4.34,6.75l79.67,46,20.62-11.91c4.32-2.49,6.4-5.71,6.16-8.71C356.13,95.57,354.06,98.42,350.16,100.67Z"/><ellipse class="dk" cx="273.07" cy="60.15" rx="9.31" ry="16.12" transform="translate(211.44 332.89) rotate(-89.69)"/><path class="em" d="M275.74,62.7a2.23,2.23,0,0,1-.79-1.51c0-.32.44-.57,1-.57a9.55,9.55,0,0,0,2.14-.23,1.93,1.93,0,0,0,1.38,0c.36-.21.47-.49.3-.67,1.44-.91,2.11-2,.06-3.19a5.41,5.41,0,0,0-5.52,0,1.66,1.66,0,0,0-1.17.17.48.48,0,0,0,0,.8,2.17,2.17,0,0,0-.4,1.23c0,.32-.44.58-1,.57a8.08,8.08,0,0,1-2.61-.45,4.37,4.37,0,0,0-3.39.23l-1.59.91a.34.34,0,0,0,0,.65l8.52,4.92a1.23,1.23,0,0,0,1.12,0l1.6-.92C276.26,64.12,276.39,63.31,275.74,62.7Z"/><path class="dk" d="M332.53,86.71l-8.38-4.84-2,1.13,8.38,4.84Zm-3.81,3-10-5.78-2,1.13,10,5.78ZM341,91.61l-6.87-4-2,1.13,6.87,4ZM306,71.37l-10-5.74-2,1.13L304,72.5Zm-1.28,4.48-13.29-7.61-2,1.13L302.72,77Zm25.66,14.81-2,1.13L331,93.31l2-1.13ZM318.49,78.6l-10.91-6.29-2,1.13,10.91,6.3Zm4,2.34-2.42-1.4-2,1.13,2.42,1.4ZM317.1,83l-5.25-3-2,1.13,5.26,3Zm-10.81-6.24-2,1.13,3.94,2.28,2-1.14Zm26.33,17.46,7.18,4.14,1.95-1.13-7.17-4.14ZM293.57,80.51l10.92,6.3,1.95-1.13-10.91-6.3Zm.35-2.07-10.16-5.8-2,1.13L292,79.57Zm12.18,9.3,2.43,1.4,2-1.13-2.42-1.4Z"/><path class="ds" d="M293.75,153.2,221.5,111.47a9.14,9.14,0,0,1,0-15.81l20.68-12.17a9.14,9.14,0,0,1,9.16,0l72.24,41.73a9.13,9.13,0,0,1,0,15.8L302.9,153.19A9.15,9.15,0,0,1,293.75,153.2Z"/><path class="dt" d="M294.15,152.31l-71.63-41.37a8.91,8.91,0,0,1,0-15.41l19.34-11.39a8.89,8.89,0,0,1,8.92,0l71.63,41.38a8.9,8.9,0,0,1,0,15.41L303.08,152.3A8.91,8.91,0,0,1,294.15,152.31Z"/><path class="du" d="M294.56,151.43l-71-41a8.68,8.68,0,0,1,0-15l18-10.62a8.68,8.68,0,0,1,8.69,0l71,41a8.68,8.68,0,0,1,0,15l-18,10.62A8.68,8.68,0,0,1,294.56,151.43Z"/><path class="dv" d="M295,150.55l-70.41-40.67a8.44,8.44,0,0,1,0-14.61l16.65-9.85a8.47,8.47,0,0,1,8.46,0l70.41,40.67a8.44,8.44,0,0,1,0,14.61l-16.65,9.84A8.44,8.44,0,0,1,295,150.55Z"/><path class="dw" d="M295.38,149.66l-69.8-40.31a8.21,8.21,0,0,1,0-14.21l15.31-9.07a8.21,8.21,0,0,1,8.23,0l69.79,40.31a8.21,8.21,0,0,1,0,14.21l-15.31,9.07A8.19,8.19,0,0,1,295.38,149.66Z"/><path class="dx" d="M295.78,148.78l-69.18-40a8,8,0,0,1,0-13.81l14-8.3a8,8,0,0,1,8,0l69.19,40a8,8,0,0,1,0,13.81l-14,8.3A8,8,0,0,1,295.78,148.78Z"/><path class="dy" d="M296.19,147.89l-68.57-39.61a7.74,7.74,0,0,1,0-13.4l12.62-7.52a7.74,7.74,0,0,1,7.77,0L316.56,127a7.74,7.74,0,0,1,0,13.4L304,147.88A7.72,7.72,0,0,1,296.19,147.89Z"/><path class="dz" d="M296.6,147l-68-39.26a7.51,7.51,0,0,1,0-13L239.9,88a7.51,7.51,0,0,1,7.53,0l68,39.26a7.51,7.51,0,0,1,0,13L304.13,147A7.51,7.51,0,0,1,296.6,147Z"/><path class="ea" d="M297,146.13l-67.36-38.91a7.29,7.29,0,0,1,0-12.6l10-6a7.25,7.25,0,0,1,7.3,0l67.35,38.9a7.28,7.28,0,0,1,0,12.6l-9.94,6A7.3,7.3,0,0,1,297,146.13Z"/><path class="eb" d="M297.41,145.24l-66.74-38.55a7.05,7.05,0,0,1,0-12.2l8.6-5.2a7.06,7.06,0,0,1,7.07,0l66.74,38.55a7,7,0,0,1,0,12.2l-8.6,5.2A7.06,7.06,0,0,1,297.41,145.24Z"/><path class="ec" d="M297.82,144.36l-66.13-38.2a6.82,6.82,0,0,1,0-11.8l7.26-4.43a6.85,6.85,0,0,1,6.84,0l66.13,38.2a6.82,6.82,0,0,1,0,11.8l-7.26,4.43A6.82,6.82,0,0,1,297.82,144.36Z"/><path class="ed" d="M298.23,143.47l-65.52-37.84a6.59,6.59,0,0,1,0-11.4l5.92-3.65a6.57,6.57,0,0,1,6.6,0l65.52,37.84a6.59,6.59,0,0,1,0,11.4l-5.92,3.65A6.57,6.57,0,0,1,298.23,143.47Z"/><path class="en" d="M298.54,143.11l-79.67-46c-6.48-3.74-5.67-10.27,1.81-14.59l7.08-4.08c7.48-4.32,18.79-4.79,25.27-1l68,39.23c6.48,3.74,5.66,10.27-1.82,14.59Z"/><path class="ej" d="M319.16,130.33l-20.62,11.91-79.67-46c-2.75-1.59-4.17-3.67-4.34-5.88-.18,2.53,1.23,5,4.34,6.75l79.67,46,20.62-11.9c4.32-2.49,6.4-5.71,6.16-8.71C325.13,125.24,323.06,128.09,319.16,130.33Z"/><ellipse class="eo" cx="242.07" cy="89.82" rx="9.31" ry="16.12" transform="translate(150.94 331.4) rotate(-89.69)"/><path class="ep" d="M244.74,92.36a2.19,2.19,0,0,1-.79-1.5c0-.32.44-.57,1-.57a9.55,9.55,0,0,0,2.14-.24,2,2,0,0,0,1.38,0c.36-.21.47-.49.3-.67,1.44-.92,2.11-2,.06-3.19a5.43,5.43,0,0,0-5.52,0,1.61,1.61,0,0,0-1.17.18.48.48,0,0,0,0,.8,2.17,2.17,0,0,0-.4,1.23c0,.32-.44.58-1,.57a8.36,8.36,0,0,1-2.61-.45,4.37,4.37,0,0,0-3.39.22l-1.59.92a.34.34,0,0,0,0,.65l8.52,4.92a1.23,1.23,0,0,0,1.12,0l1.6-.92C245.26,93.79,245.39,93,244.74,92.36Z"/><path class="eq" d="M301.53,116.38l-8.38-4.84-2,1.13,8.38,4.84Zm-3.81,3-10-5.78-2,1.13,10,5.78Zm12.3,1.88-6.87-4-2,1.13,6.87,4ZM275,101l-10-5.74-2,1.13L273,102.17Zm-1.28,4.47-13.29-7.6-2,1.13,13.29,7.6Zm25.66,14.82-2,1.13L300,123l2-1.13Zm-11.85-12.06L276.58,102l-2,1.13,10.91,6.3Zm4,2.33-2.42-1.4-2,1.13,2.42,1.4Zm-5.43,2.09-5.25-3-2,1.14,5.26,3Zm-10.81-6.24-2,1.13,3.94,2.27,2-1.13Zm26.33,17.46,7.18,4.14,1.95-1.13-7.17-4.14Zm-39.05-13.74,10.92,6.3,1.95-1.13L264.53,109Zm.35-2.06-10.16-5.8-2,1.13,10.16,5.8Zm12.18,9.3,2.43,1.4,2-1.13-2.42-1.4Z"/><path class="ds" d="M220.16,197.63,147.92,155.9a9.14,9.14,0,0,1,0-15.81l20.68-12.17a9.12,9.12,0,0,1,9.15,0L250,169.64a9.14,9.14,0,0,1,0,15.81l-20.68,12.17A9.17,9.17,0,0,1,220.16,197.63Z"/><path class="dt" d="M220.57,196.74l-71.63-41.37a8.9,8.9,0,0,1,0-15.41l19.34-11.39a8.89,8.89,0,0,1,8.92,0l71.63,41.38a8.9,8.9,0,0,1,0,15.41l-19.34,11.39A8.89,8.89,0,0,1,220.57,196.74Z"/><path class="du" d="M221,195.86l-71-41a8.68,8.68,0,0,1,0-15l18-10.62a8.68,8.68,0,0,1,8.69,0l71,41a8.67,8.67,0,0,1,0,15l-18,10.62A8.68,8.68,0,0,1,221,195.86Z"/><path class="dv" d="M221.39,195,151,154.31a8.44,8.44,0,0,1,0-14.61l16.65-9.85a8.47,8.47,0,0,1,8.46,0l70.41,40.67a8.44,8.44,0,0,1,0,14.61L229.84,195A8.42,8.42,0,0,1,221.39,195Z"/><path class="dw" d="M221.79,194.09,152,153.78a8.21,8.21,0,0,1,0-14.21l15.31-9.07a8.19,8.19,0,0,1,8.22,0l69.8,40.31a8.21,8.21,0,0,1,0,14.21L230,194.08A8.21,8.21,0,0,1,221.79,194.09Z"/><path class="dx" d="M222.2,193.21l-69.19-40a8,8,0,0,1,0-13.81l14-8.3a8,8,0,0,1,8,0l69.19,40a8,8,0,0,1,0,13.81l-14,8.3A8,8,0,0,1,222.2,193.21Z"/><path class="dy" d="M222.61,192.32,154,152.71a7.75,7.75,0,0,1,0-13.4l12.63-7.52a7.72,7.72,0,0,1,7.76,0L243,171.39a7.75,7.75,0,0,1,0,13.4l-12.63,7.52A7.72,7.72,0,0,1,222.61,192.32Z"/><path class="dz" d="M223,191.44l-68-39.26a7.51,7.51,0,0,1,0-13l11.29-6.75a7.51,7.51,0,0,1,7.53,0l68,39.26a7.51,7.51,0,0,1,0,13l-11.28,6.75A7.51,7.51,0,0,1,223,191.44Z"/><path class="ea" d="M223.42,190.56l-67.35-38.91a7.28,7.28,0,0,1,0-12.6l9.94-6a7.25,7.25,0,0,1,7.3,0L240.65,172a7.29,7.29,0,0,1,0,12.6l-9.95,6A7.3,7.3,0,0,1,223.42,190.56Z"/><path class="eb" d="M223.83,189.67l-66.74-38.55a7.05,7.05,0,0,1,0-12.2l8.6-5.2a7.06,7.06,0,0,1,7.07,0l66.74,38.55a7.05,7.05,0,0,1,0,12.2l-8.6,5.2A7,7,0,0,1,223.83,189.67Z"/><path class="ec" d="M224.24,188.79l-66.13-38.2a6.82,6.82,0,0,1,0-11.8l7.26-4.43a6.83,6.83,0,0,1,6.83,0l66.14,38.2a6.82,6.82,0,0,1,0,11.8l-7.26,4.43A6.81,6.81,0,0,1,224.24,188.79Z"/><path class="ed" d="M224.65,187.9l-65.52-37.84a6.58,6.58,0,0,1,0-11.4L165,135a6.57,6.57,0,0,1,6.6,0l65.52,37.84a6.59,6.59,0,0,1,0,11.4l-5.92,3.65A6.57,6.57,0,0,1,224.65,187.9Z"/><path class="er" d="M225,187.55l-79.68-46c-6.47-3.74-5.66-10.27,1.82-14.59l7.08-4.08c7.48-4.32,18.79-4.79,25.27-1.05l67.94,39.23c6.48,3.74,5.67,10.27-1.81,14.59Z"/><path class="ej" d="M245.58,174.77,225,186.67l-79.68-46c-2.74-1.59-4.16-3.67-4.34-5.88-.17,2.53,1.24,5,4.34,6.75l79.68,46,20.62-11.91c4.31-2.49,6.39-5.71,6.16-8.71C251.54,169.67,249.48,172.52,245.58,174.77Z"/><ellipse class="es" cx="168.49" cy="134.25" rx="9.31" ry="16.12" transform="translate(33.33 302.01) rotate(-89.69)"/><path class="et" d="M171.15,136.79a2.22,2.22,0,0,1-.78-1.5c0-.32.44-.57,1-.57a9.55,9.55,0,0,0,2.14-.24,2,2,0,0,0,1.37,0c.36-.21.48-.49.31-.67,1.43-.92,2.11-2,.06-3.19a5.43,5.43,0,0,0-5.52,0,1.66,1.66,0,0,0-1.17.18.48.48,0,0,0,0,.8,2.18,2.18,0,0,0-.41,1.23c0,.32-.43.58-1,.57a8.31,8.31,0,0,1-2.61-.45,4.36,4.36,0,0,0-3.39.22l-1.59.92a.34.34,0,0,0,0,.65l8.52,4.92a1.23,1.23,0,0,0,1.12,0l1.59-.92C171.68,138.22,171.81,137.41,171.15,136.79Z"/><path class="eq" d="M228,160.81,219.56,156l-1.95,1.13,8.38,4.84Zm-3.81,3-10-5.78-2,1.13,10,5.78Zm12.3,1.88-6.87-4-2,1.13,6.87,4Zm-35.06-20.24-10-5.74-2,1.13,10,5.74Zm-1.29,4.47-13.28-7.6-2,1.13,13.29,7.6Zm25.67,14.82-2,1.13,2.62,1.52,2-1.13ZM213.91,152.7,203,146.4l-2,1.13,10.91,6.3Zm4,2.33-2.43-1.4-2,1.14,2.42,1.39Zm-5.43,2.09-5.25-3-2,1.13,5.25,3Zm-10.81-6.24-2,1.13,3.94,2.27,2-1.13ZM228,168.34l7.17,4.14,2-1.13L230,167.21ZM189,154.6l10.91,6.3,2-1.13L191,153.47Zm.34-2.06-10.15-5.8-2,1.13,10.16,5.8Zm12.19,9.3,2.42,1.4,2-1.13-2.42-1.4Z"/><path class="ds" d="M211.28,170.76,139,129a9.14,9.14,0,0,1,0-15.81l42-25.46a9.14,9.14,0,0,1,9.16,0l72.24,41.72a9.14,9.14,0,0,1,0,15.81l-42,25.46A9.12,9.12,0,0,1,211.28,170.76Z"/><path class="dt" d="M211.68,169.88l-71.63-41.37a8.9,8.9,0,0,1,0-15.41l40.66-24.69a8.91,8.91,0,0,1,8.92,0l71.63,41.38a8.89,8.89,0,0,1,0,15.4l-40.65,24.69A8.93,8.93,0,0,1,211.68,169.88Z"/><path class="du" d="M212.09,169l-71-41a8.67,8.67,0,0,1,0-15l39.32-23.91a8.65,8.65,0,0,1,8.69,0l71,41a8.67,8.67,0,0,1,0,15L220.78,169A8.68,8.68,0,0,1,212.09,169Z"/><path class="dv" d="M212.5,168.11l-70.41-40.67a8.43,8.43,0,0,1,0-14.6L180,89.7a8.44,8.44,0,0,1,8.46,0l70.41,40.67a8.44,8.44,0,0,1,0,14.61L221,168.1A8.44,8.44,0,0,1,212.5,168.11Z"/><path class="dw" d="M212.91,167.23l-69.8-40.32a8.2,8.2,0,0,1,0-14.2l36.63-22.36a8.21,8.21,0,0,1,8.23,0l69.79,40.31a8.21,8.21,0,0,1,0,14.21l-36.63,22.36A8.21,8.21,0,0,1,212.91,167.23Z"/><path class="dx" d="M213.31,166.34l-69.18-40a8,8,0,0,1,0-13.8L179.4,91a8,8,0,0,1,8,0l69.19,40a8,8,0,0,1,0,13.81l-35.29,21.58A8,8,0,0,1,213.31,166.34Z"/><path class="dy" d="M213.72,165.46l-68.58-39.61a7.74,7.74,0,0,1,0-13.4l33.94-20.81a7.74,7.74,0,0,1,7.77,0l68.57,39.6a7.75,7.75,0,0,1,0,13.41l-34,20.81A7.74,7.74,0,0,1,213.72,165.46Z"/><path class="dz" d="M214.13,164.58l-68-39.26a7.51,7.51,0,0,1,0-13l32.61-20a7.51,7.51,0,0,1,7.53,0l68,39.26a7.51,7.51,0,0,1,0,13l-32.61,20A7.51,7.51,0,0,1,214.13,164.58Z"/><path class="ea" d="M214.54,163.69l-67.36-38.9a7.29,7.29,0,0,1,0-12.6l31.27-19.27a7.3,7.3,0,0,1,7.3,0l67.35,38.91a7.28,7.28,0,0,1,0,12.6l-31.26,19.26A7.27,7.27,0,0,1,214.54,163.69Z"/><path class="eb" d="M214.94,162.81,148.2,124.26a7.05,7.05,0,0,1,0-12.2L178.1,93.57a7.06,7.06,0,0,1,7.07,0l66.74,38.55a7,7,0,0,1,0,12.2L222,162.8A7.06,7.06,0,0,1,214.94,162.81Z"/><path class="ec" d="M215.35,161.92l-66.13-38.19a6.82,6.82,0,0,1,0-11.8l28.58-17.72a6.85,6.85,0,0,1,6.84,0l66.13,38.2a6.82,6.82,0,0,1,0,11.8l-28.58,17.71A6.8,6.8,0,0,1,215.35,161.92Z"/><path class="ed" d="M215.76,161,150.24,123.2a6.59,6.59,0,0,1,0-11.4l27.24-16.94a6.57,6.57,0,0,1,6.6,0l65.52,37.84a6.59,6.59,0,0,1,0,11.4L222.36,161A6.57,6.57,0,0,1,215.76,161Z"/><path class="ds" d="M172.39,195.43l-51.67-28.18a7.35,7.35,0,0,1,0-12.73l17.72-10.84a7.35,7.35,0,0,1,7.37,0l51.67,28.18a7.35,7.35,0,0,1,0,12.73l-17.72,10.84A7.38,7.38,0,0,1,172.39,195.43Z"/><path class="dt" d="M172.72,194.72l-51.18-27.9a7.17,7.17,0,0,1,0-12.41l16.64-10.21a7.17,7.17,0,0,1,7.18,0l51.18,27.89a7.17,7.17,0,0,1,0,12.41L179.9,194.71A7.17,7.17,0,0,1,172.72,194.72Z"/><path class="du" d="M173.05,194l-50.69-27.61a7,7,0,0,1,0-12.08l15.56-9.59a7,7,0,0,1,7,0l50.69,27.61a7,7,0,0,1,0,12.08L180.05,194A7,7,0,0,1,173.05,194Z"/><path class="dv" d="M173.38,193.29,123.18,166a6.79,6.79,0,0,1,0-11.76l14.48-9a6.79,6.79,0,0,1,6.81,0l50.2,27.32a6.8,6.8,0,0,1,0,11.77l-14.47,9A6.77,6.77,0,0,1,173.38,193.29Z"/><path class="dw" d="M173.7,192.58l-49.7-27a6.61,6.61,0,0,1,0-11.44l13.4-8.34a6.58,6.58,0,0,1,6.62,0l49.71,27a6.61,6.61,0,0,1,0,11.44l-13.39,8.34A6.63,6.63,0,0,1,173.7,192.58Z"/><path class="dx" d="M174,191.87l-49.21-26.76a6.42,6.42,0,0,1,0-11.11l12.32-7.72a6.4,6.4,0,0,1,6.43,0L192.77,173a6.43,6.43,0,0,1,0,11.12l-12.31,7.72A6.42,6.42,0,0,1,174,191.87Z"/><path class="dy" d="M174.36,191.16l-48.72-26.48a6.24,6.24,0,0,1,0-10.79l11.24-7.1a6.23,6.23,0,0,1,6.25,0l48.72,26.47a6.23,6.23,0,0,1,0,10.79l-11.23,7.1A6.26,6.26,0,0,1,174.36,191.16Z"/><path class="dz" d="M174.69,190.44l-48.23-26.18a6,6,0,0,1,0-10.47l10.16-6.48a6,6,0,0,1,6.06,0l48.23,26.19a6.05,6.05,0,0,1,0,10.47l-10.16,6.48A6,6,0,0,1,174.69,190.44Z"/><path class="ea" d="M175,189.73l-47.74-25.9a5.87,5.87,0,0,1,0-10.15l9.07-5.85a5.86,5.86,0,0,1,5.87,0L190,173.73a5.86,5.86,0,0,1,0,10.14l-9.08,5.85A5.84,5.84,0,0,1,175,189.73Z"/><path class="eb" d="M175.34,189,128.1,163.4a5.67,5.67,0,0,1,0-9.82l8-5.23a5.7,5.7,0,0,1,5.69,0L189,174a5.68,5.68,0,0,1,0,9.83L181,189A5.69,5.69,0,0,1,175.34,189Z"/><path class="ec" d="M175.67,188.31,128.92,163a5.49,5.49,0,0,1,0-9.5l6.91-4.6a5.49,5.49,0,0,1,5.5,0l46.75,25.34a5.49,5.49,0,0,1,0,9.5l-6.91,4.6A5.51,5.51,0,0,1,175.67,188.31Z"/><path class="ed" d="M176,187.6l-46.26-25a5.3,5.3,0,0,1,0-9.18l5.83-4a5.28,5.28,0,0,1,5.31,0l46.26,25.05a5.31,5.31,0,0,1,0,9.18l-5.83,4A5.32,5.32,0,0,1,176,187.6Z"/><path class="eu" d="M217.62,165.7,138,119.7c-6.48-3.74-5.67-10.28,1.81-14.59l28.85-16.73c7.48-4.32,18.79-4.78,25.27-1l67.95,39.22c6.48,3.74,5.66,10.28-1.82,14.6Z"/><path class="ej" d="M260,140.28l-42.39,24.54-79.67-46c-2.75-1.58-4.17-3.67-4.34-5.87-.18,2.52,1.23,5,4.34,6.75l79.67,46L260,141.16c4.32-2.49,6.4-5.72,6.16-8.72C266,135.18,263.91,138,260,140.28Z"/><path class="ev" d="M176.28,189,121.94,157.7c-6.48-3.74-5.67-10.28,1.81-14.59l.19-.06c7.48-4.32,18.8-4.79,25.27-1.05l42.62,24.56c6.48,3.74,5.66,10.28-1.82,14.6Z"/><ellipse class="ew" cx="182.92" cy="99.76" rx="9.31" ry="16.12" transform="translate(82.17 282.14) rotate(-89.69)"/><path class="ej" d="M190,180.28l-13.73,7.88-54.34-31.34c-2.75-1.58-4.17-3.67-4.34-5.87-.18,2.52,1.23,5,4.34,6.75L176.28,189,190,181.16c4.32-2.49,6.4-5.72,6.16-8.72C196,175.18,193.91,178,190,180.28Z"/><ellipse class="eq" cx="182.92" cy="94.51" rx="9.31" ry="16.12" transform="translate(87.42 276.92) rotate(-89.69)"/><ellipse class="dk" cx="182.92" cy="89.26" rx="9.31" ry="16.12" transform="translate(92.67 271.7) rotate(-89.69)"/><path class="ex" d="M185.59,91.81a2.21,2.21,0,0,1-.79-1.51c0-.31.44-.57,1-.57a9.55,9.55,0,0,0,2.14-.23,2,2,0,0,0,1.38,0c.36-.21.47-.49.3-.68,1.44-.91,2.11-2,.06-3.18a5.38,5.38,0,0,0-5.52,0,1.58,1.58,0,0,0-1.16.18.47.47,0,0,0-.05.79,2.2,2.2,0,0,0-.4,1.24c0,.31-.44.57-1,.57a8.37,8.37,0,0,1-2.61-.46,4.37,4.37,0,0,0-3.39.23l-1.59.92c-.31.18-.31.47,0,.64l8.52,4.92a1.28,1.28,0,0,0,1.13,0l1.59-.92C186.11,93.24,186.24,92.42,185.59,91.81Z"/><path class="ew" d="M230.6,127l-5.32-2.9-2,1.14,5.31,2.9Zm2.16-1.72,7.21,4.16,2-1.13-7.2-4.16Zm2.26,6.55,6.9,4,2-1.14-6.9-4Zm6.57-1.45,3.08,1.78,2-1.14-3.08-1.78Zm-34.34-19.63,3.95,2.28,2-1.13-4-2.29Zm10.62,9.1-2.44-1.41-2,1.13L215.9,121Zm2.2-4-5.28-3-2,1.14,5.27,3Zm7.42,4.25-5.8-3.31-2,1.13,5.79,3.32Zm.4,10.54-5.62-3.07-2,1.13,5.62,3.08Zm-13.67-21.14,11,6.33,2-1.14-10.95-6.32ZM228,138.3l2-1.14-2.69-1.55-2,1.13Zm10.75-1.42-9.27-5.24-2,1.14,9.27,5.24Zm-22.61-12.75-8.52-4.92-2,1.14,8.52,4.92Zm16.94-.89-4-2.14-2,1.14,4,2.13Zm-27.09-5-5.27-3-2,1.14,5.28,3Zm-5.14-5.94,11,6.33,2-1.14-11-6.32Zm8,12.83-10.95-6.32L196,120l11,6.33Zm14.77-2-4.17-2.38-2,1.14,4.17,2.38Zm2,11.48-5.31-2.9-2,1.14,5.32,2.9Zm-13.07-5.08,4.17,2.38,2-1.14-4.17-2.38Zm8-2.9-2.85-1.62-2,1.14,2.85,1.62Zm-12.09.56,2.44,1.4,2-1.13-2.43-1.41Zm39.34,11.92L250,140.4l2-1.13L249.86,138Zm-9.3-.13,6.89,4,2-1.13-6.9-4Zm-1.85,4.17,4.11,2.37,2-1.13-4.11-2.37Zm-7.09-4,5.46,3.05,2-1.14-5.46-3Zm-15.09-31.74-6.25-3.61-2,1.14,6.26,3.61Zm41.81,29.07-8.4-4.74L246,133l8.41,4.74Zm-7.79.74-3.07-1.66-2,1.14,3.06,1.65Zm-13.21-7.52L232.22,128l-2,1.13,3.14,1.82ZM207.59,108.7l-3.82-2.2-2,1.13,3.81,2.21Zm-11.28,9.21-6.15-3.55-2,1.13,6.15,3.55Zm2.81-3.62-4.42-2.55-2,1.13,4.43,2.56Zm2.11-4-2-1.15-2,1.13,2,1.15Z"/><path class="eq" d="M230.6,122.86l-5.32-2.9-2,1.14,5.31,2.9Zm2.16-1.71L240,125.3l2-1.13-7.2-4.16Zm2.26,6.54,6.9,4,2-1.13-6.9-4Zm6.57-1.45,3.08,1.78,2-1.13-3.08-1.78Zm-34.34-19.63,3.95,2.28,2-1.13-4-2.29Zm10.62,9.1-2.44-1.41-2,1.14,2.44,1.4Zm2.2-4-5.28-3-2,1.13,5.27,3Zm7.42,4.26-5.8-3.32-2,1.13,5.79,3.32Zm.4,10.54-5.62-3.08-2,1.14,5.62,3.07ZM214.22,105.4l11,6.32,2-1.13-10.95-6.33ZM228,134.13l2-1.14-2.69-1.55-2,1.14Zm10.75-1.42-9.27-5.23-2,1.13,9.27,5.24ZM216.17,120l-8.52-4.92-2,1.13,8.52,4.92Zm16.94-.9-4-2.14-2,1.14,4,2.14Zm-27.09-5-5.27-3-2,1.14,5.28,3Zm-5.14-5.94,11,6.33,2-1.13-11-6.33Zm8,12.84-10.95-6.33-2,1.14,11,6.32Zm14.77-2-4.17-2.38-2,1.13,4.17,2.38Zm2,11.47-5.31-2.9-2,1.14,5.32,2.9Zm-13.07-5.08,4.17,2.38,2-1.13-4.17-2.38Zm8-2.9-2.85-1.61-2,1.13,2.85,1.62Zm-12.09.56,2.44,1.4,2-1.13-2.43-1.41ZM247.89,135l2.13,1.23,2-1.14-2.13-1.23Zm-9.3-.14,6.89,4,2-1.14-6.9-4Zm-1.85,4.18,4.11,2.37,2-1.14-4.11-2.37Zm-7.09-4,5.46,3,2-1.14-5.46-3Zm-15.09-31.75-6.25-3.61-2,1.14,6.26,3.61Zm41.81,29.08-8.4-4.75-2,1.14,8.41,4.74Zm-7.79.73-3.07-1.66-2,1.14,3.06,1.66Zm-13.21-7.51-3.15-1.82-2,1.14,3.14,1.81Zm-27.78-21.08-3.82-2.21-2,1.14,3.81,2.2Zm-11.28,9.2-6.15-3.55-2,1.14,6.15,3.55Zm2.81-3.61-4.42-2.56-2,1.14,4.43,2.55Zm2.11-4-2-1.15-2,1.14,2,1.15Z"/><path class="dk" d="M183.93,132.26l-6.9-4-2,1.13,6.9,4Zm2.17-1.72,7.2,4.16,2-1.13-7.21-4.16Zm10.83,1,3.14,1.81,2-1.13-3.15-1.82Zm-8.57,5.53,6.9,4,2-1.13-6.9-4Zm6.56-1.45,3.09,1.78,2-1.14-3.08-1.78Zm-40.17-23.2,3.95,2.29,2-1.14-4-2.28Zm10.62,9.1-2.44-1.4-2,1.13,2.44,1.41Zm2.2-4-5.28-3-2,1.13,5.27,3Zm11.67,6.73-10.05-5.8-2,1.14,10,5.8Zm-17.52-13.08,11,6.33,2-1.14-10.95-6.33Zm26.68,15.4,6.9,4,2-1.14-6.9-4Zm.35-2.07-8.43-4.86-2,1.14,8.42,4.86Zm-2.31,3.91-5.58-3.22-2,1.13,5.58,3.23ZM148.38,114l11,6.32,2-1.13-11-6.33Zm27,13.33L167,122.48l-2,1.13,8.42,4.87Zm-13.35-18.18-6.25-3.61-2,1.13,6.26,3.61Zm39.63,25.15,8.42,4.86,2-1.14-8.42-4.86ZM174.3,118.49l2.44,1.41,2-1.14-2.43-1.4Zm33.51,22.27-6.51-3.71-2,1.14,6.51,3.71ZM188.7,135l-3.14-1.81-2,1.13,3.15,1.82Zm-33.61-24.64-3.82-2.2-2,1.13,3.81,2.21Zm-6.36,1.57-2-1.15-2,1.13,2,1.15Z"/><path class="dk" d="M145.68,152.29l1.49-1.9-3.3.85-2.64-1.41.37,2.08-3.08,1,3.49.45.77,2,1.75-1.78,3.6.22Zm8.11,4.68,1.48-1.9-3.29.85-2.64-1.41.37,2.08-3.08,1,3.48.45.78,2,1.75-1.78,3.59.22Zm8.1,4.68,1.49-1.9-3.3.85-2.64-1.41.37,2.08-3.08,1,3.49.45.77,2,1.75-1.78,3.6.21Zm8.11,4.68,1.48-1.9-3.29.85-2.64-1.41.37,2.08-3.08,1,3.48.45.78,2,1.75-1.78,3.59.21Zm8.11,4.68,1.48-1.9-3.3.85-2.64-1.41.37,2.08-3.08,1,3.49.44.77,2,1.75-1.78,3.6.21Z"/><path class="dk" d="M222.75,144.77a13.27,13.27,0,0,0-12,0c-3.29,1.9-3.28,5,0,6.93a13.31,13.31,0,0,0,12,0C226.08,149.8,226.07,146.69,222.75,144.77Zm-1.93,3.16a.53.53,0,0,1,0,1,1.94,1.94,0,0,1-1.74,0c-.49-.28-.49-.73,0-1A1.93,1.93,0,0,1,220.82,147.93Zm-3.55-2.05c.49.28.49.74,0,1a1.93,1.93,0,0,1-1.75,0,.53.53,0,0,1,0-1A1.94,1.94,0,0,1,217.27,145.88Zm-4.63,4.71c-1.44-.84-1.86-2.12-1-3.2l1.12.29c-.61.81-.29,1.78.8,2.41a5.93,5.93,0,0,0,4.26.43l.53.64A7.89,7.89,0,0,1,212.64,150.59Z"/><path class="dk" d="M230.6,118.36l-5.32-2.9-2,1.14,5.31,2.9Zm2.16-1.71L240,120.8l2-1.13-7.2-4.16Zm2.26,6.54,6.9,4,2-1.13-6.9-4Zm6.57-1.45,3.08,1.78,2-1.13-3.08-1.78Zm-34.34-19.63,3.95,2.28,2-1.13-4-2.29Zm10.62,9.1-2.44-1.41-2,1.14,2.44,1.4Zm2.2-4-5.28-3-2,1.13,5.27,3Zm7.42,4.26-5.8-3.32-2,1.13,5.79,3.32Zm.4,10.54L222.27,119l-2,1.14,5.62,3.07ZM214.22,100.9l11,6.32,2-1.13-10.95-6.33ZM228,129.63l2-1.14-2.69-1.55-2,1.14Zm10.75-1.42L229.51,123l-2,1.13,9.27,5.24Zm-22.61-12.74-8.52-4.92-2,1.13,8.52,4.92Zm16.94-.9-4-2.14-2,1.14,4,2.14Zm-27.09-5-5.27-3-2,1.14,5.28,3Zm-5.14-5.94,11,6.33,2-1.13-11-6.33Zm8,12.84-10.95-6.33-2,1.14,11,6.32Zm14.77-2-4.17-2.38-2,1.13,4.17,2.38Zm2,11.47-5.31-2.9-2,1.14,5.32,2.9Zm-13.07-5.08,4.17,2.38,2-1.13-4.17-2.38Zm8-2.9-2.85-1.61-2,1.13,2.85,1.62Zm-12.09.56L211,120l2-1.13-2.43-1.41Zm39.34,11.93,2.13,1.23,2-1.14-2.13-1.23Zm-9.3-.14,6.89,4,2-1.14-6.9-4Zm-1.85,4.18,4.11,2.37,2-1.14-4.11-2.37Zm-7.09-4,5.46,3,2-1.14-5.46-3ZM214.56,98.82l-6.25-3.61-2,1.14L212.6,100Zm41.81,29.08-8.4-4.75-2,1.14,8.41,4.74Zm-7.79.73L245.51,127l-2,1.14,3.06,1.66Zm-13.21-7.51-3.15-1.82-2,1.14,3.14,1.81ZM207.59,100l-3.82-2.21-2,1.14,3.81,2.2Zm-11.28,9.2-6.15-3.55-2,1.14,6.15,3.55Zm2.81-3.61-4.42-2.56-2,1.14,4.43,2.55Zm2.11-4-2-1.15-2,1.14,2,1.15Z"/><path class="ds" d="M323.93,145.27l-56.61-32.48a9.14,9.14,0,0,1,0-15.81L288,84.81a9.12,9.12,0,0,1,9.16,0l56.6,32.48a9.14,9.14,0,0,1,0,15.81l-20.68,12.17A9.15,9.15,0,0,1,323.93,145.27Z"/><path class="dt" d="M323.88,144.15l-55.54-31.89a8.91,8.91,0,0,1,0-15.41l19.34-11.4a8.91,8.91,0,0,1,8.92,0l56,32.13a8.91,8.91,0,0,1,0,15.41l-19.79,11.16A8.91,8.91,0,0,1,323.88,144.15Z"/><path class="du" d="M323.84,143l-54.48-31.31a8.67,8.67,0,0,1,0-15l18-10.62a8.7,8.7,0,0,1,8.7,0l55.38,31.78a8.68,8.68,0,0,1,0,15L332.53,143A8.65,8.65,0,0,1,323.84,143Z"/><path class="dv" d="M323.79,141.92l-53.41-30.73a8.43,8.43,0,0,1,0-14.6L287,86.74a8.44,8.44,0,0,1,8.46,0l54.77,31.42a8.44,8.44,0,0,1,0,14.61l-18,9.15A8.44,8.44,0,0,1,323.79,141.92Z"/><path class="dw" d="M323.74,140.8,271.4,110.66a8.2,8.2,0,0,1,0-14.2l15.31-9.08a8.23,8.23,0,0,1,8.23,0l54.16,31.07a8.22,8.22,0,0,1,0,14.21L332,140.79A8.21,8.21,0,0,1,323.74,140.8Z"/><path class="dx" d="M323.7,139.68l-51.28-29.55a8,8,0,0,1,0-13.8l14-8.3a8,8,0,0,1,8,0l53.55,30.71a8,8,0,0,1,0,13.81l-16.24,7.13A8,8,0,0,1,323.7,139.68Z"/><path class="dy" d="M323.65,138.57l-50.21-29a7.74,7.74,0,0,1,0-13.4L286,88.67a7.78,7.78,0,0,1,7.77,0L346.75,119a7.74,7.74,0,0,1,0,13.4l-15.35,6.13A7.74,7.74,0,0,1,323.65,138.57Z"/><path class="dz" d="M323.6,137.45l-49.15-28.38a7.51,7.51,0,0,1,0-13l11.28-6.75a7.51,7.51,0,0,1,7.53,0l52.33,30a7.51,7.51,0,0,1,0,13l-14.47,5.12A7.51,7.51,0,0,1,323.6,137.45Z"/><path class="ea" d="M323.56,136.33l-48.09-27.79a7.29,7.29,0,0,1,0-12.6l9.95-6a7.3,7.3,0,0,1,7.3,0l51.71,29.66a7.28,7.28,0,0,1,0,12.6l-13.58,4.11A7.25,7.25,0,0,1,323.56,136.33Z"/><path class="eb" d="M323.51,135.22l-47-27.21a7.05,7.05,0,0,1,0-12.2l8.6-5.2a7,7,0,0,1,7.07,0l51.11,29.3a7.05,7.05,0,0,1,0,12.2l-12.69,3.11A7.06,7.06,0,0,1,323.51,135.22Z"/><path class="ec" d="M323.46,134.1l-45.95-26.62a6.82,6.82,0,0,1,0-11.8l7.26-4.43a6.82,6.82,0,0,1,6.84,0l50.49,29a6.82,6.82,0,0,1,0,11.8l-11.8,2.1A6.82,6.82,0,0,1,323.46,134.1Z"/><path class="ed" d="M323.42,133l-44.89-26a6.59,6.59,0,0,1,0-11.4l5.92-3.66a6.6,6.6,0,0,1,6.6,0l49.89,28.6a6.59,6.59,0,0,1,0,11.4L330,133A6.57,6.57,0,0,1,323.42,133Z"/><path class="ey" d="M262.81,100.6l54.83,31.82c6.47,3.74,17.79,3.27,25.27-1l7.07-4.08c7.48-4.32,8.3-10.85,1.82-14.59l-43.1-25c-6.48-3.74-17.79-3.27-25.27,1Z"/><path class="ej" d="M350,126.29l-7.07,4.08c-7.48,4.32-18.8,4.79-25.27,1l-54-31.32-.86.5,54.83,31.82c6.47,3.74,17.79,3.27,25.27-1l7.07-4.08c4.33-2.5,6.41-5.74,6.16-8.75C355.9,121.26,353.84,124.06,350,126.29Z"/><path class="dk" d="M308.67,107.15c-6.27,3.62-16.48,3.6-22.8,0s-6.35-9.54-.07-13.17,16.49-3.6,22.8,0S315,103.52,308.67,107.15Z"/><path class="ez" d="M303.3,96.81a15.85,15.85,0,0,0-14.38,0c-4,2.29,0,3.71,4,6s6.45,4.61,10.41,2.32S307.29,99.11,303.3,96.81Zm-1.51,6.6a3.8,3.8,0,0,1-3.43,0l-6.48-3.74a1,1,0,0,1,0-2,3.78,3.78,0,0,1,3.42,0l6.49,3.74A1,1,0,0,1,301.79,103.41Z"/><path class="fa" d="M294.79,98.56a1.69,1.69,0,0,0-1.52,0,.46.46,0,0,0,0,.88,1.69,1.69,0,0,0,1.52,0C295.21,99.2,295.21,98.81,294.79,98.56Z"/><path class="fb" d="M300.35,101.78a1.66,1.66,0,0,0-1.52,0c-.42.25-.42.64,0,.88a1.63,1.63,0,0,0,1.52,0C300.78,102.41,300.77,102,300.35,101.78Z"/><path class="dk" d="M322.53,116.19l-10-5.74-2,1.13,10.05,5.74Zm7.8-.94L317,107.64l-2,1.13,13.28,7.61Zm4.73,8.17-10.91-6.3-2,1.13,10.91,6.3Zm7.7-1-5.26-3-1.95,1.13,5.25,3ZM332,116.18l-2,1.13,3.94,2.27,2-1.13Z"/><path class="ds" d="M171,222.81l-56.61-32.48a9.14,9.14,0,0,1,0-15.81L135,162.35a9.17,9.17,0,0,1,9.16,0l56.6,32.48a9.14,9.14,0,0,1,0,15.81L180.11,222.8A9.1,9.1,0,0,1,171,222.81Z"/><path class="dt" d="M170.91,221.7l-55.54-31.9a8.91,8.91,0,0,1,0-15.41L134.69,163a8.89,8.89,0,0,1,8.92,0l56,32.12a8.91,8.91,0,0,1,0,15.41l-19.79,11.17A8.93,8.93,0,0,1,170.91,221.7Z"/><path class="du" d="M170.87,220.58l-54.48-31.31a8.68,8.68,0,0,1,0-15l18-10.62a8.68,8.68,0,0,1,8.69,0l55.38,31.78a8.67,8.67,0,0,1,0,15l-18.9,10.16A8.68,8.68,0,0,1,170.87,220.58Z"/><path class="dv" d="M170.82,219.46l-53.41-30.72a8.44,8.44,0,0,1,0-14.61L134,164.29a8.42,8.42,0,0,1,8.46,0l54.77,31.42a8.43,8.43,0,0,1,0,14.6l-18,9.15A8.42,8.42,0,0,1,170.82,219.46Z"/><path class="dw" d="M170.77,218.35l-52.34-30.14a8.21,8.21,0,0,1,0-14.21l15.31-9.07a8.21,8.21,0,0,1,8.23,0L196.11,196a8.21,8.21,0,0,1,0,14.2L179,218.34A8.23,8.23,0,0,1,170.77,218.35Z"/><path class="dx" d="M170.73,217.23l-51.28-29.55a8,8,0,0,1,0-13.81l14-8.29a8,8,0,0,1,8,0l53.55,30.72a8,8,0,0,1,0,13.8l-16.24,7.14A8,8,0,0,1,170.73,217.23Z"/><path class="dy" d="M170.68,216.11l-50.21-29a7.74,7.74,0,0,1,0-13.4l12.62-7.53a7.76,7.76,0,0,1,7.77,0l52.94,30.36a7.75,7.75,0,0,1,0,13.4l-15.36,6.13A7.72,7.72,0,0,1,170.68,216.11Z"/><path class="dz" d="M170.63,215l-49.15-28.38a7.51,7.51,0,0,1,0-13l11.28-6.76a7.53,7.53,0,0,1,7.53,0l52.33,30a7.52,7.52,0,0,1,0,13L178.16,215A7.53,7.53,0,0,1,170.63,215Z"/><path class="ea" d="M170.59,213.88,122.5,186.09a7.28,7.28,0,0,1,0-12.6l9.94-6a7.27,7.27,0,0,1,7.3,0l51.71,29.66a7.28,7.28,0,0,1,0,12.6l-13.57,4.11A7.27,7.27,0,0,1,170.59,213.88Z"/><path class="eb" d="M170.54,212.76l-47-27.21a7,7,0,0,1,0-12.19l8.6-5.21a7.06,7.06,0,0,1,7.07,0l51.11,29.31a7.05,7.05,0,0,1,0,12.2l-12.69,3.1A7,7,0,0,1,170.54,212.76Z"/><path class="ec" d="M170.49,211.65,124.54,185a6.81,6.81,0,0,1,0-11.79l7.26-4.43a6.82,6.82,0,0,1,6.84,0l50.49,29a6.82,6.82,0,0,1,0,11.8l-11.8,2.1A6.85,6.85,0,0,1,170.49,211.65Z"/><path class="ed" d="M170.45,210.53l-44.89-26a6.58,6.58,0,0,1,0-11.39l5.92-3.66a6.57,6.57,0,0,1,6.6,0L188,198a6.59,6.59,0,0,1,0,11.4l-10.91,1.09A6.57,6.57,0,0,1,170.45,210.53Z"/><path class="fc" d="M109.84,178.15,164.67,210c6.47,3.74,17.79,3.27,25.27-1.05l7.07-4.09c7.48-4.31,8.3-10.85,1.82-14.59l-43.1-25c-6.47-3.74-17.79-3.28-25.27,1Z"/><path class="ej" d="M197,203.83l-7.08,4.09c-7.48,4.32-18.8,4.79-25.27,1.05l-54-31.32-.86.5L164.67,210c6.47,3.74,17.79,3.27,25.27-1.05l7.08-4.09c4.32-2.49,6.4-5.73,6.15-8.74C202.93,198.8,200.87,201.61,197,203.83Z"/><ellipse class="dk" cx="144.27" cy="178.09" rx="9.31" ry="16.12" transform="translate(-34.6 321.39) rotate(-89.69)"/><path class="fd" d="M150.33,174.35a15.88,15.88,0,0,0-14.38,0c-4,2.28,0,3.7,4,6s6.45,4.61,10.41,2.33S154.32,176.65,150.33,174.35Zm-1.51,6.6a3.8,3.8,0,0,1-3.43,0l-6.48-3.75a1,1,0,0,1,0-2,3.78,3.78,0,0,1,3.42,0l6.49,3.75A1,1,0,0,1,148.82,181Z"/><path class="fe" d="M141.82,176.11a1.69,1.69,0,0,0-1.52,0c-.42.24-.42.63,0,.88a1.69,1.69,0,0,0,1.52,0A.46.46,0,0,0,141.82,176.11Z"/><path class="ff" d="M147.38,179.32a1.69,1.69,0,0,0-1.52,0c-.42.24-.42.63,0,.88a1.69,1.69,0,0,0,1.52,0C147.81,180,147.8,179.57,147.38,179.32Z"/><path class="dk" d="M173.81,191.15l-10.05-5.74-2,1.13,10.06,5.74Zm-1.28,4.48L159.24,188l-2,1.13,13.29,7.61Zm13.81,2.75-10.91-6.3-2,1.14,10.91,6.29Zm-12.2-1.82-1.95,1.13,3.94,2.27,2-1.13Z"/></g></svg>