<svg xmlns="http://www.w3.org/2000/svg" xmlns:xlink="http://www.w3.org/1999/xlink" width="500" zoomAndPan="magnify" viewBox="0 0 375 374.999991" height="500" preserveAspectRatio="xMidYMid meet" version="1.0"><defs><g/><clipPath id="3327c4cede"><path d="M 109.144531 214.367188 L 258.382812 214.367188 L 258.382812 240.617188 L 109.144531 240.617188 Z M 109.144531 214.367188 " clip-rule="nonzero"/></clipPath><clipPath id="27f287cc98"><path d="M 122.179688 214.367188 L 245.238281 214.367188 C 252.4375 214.367188 258.273438 220.203125 258.273438 227.40625 C 258.273438 234.605469 252.4375 240.441406 245.238281 240.441406 L 122.179688 240.441406 C 114.980469 240.441406 109.144531 234.605469 109.144531 227.40625 C 109.144531 220.203125 114.980469 214.367188 122.179688 214.367188 Z M 122.179688 214.367188 " clip-rule="nonzero"/></clipPath><clipPath id="094cff81c5"><path d="M 233.964844 219.03125 L 250.722656 219.03125 L 250.722656 235.785156 L 233.964844 235.785156 Z M 233.964844 219.03125 " clip-rule="nonzero"/></clipPath><clipPath id="30a6fd7026"><path d="M 242.34375 219.03125 C 237.714844 219.03125 233.964844 222.78125 233.964844 227.40625 C 233.964844 232.035156 237.714844 235.785156 242.34375 235.785156 C 246.96875 235.785156 250.722656 232.035156 250.722656 227.40625 C 250.722656 222.78125 246.96875 219.03125 242.34375 219.03125 Z M 242.34375 219.03125 " clip-rule="nonzero"/></clipPath><clipPath id="22dfcf666a"><path d="M 233.964844 219.03125 L 250.464844 219.03125 L 250.464844 235.53125 L 233.964844 235.53125 Z M 233.964844 219.03125 " clip-rule="nonzero"/></clipPath><clipPath id="712a702ea3"><path d="M 242.335938 219.03125 C 237.714844 219.03125 233.964844 222.777344 233.964844 227.402344 C 233.964844 232.027344 237.714844 235.777344 242.335938 235.777344 C 246.960938 235.777344 250.710938 232.027344 250.710938 227.402344 C 250.710938 222.777344 246.960938 219.03125 242.335938 219.03125 Z M 242.335938 219.03125 " clip-rule="nonzero"/></clipPath><clipPath id="6c76469876"><path d="M 135.039062 123.085938 L 171.789062 123.085938 L 171.789062 153.835938 L 135.039062 153.835938 Z M 135.039062 123.085938 " clip-rule="nonzero"/></clipPath><clipPath id="1775223ec9"><path d="M 134.472656 153.511719 L 171 153.511719 L 171 183.464844 L 134.472656 183.464844 Z M 134.472656 153.511719 " clip-rule="nonzero"/></clipPath><clipPath id="510b48119f"><path d="M 209.339844 152.472656 L 246.089844 152.472656 L 246.089844 183.222656 L 209.339844 183.222656 Z M 209.339844 152.472656 " clip-rule="nonzero"/></clipPath><clipPath id="cf848153c1"><path d="M 210 123 L 246.65625 123 L 246.65625 152.792969 L 210 152.792969 Z M 210 123 " clip-rule="nonzero"/></clipPath></defs><rect x="-37.5" width="450" fill="#ffffff" y="-37.499999" height="449.999989" fill-opacity="1"/><rect x="-37.5" width="450" fill="#000000" y="-37.499999" height="449.999989" fill-opacity="1"/><g clip-path="url(#3327c4cede)"><g clip-path="url(#27f287cc98)"><path stroke-linecap="butt" transform="matrix(0.75, 0, 0, 0.75, 109.143146, 214.367988)" fill="none" stroke-linejoin="miter" d="M 17.382057 -0.00106776 L 181.460204 -0.00106776 C 191.059163 -0.00106776 198.840414 7.780183 198.840414 17.384351 C 198.840414 26.983311 191.059163 34.764562 181.460204 34.764562 L 17.382057 34.764562 C 7.783098 34.764562 0.00184682 26.983311 0.00184682 17.384351 C 0.00184682 7.780183 7.783098 -0.00106776 17.382057 -0.00106776 Z M 17.382057 -0.00106776 " stroke="#e6ff2a" stroke-width="4" stroke-opacity="1" stroke-miterlimit="4"/></g></g><g clip-path="url(#094cff81c5)"><g clip-path="url(#30a6fd7026)"><path fill="#e6ff2a" d="M 233.964844 219.03125 L 250.722656 219.03125 L 250.722656 235.785156 L 233.964844 235.785156 Z M 233.964844 219.03125 " fill-opacity="1" fill-rule="nonzero"/></g></g><g clip-path="url(#22dfcf666a)"><g clip-path="url(#712a702ea3)"><path stroke-linecap="butt" transform="matrix(0.75, 0, 0, 0.75, 233.964539, 219.029311)" fill="none" stroke-linejoin="miter" d="M 11.161866 0.00258504 C 5.000407 0.00258504 0.000406685 4.997377 0.000406685 11.164044 C 0.000406685 17.330711 5.000407 22.330712 11.161866 22.330712 C 17.328533 22.330712 22.328533 17.330711 22.328533 11.164044 C 22.328533 4.997377 17.328533 0.00258504 11.161866 0.00258504 Z M 11.161866 0.00258504 " stroke="#e6ff2a" stroke-width="4" stroke-opacity="1" stroke-miterlimit="4"/></g></g><g fill="#ffffff" fill-opacity="1"><g transform="translate(118.353028, 229.24538)"><g><path d="M 5.140625 -5.28125 L 1.53125 -5.28125 L 1.53125 -3.390625 L 4.875 -3.390625 L 4.875 -2.65625 L 1.53125 -2.65625 L 1.53125 0 L 0.59375 0 L 0.59375 -6.03125 L 5.140625 -6.03125 Z M 5.140625 -5.28125 "/></g></g></g><g fill="#ffffff" fill-opacity="1"><g transform="translate(123.969416, 229.24538)"><g><path d="M 0.59375 -2.203125 L 0.59375 -6.03125 L 1.53125 -6.03125 L 1.53125 -2.328125 C 1.53125 -1.859375 1.585938 -1.5 1.703125 -1.25 C 1.828125 -1.007812 2.003906 -0.84375 2.234375 -0.75 C 2.472656 -0.664062 2.765625 -0.625 3.109375 -0.625 C 3.441406 -0.625 3.726562 -0.664062 3.96875 -0.75 C 4.207031 -0.84375 4.382812 -1.007812 4.5 -1.25 C 4.625 -1.5 4.6875 -1.859375 4.6875 -2.328125 L 4.6875 -6.03125 L 5.625 -6.03125 L 5.625 -2.203125 C 5.625 -1.453125 5.414062 -0.875 5 -0.46875 C 4.582031 -0.0625 3.953125 0.140625 3.109375 0.140625 C 2.265625 0.140625 1.632812 -0.0625 1.21875 -0.46875 C 0.800781 -0.875 0.59375 -1.453125 0.59375 -2.203125 Z M 0.59375 -2.203125 "/></g></g></g><g fill="#ffffff" fill-opacity="1"><g transform="translate(130.175566, 229.24538)"><g><path d="M 1.53125 -0.75 L 4.578125 -0.75 L 4.578125 0 L 0.59375 0 L 0.59375 -6.03125 L 1.53125 -6.03125 Z M 1.53125 -0.75 "/></g></g></g><g fill="#ffffff" fill-opacity="1"><g transform="translate(134.830182, 229.24538)"><g><path d="M 1.53125 -0.75 L 4.578125 -0.75 L 4.578125 0 L 0.59375 0 L 0.59375 -6.03125 L 1.53125 -6.03125 Z M 1.53125 -0.75 "/></g></g></g><g fill="#ffffff" fill-opacity="1"><g transform="translate(139.484798, 229.24538)"><g/></g></g><g fill="#ffffff" fill-opacity="1"><g transform="translate(141.716838, 229.24538)"><g><path d="M 0.4375 -2.03125 L 1.34375 -2.03125 C 1.351562 -1.5625 1.5 -1.203125 1.78125 -0.953125 C 2.0625 -0.703125 2.5 -0.578125 3.09375 -0.578125 C 3.488281 -0.578125 3.796875 -0.617188 4.015625 -0.703125 C 4.234375 -0.796875 4.382812 -0.921875 4.46875 -1.078125 C 4.550781 -1.234375 4.59375 -1.410156 4.59375 -1.609375 C 4.59375 -2.160156 4.253906 -2.488281 3.578125 -2.59375 L 2.171875 -2.78125 C 1.140625 -2.925781 0.625 -3.46875 0.625 -4.40625 C 0.625 -4.75 0.707031 -5.054688 0.875 -5.328125 C 1.039062 -5.597656 1.296875 -5.8125 1.640625 -5.96875 C 1.992188 -6.125 2.441406 -6.203125 2.984375 -6.203125 C 3.546875 -6.203125 4.003906 -6.113281 4.359375 -5.9375 C 4.722656 -5.769531 4.992188 -5.539062 5.171875 -5.25 C 5.347656 -4.957031 5.445312 -4.628906 5.46875 -4.265625 L 4.5625 -4.265625 C 4.519531 -4.628906 4.367188 -4.921875 4.109375 -5.140625 C 3.859375 -5.359375 3.476562 -5.46875 2.96875 -5.46875 C 2.476562 -5.46875 2.117188 -5.367188 1.890625 -5.171875 C 1.671875 -4.984375 1.5625 -4.738281 1.5625 -4.4375 C 1.5625 -4.21875 1.625 -4.03125 1.75 -3.875 C 1.882812 -3.726562 2.09375 -3.628906 2.375 -3.578125 L 3.84375 -3.375 C 4.375 -3.289062 4.785156 -3.117188 5.078125 -2.859375 C 5.378906 -2.609375 5.53125 -2.234375 5.53125 -1.734375 C 5.53125 -1.140625 5.335938 -0.675781 4.953125 -0.34375 C 4.578125 -0.0195312 3.957031 0.140625 3.09375 0.140625 C 2.425781 0.140625 1.898438 0.0390625 1.515625 -0.15625 C 1.128906 -0.363281 0.851562 -0.632812 0.6875 -0.96875 C 0.519531 -1.300781 0.4375 -1.65625 0.4375 -2.03125 Z M 0.4375 -2.03125 "/></g></g></g><g fill="#ffffff" fill-opacity="1"><g transform="translate(147.705229, 229.24538)"><g><path d="M 5.4375 -6.03125 L 5.4375 -5.28125 L 3.34375 -5.28125 L 3.34375 0 L 2.421875 0 L 2.421875 -5.28125 L 0.3125 -5.28125 L 0.3125 -6.03125 Z M 5.4375 -6.03125 "/></g></g></g><g fill="#ffffff" fill-opacity="1"><g transform="translate(153.457715, 229.24538)"><g><path d="M 5.25 0 L 4.71875 -1.4375 L 1.796875 -1.4375 L 1.265625 0 L 0.3125 0 L 2.5625 -6.03125 L 3.96875 -6.03125 L 6.203125 0 Z M 2.078125 -2.1875 L 4.4375 -2.1875 L 3.265625 -5.375 Z M 2.078125 -2.1875 "/></g></g></g><g fill="#ffffff" fill-opacity="1"><g transform="translate(159.954215, 229.24538)"><g><path d="M 3.546875 0.15625 C 2.835938 0.15625 2.257812 0.015625 1.8125 -0.265625 C 1.363281 -0.546875 1.03125 -0.925781 0.8125 -1.40625 C 0.601562 -1.882812 0.5 -2.421875 0.5 -3.015625 C 0.5 -3.609375 0.609375 -4.144531 0.828125 -4.625 C 1.046875 -5.101562 1.378906 -5.484375 1.828125 -5.765625 C 2.285156 -6.054688 2.867188 -6.203125 3.578125 -6.203125 C 4.210938 -6.203125 4.734375 -6.101562 5.140625 -5.90625 C 5.554688 -5.71875 5.867188 -5.441406 6.078125 -5.078125 C 6.296875 -4.722656 6.425781 -4.296875 6.46875 -3.796875 L 5.515625 -3.796875 C 5.453125 -4.316406 5.265625 -4.71875 4.953125 -5 C 4.648438 -5.28125 4.1875 -5.421875 3.5625 -5.421875 C 2.84375 -5.421875 2.316406 -5.21875 1.984375 -4.8125 C 1.648438 -4.40625 1.484375 -3.804688 1.484375 -3.015625 C 1.484375 -2.234375 1.644531 -1.640625 1.96875 -1.234375 C 2.289062 -0.828125 2.8125 -0.625 3.53125 -0.625 C 4.1875 -0.625 4.671875 -0.773438 4.984375 -1.078125 C 5.304688 -1.390625 5.488281 -1.8125 5.53125 -2.34375 L 6.484375 -2.34375 C 6.460938 -1.84375 6.34375 -1.40625 6.125 -1.03125 C 5.914062 -0.65625 5.597656 -0.363281 5.171875 -0.15625 C 4.753906 0.0507812 4.210938 0.15625 3.546875 0.15625 Z M 3.546875 0.15625 "/></g></g></g><g fill="#ffffff" fill-opacity="1"><g transform="translate(166.8953, 229.24538)"><g><path d="M 3.265625 -3.5 L 5.796875 -0.046875 L 5.796875 0 L 4.65625 0 L 2.625 -2.828125 L 1.53125 -1.65625 L 1.53125 0 L 0.59375 0 L 0.59375 -6.03125 L 1.53125 -6.03125 L 1.53125 -2.84375 L 4.4375 -6.03125 L 5.65625 -6.03125 Z M 3.265625 -3.5 "/></g></g></g><g fill="#ffffff" fill-opacity="1"><g transform="translate(173.092381, 229.24538)"><g/></g></g><g fill="#ffffff" fill-opacity="1"><g transform="translate(175.324421, 229.24538)"><g><path d="M 3.203125 -6.03125 C 3.703125 -6.03125 4.128906 -5.953125 4.484375 -5.796875 C 4.835938 -5.640625 5.128906 -5.421875 5.359375 -5.140625 C 5.585938 -4.867188 5.757812 -4.550781 5.875 -4.1875 C 5.988281 -3.820312 6.046875 -3.4375 6.046875 -3.03125 C 6.046875 -2.625 5.988281 -2.234375 5.875 -1.859375 C 5.757812 -1.492188 5.585938 -1.171875 5.359375 -0.890625 C 5.128906 -0.617188 4.835938 -0.398438 4.484375 -0.234375 C 4.128906 -0.078125 3.703125 0 3.203125 0 L 0.59375 0 L 0.59375 -6.03125 Z M 3.015625 -0.75 C 3.773438 -0.75 4.304688 -0.941406 4.609375 -1.328125 C 4.910156 -1.710938 5.0625 -2.28125 5.0625 -3.03125 C 5.0625 -3.789062 4.910156 -4.351562 4.609375 -4.71875 C 4.304688 -5.09375 3.773438 -5.28125 3.015625 -5.28125 L 1.53125 -5.28125 L 1.53125 -0.75 Z M 3.015625 -0.75 "/></g></g></g><g fill="#ffffff" fill-opacity="1"><g transform="translate(181.775552, 229.24538)"><g><path d="M 1.53125 -0.75 L 5.171875 -0.75 L 5.171875 0 L 0.59375 0 L 0.59375 -6.03125 L 5.140625 -6.03125 L 5.140625 -5.28125 L 1.53125 -5.28125 L 1.53125 -3.453125 L 4.875 -3.453125 L 4.875 -2.71875 L 1.53125 -2.71875 Z M 1.53125 -0.75 "/></g></g></g><g fill="#ffffff" fill-opacity="1"><g transform="translate(187.491747, 229.24538)"><g><path d="M 5.03125 -6.03125 L 5.984375 -6.03125 L 3.828125 0 L 2.46875 0 L 0.3125 -6.03125 L 1.296875 -6.03125 L 2.828125 -1.75 C 2.890625 -1.582031 2.945312 -1.410156 3 -1.234375 C 3.0625 -1.054688 3.113281 -0.878906 3.15625 -0.703125 C 3.207031 -0.878906 3.257812 -1.054688 3.3125 -1.234375 C 3.375 -1.410156 3.4375 -1.582031 3.5 -1.75 Z M 5.03125 -6.03125 "/></g></g></g><g fill="#ffffff" fill-opacity="1"><g transform="translate(193.788633, 229.24538)"><g><path d="M 1.53125 -0.75 L 5.171875 -0.75 L 5.171875 0 L 0.59375 0 L 0.59375 -6.03125 L 5.140625 -6.03125 L 5.140625 -5.28125 L 1.53125 -5.28125 L 1.53125 -3.453125 L 4.875 -3.453125 L 4.875 -2.71875 L 1.53125 -2.71875 Z M 1.53125 -0.75 "/></g></g></g><g fill="#ffffff" fill-opacity="1"><g transform="translate(199.504828, 229.24538)"><g><path d="M 1.53125 -0.75 L 4.578125 -0.75 L 4.578125 0 L 0.59375 0 L 0.59375 -6.03125 L 1.53125 -6.03125 Z M 1.53125 -0.75 "/></g></g></g><g fill="#ffffff" fill-opacity="1"><g transform="translate(204.159444, 229.24538)"><g><path d="M 3.5625 0.15625 C 2.84375 0.15625 2.253906 0.015625 1.796875 -0.265625 C 1.347656 -0.546875 1.019531 -0.925781 0.8125 -1.40625 C 0.601562 -1.894531 0.5 -2.429688 0.5 -3.015625 C 0.5 -3.609375 0.601562 -4.144531 0.8125 -4.625 C 1.019531 -5.101562 1.347656 -5.484375 1.796875 -5.765625 C 2.253906 -6.054688 2.84375 -6.203125 3.5625 -6.203125 C 4.09375 -6.203125 4.550781 -6.117188 4.9375 -5.953125 C 5.332031 -5.785156 5.648438 -5.554688 5.890625 -5.265625 C 6.140625 -4.972656 6.320312 -4.632812 6.4375 -4.25 C 6.5625 -3.863281 6.625 -3.453125 6.625 -3.015625 C 6.625 -2.429688 6.515625 -1.898438 6.296875 -1.421875 C 6.085938 -0.941406 5.757812 -0.554688 5.3125 -0.265625 C 4.863281 0.015625 4.28125 0.15625 3.5625 0.15625 Z M 1.484375 -3.015625 C 1.484375 -2.222656 1.644531 -1.625 1.96875 -1.21875 C 2.289062 -0.820312 2.820312 -0.625 3.5625 -0.625 C 4.300781 -0.625 4.832031 -0.820312 5.15625 -1.21875 C 5.476562 -1.625 5.640625 -2.222656 5.640625 -3.015625 C 5.640625 -3.816406 5.476562 -4.414062 5.15625 -4.8125 C 4.832031 -5.21875 4.300781 -5.421875 3.5625 -5.421875 C 2.820312 -5.421875 2.289062 -5.21875 1.96875 -4.8125 C 1.644531 -4.414062 1.484375 -3.816406 1.484375 -3.015625 Z M 1.484375 -3.015625 "/></g></g></g><g fill="#ffffff" fill-opacity="1"><g transform="translate(211.272928, 229.24538)"><g><path d="M 3.4375 -6.03125 C 3.882812 -6.03125 4.242188 -5.945312 4.515625 -5.78125 C 4.796875 -5.613281 5 -5.390625 5.125 -5.109375 C 5.25 -4.828125 5.3125 -4.53125 5.3125 -4.21875 C 5.3125 -3.882812 5.25 -3.578125 5.125 -3.296875 C 5 -3.023438 4.796875 -2.800781 4.515625 -2.625 C 4.242188 -2.457031 3.882812 -2.375 3.4375 -2.375 L 1.53125 -2.375 L 1.53125 0 L 0.59375 0 L 0.59375 -6.03125 Z M 3.21875 -3.125 C 3.644531 -3.125 3.9375 -3.226562 4.09375 -3.4375 C 4.257812 -3.644531 4.34375 -3.90625 4.34375 -4.21875 C 4.34375 -4.519531 4.257812 -4.769531 4.09375 -4.96875 C 3.9375 -5.175781 3.644531 -5.28125 3.21875 -5.28125 L 1.53125 -5.28125 L 1.53125 -3.125 Z M 3.21875 -3.125 "/></g></g></g><g fill="#ffffff" fill-opacity="1"><g transform="translate(216.952823, 229.24538)"><g><path d="M 1.53125 -0.75 L 5.171875 -0.75 L 5.171875 0 L 0.59375 0 L 0.59375 -6.03125 L 5.140625 -6.03125 L 5.140625 -5.28125 L 1.53125 -5.28125 L 1.53125 -3.453125 L 4.875 -3.453125 L 4.875 -2.71875 L 1.53125 -2.71875 Z M 1.53125 -0.75 "/></g></g></g><g fill="#ffffff" fill-opacity="1"><g transform="translate(222.669017, 229.24538)"><g><path d="M 5.21875 -1.5625 L 5.21875 -0.984375 C 5.21875 -0.742188 5.234375 -0.539062 5.265625 -0.375 C 5.296875 -0.207031 5.320312 -0.0820312 5.34375 0 L 4.4375 0 C 4.40625 -0.0820312 4.375 -0.203125 4.34375 -0.359375 C 4.320312 -0.515625 4.3125 -0.710938 4.3125 -0.953125 L 4.3125 -1.421875 C 4.3125 -1.859375 4.195312 -2.164062 3.96875 -2.34375 C 3.75 -2.519531 3.441406 -2.609375 3.046875 -2.609375 L 1.53125 -2.609375 L 1.53125 0 L 0.59375 0 L 0.59375 -6.03125 L 3.484375 -6.03125 C 4.109375 -6.03125 4.582031 -5.882812 4.90625 -5.59375 C 5.238281 -5.300781 5.40625 -4.90625 5.40625 -4.40625 C 5.40625 -3.988281 5.289062 -3.648438 5.0625 -3.390625 C 4.84375 -3.128906 4.566406 -2.957031 4.234375 -2.875 C 4.429688 -2.800781 4.601562 -2.71875 4.75 -2.625 C 4.894531 -2.53125 5.007812 -2.398438 5.09375 -2.234375 C 5.175781 -2.066406 5.21875 -1.84375 5.21875 -1.5625 Z M 3.40625 -3.296875 C 3.800781 -3.296875 4.070312 -3.390625 4.21875 -3.578125 C 4.363281 -3.765625 4.4375 -4.019531 4.4375 -4.34375 C 4.4375 -4.632812 4.351562 -4.863281 4.1875 -5.03125 C 4.019531 -5.195312 3.75 -5.28125 3.375 -5.28125 L 1.53125 -5.28125 L 1.53125 -3.296875 Z M 3.40625 -3.296875 "/></g></g></g><g fill="#ffffff" fill-opacity="1"><g transform="translate(107.505245, 204.159416)"><g><path d="M 8.5 -9.640625 L 6.359375 -9.640625 L 6.359375 -2.546875 L 8.5 -2.546875 L 8.5 0 L 0.984375 0 L 0.984375 -2.546875 L 3.140625 -2.546875 L 3.140625 -9.640625 L 0.984375 -9.640625 L 0.984375 -12.1875 L 8.5 -12.1875 Z M 8.5 -9.640625 "/></g></g></g><g fill="#ffffff" fill-opacity="1"><g transform="translate(116.169678, 204.159416)"><g><path d="M 4.25 -2.546875 L 9.734375 -2.546875 L 9.734375 0 L 0.984375 0 L 0.984375 -12.1875 L 4.25 -12.1875 Z M 4.25 -2.546875 "/></g></g></g><g fill="#ffffff" fill-opacity="1"><g transform="translate(125.511909, 204.159416)"><g><path d="M 9.234375 -6.28125 C 9.742188 -6.195312 10.203125 -6.046875 10.609375 -5.828125 C 11.023438 -5.617188 11.351562 -5.316406 11.59375 -4.921875 C 11.84375 -4.523438 11.96875 -3.988281 11.96875 -3.3125 C 11.96875 -2.28125 11.628906 -1.46875 10.953125 -0.875 C 10.273438 -0.289062 9.28125 0 7.96875 0 L 0.984375 0 L 0.984375 -12.1875 L 8.09375 -12.1875 C 8.96875 -12.1875 9.675781 -12.050781 10.21875 -11.78125 C 10.757812 -11.507812 11.15625 -11.144531 11.40625 -10.6875 C 11.65625 -10.226562 11.78125 -9.726562 11.78125 -9.1875 C 11.78125 -8.289062 11.539062 -7.625 11.0625 -7.1875 C 10.582031 -6.75 9.972656 -6.445312 9.234375 -6.28125 Z M 7.078125 -9.765625 L 4.21875 -9.765625 L 4.21875 -7.265625 L 7.0625 -7.265625 C 7.582031 -7.265625 7.9375 -7.382812 8.125 -7.625 C 8.3125 -7.863281 8.40625 -8.160156 8.40625 -8.515625 C 8.40625 -8.910156 8.300781 -9.21875 8.09375 -9.4375 C 7.894531 -9.65625 7.554688 -9.765625 7.078125 -9.765625 Z M 7.140625 -2.421875 C 7.691406 -2.421875 8.070312 -2.546875 8.28125 -2.796875 C 8.488281 -3.054688 8.59375 -3.382812 8.59375 -3.78125 C 8.59375 -4.164062 8.476562 -4.488281 8.25 -4.75 C 8.03125 -5.019531 7.632812 -5.15625 7.0625 -5.15625 L 4.21875 -5.15625 L 4.21875 -2.421875 Z M 7.140625 -2.421875 "/></g></g></g><g fill="#ffffff" fill-opacity="1"><g transform="translate(137.290551, 204.159416)"><g><path d="M 4.21875 -2.546875 L 10.796875 -2.546875 L 10.796875 0 L 0.984375 0 L 0.984375 -12.1875 L 10.734375 -12.1875 L 10.734375 -9.640625 L 4.21875 -9.640625 L 4.21875 -7.390625 L 10.1875 -7.390625 L 10.1875 -5.015625 L 4.21875 -5.015625 Z M 4.21875 -2.546875 "/></g></g></g><g fill="#ffffff" fill-opacity="1"><g transform="translate(148.079967, 204.159416)"><g><path d="M 11.515625 -2.875 L 11.515625 -2.203125 C 11.515625 -1.710938 11.535156 -1.3125 11.578125 -1 C 11.628906 -0.6875 11.6875 -0.351562 11.75 0 L 8.484375 0 C 8.335938 -0.5 8.265625 -1.234375 8.265625 -2.203125 L 8.265625 -2.6875 C 8.265625 -3.28125 8.097656 -3.71875 7.765625 -4 C 7.429688 -4.28125 7 -4.421875 6.46875 -4.421875 L 4.25 -4.421875 L 4.25 0 L 0.984375 0 L 0.984375 -12.1875 L 7.734375 -12.1875 C 9.117188 -12.1875 10.144531 -11.867188 10.8125 -11.234375 C 11.488281 -10.597656 11.828125 -9.789062 11.828125 -8.8125 C 11.828125 -7.945312 11.570312 -7.234375 11.0625 -6.671875 C 10.5625 -6.109375 9.9375 -5.75 9.1875 -5.59375 C 9.613281 -5.507812 10 -5.367188 10.34375 -5.171875 C 10.695312 -4.972656 10.976562 -4.691406 11.1875 -4.328125 C 11.40625 -3.960938 11.515625 -3.476562 11.515625 -2.875 Z M 6.875 -6.71875 C 7.4375 -6.71875 7.835938 -6.847656 8.078125 -7.109375 C 8.328125 -7.367188 8.453125 -7.757812 8.453125 -8.28125 C 8.453125 -8.757812 8.328125 -9.117188 8.078125 -9.359375 C 7.828125 -9.597656 7.429688 -9.71875 6.890625 -9.71875 L 4.25 -9.71875 L 4.25 -6.71875 Z M 6.875 -6.71875 "/></g></g></g><g fill="#ffffff" fill-opacity="1"><g transform="translate(159.78533, 204.159416)"><g><path d="M 11.640625 -12.1875 L 11.640625 -9.640625 L 7.734375 -9.640625 L 7.734375 0 L 4.484375 0 L 4.484375 -9.640625 L 0.5625 -9.640625 L 0.5625 -12.1875 Z M 11.640625 -12.1875 "/></g></g></g><g fill="#ffffff" fill-opacity="1"><g transform="translate(171.16095, 204.159416)"><g><path d="M 7.28125 0.296875 C 6.082031 0.296875 5.0625 0.117188 4.21875 -0.234375 C 3.382812 -0.585938 2.707031 -1.066406 2.1875 -1.671875 C 1.675781 -2.273438 1.304688 -2.957031 1.078125 -3.71875 C 0.847656 -4.476562 0.734375 -5.265625 0.734375 -6.078125 C 0.734375 -6.890625 0.847656 -7.671875 1.078125 -8.421875 C 1.304688 -9.179688 1.675781 -9.867188 2.1875 -10.484375 C 2.707031 -11.109375 3.382812 -11.597656 4.21875 -11.953125 C 5.0625 -12.316406 6.082031 -12.5 7.28125 -12.5 C 8.488281 -12.5 9.507812 -12.316406 10.34375 -11.953125 C 11.1875 -11.585938 11.863281 -11.097656 12.375 -10.484375 C 12.882812 -9.867188 13.253906 -9.179688 13.484375 -8.421875 C 13.722656 -7.660156 13.84375 -6.878906 13.84375 -6.078125 C 13.84375 -5.273438 13.722656 -4.488281 13.484375 -3.71875 C 13.253906 -2.957031 12.882812 -2.273438 12.375 -1.671875 C 11.863281 -1.066406 11.1875 -0.585938 10.34375 -0.234375 C 9.507812 0.117188 8.488281 0.296875 7.28125 0.296875 Z M 4.109375 -6.078125 C 4.109375 -5.285156 4.195312 -4.609375 4.375 -4.046875 C 4.550781 -3.484375 4.867188 -3.054688 5.328125 -2.765625 C 5.796875 -2.472656 6.445312 -2.328125 7.28125 -2.328125 C 8.132812 -2.328125 8.789062 -2.472656 9.25 -2.765625 C 9.707031 -3.054688 10.023438 -3.484375 10.203125 -4.046875 C 10.378906 -4.609375 10.46875 -5.285156 10.46875 -6.078125 C 10.46875 -6.890625 10.378906 -7.578125 10.203125 -8.140625 C 10.023438 -8.703125 9.707031 -9.128906 9.25 -9.421875 C 8.789062 -9.710938 8.132812 -9.859375 7.28125 -9.859375 C 6.445312 -9.859375 5.796875 -9.710938 5.328125 -9.421875 C 4.867188 -9.128906 4.550781 -8.703125 4.375 -8.140625 C 4.195312 -7.578125 4.109375 -6.890625 4.109375 -6.078125 Z M 4.109375 -6.078125 "/></g></g></g><g fill="#ffffff" fill-opacity="1"><g transform="translate(184.899709, 204.159416)"><g/></g></g><g fill="#ffffff" fill-opacity="1"><g transform="translate(188.782912, 204.159416)"><g><path d="M 7.203125 0.296875 C 6.023438 0.296875 5.023438 0.125 4.203125 -0.21875 C 3.378906 -0.570312 2.707031 -1.046875 2.1875 -1.640625 C 1.675781 -2.234375 1.304688 -2.910156 1.078125 -3.671875 C 0.847656 -4.441406 0.734375 -5.242188 0.734375 -6.078125 C 0.734375 -6.898438 0.851562 -7.691406 1.09375 -8.453125 C 1.332031 -9.222656 1.707031 -9.910156 2.21875 -10.515625 C 2.726562 -11.128906 3.394531 -11.613281 4.21875 -11.96875 C 5.050781 -12.320312 6.050781 -12.5 7.21875 -12.5 C 8.675781 -12.5 9.851562 -12.304688 10.75 -11.921875 C 11.644531 -11.535156 12.316406 -10.953125 12.765625 -10.171875 C 13.210938 -9.398438 13.476562 -8.429688 13.5625 -7.265625 L 10.25 -7.265625 C 10.175781 -8.085938 9.925781 -8.722656 9.5 -9.171875 C 9.082031 -9.628906 8.34375 -9.859375 7.28125 -9.859375 C 6.164062 -9.859375 5.359375 -9.539062 4.859375 -8.90625 C 4.359375 -8.28125 4.109375 -7.335938 4.109375 -6.078125 C 4.109375 -4.847656 4.34375 -3.914062 4.8125 -3.28125 C 5.289062 -2.644531 6.082031 -2.328125 7.1875 -2.328125 C 8.269531 -2.328125 9.039062 -2.550781 9.5 -3 C 9.957031 -3.457031 10.21875 -4.128906 10.28125 -5.015625 L 13.640625 -5.015625 C 13.535156 -3.773438 13.257812 -2.765625 12.8125 -1.984375 C 12.375 -1.203125 11.703125 -0.625 10.796875 -0.25 C 9.890625 0.113281 8.691406 0.296875 7.203125 0.296875 Z M 7.203125 0.296875 "/></g></g></g><g fill="#ffffff" fill-opacity="1"><g transform="translate(202.228573, 204.159416)"><g><path d="M 10.5625 0 L 9.765625 -2.296875 L 4.53125 -2.296875 L 3.734375 0 L 0.515625 0 L 4.671875 -12.1875 L 9.640625 -12.1875 L 13.796875 0 Z M 5.359375 -4.734375 L 8.9375 -4.734375 L 7.140625 -9.953125 Z M 5.359375 -4.734375 "/></g></g></g><g fill="#ffffff" fill-opacity="1"><g transform="translate(215.692549, 204.159416)"><g><path d="M 10.265625 -12.1875 L 13.34375 -12.1875 L 13.34375 0 L 8.046875 0 L 4.65625 -7.953125 C 4.53125 -8.234375 4.421875 -8.515625 4.328125 -8.796875 C 4.242188 -9.085938 4.15625 -9.378906 4.0625 -9.671875 L 4.0625 0 L 0.984375 0 L 0.984375 -12.1875 L 6.28125 -12.1875 L 9.71875 -4.0625 C 9.8125 -3.832031 9.90625 -3.582031 10 -3.3125 C 10.09375 -3.050781 10.179688 -2.78125 10.265625 -2.5 Z M 10.265625 -12.1875 "/></g></g></g><g fill="#ffffff" fill-opacity="1"><g transform="translate(229.19316, 204.159416)"><g><path d="M 0.921875 -4.640625 L 0.921875 -12.1875 L 4.15625 -12.1875 L 4.15625 -5.0625 C 4.15625 -4 4.351562 -3.28125 4.75 -2.90625 C 5.15625 -2.53125 5.765625 -2.34375 6.578125 -2.34375 C 7.410156 -2.34375 8.023438 -2.53125 8.421875 -2.90625 C 8.828125 -3.28125 9.03125 -4 9.03125 -5.0625 L 9.03125 -12.1875 L 12.265625 -12.1875 L 12.265625 -4.640625 C 12.265625 -3.015625 11.789062 -1.785156 10.84375 -0.953125 C 9.894531 -0.117188 8.472656 0.296875 6.578125 0.296875 C 2.804688 0.296875 0.921875 -1.347656 0.921875 -4.640625 Z M 0.921875 -4.640625 "/></g></g></g><g fill="#ffffff" fill-opacity="1"><g transform="translate(241.539685, 204.159416)"><g><path d="M 11.640625 -12.1875 L 11.640625 -9.640625 L 7.734375 -9.640625 L 7.734375 0 L 4.484375 0 L 4.484375 -9.640625 L 0.5625 -9.640625 L 0.5625 -12.1875 Z M 11.640625 -12.1875 "/></g></g></g><g fill="#ffffff" fill-opacity="1"><g transform="translate(252.915305, 204.159416)"><g><path d="M 7.28125 0.296875 C 6.082031 0.296875 5.0625 0.117188 4.21875 -0.234375 C 3.382812 -0.585938 2.707031 -1.066406 2.1875 -1.671875 C 1.675781 -2.273438 1.304688 -2.957031 1.078125 -3.71875 C 0.847656 -4.476562 0.734375 -5.265625 0.734375 -6.078125 C 0.734375 -6.890625 0.847656 -7.671875 1.078125 -8.421875 C 1.304688 -9.179688 1.675781 -9.867188 2.1875 -10.484375 C 2.707031 -11.109375 3.382812 -11.597656 4.21875 -11.953125 C 5.0625 -12.316406 6.082031 -12.5 7.28125 -12.5 C 8.488281 -12.5 9.507812 -12.316406 10.34375 -11.953125 C 11.1875 -11.585938 11.863281 -11.097656 12.375 -10.484375 C 12.882812 -9.867188 13.253906 -9.179688 13.484375 -8.421875 C 13.722656 -7.660156 13.84375 -6.878906 13.84375 -6.078125 C 13.84375 -5.273438 13.722656 -4.488281 13.484375 -3.71875 C 13.253906 -2.957031 12.882812 -2.273438 12.375 -1.671875 C 11.863281 -1.066406 11.1875 -0.585938 10.34375 -0.234375 C 9.507812 0.117188 8.488281 0.296875 7.28125 0.296875 Z M 4.109375 -6.078125 C 4.109375 -5.285156 4.195312 -4.609375 4.375 -4.046875 C 4.550781 -3.484375 4.867188 -3.054688 5.328125 -2.765625 C 5.796875 -2.472656 6.445312 -2.328125 7.28125 -2.328125 C 8.132812 -2.328125 8.789062 -2.472656 9.25 -2.765625 C 9.707031 -3.054688 10.023438 -3.484375 10.203125 -4.046875 C 10.378906 -4.609375 10.46875 -5.285156 10.46875 -6.078125 C 10.46875 -6.890625 10.378906 -7.578125 10.203125 -8.140625 C 10.023438 -8.703125 9.707031 -9.128906 9.25 -9.421875 C 8.789062 -9.710938 8.132812 -9.859375 7.28125 -9.859375 C 6.445312 -9.859375 5.796875 -9.710938 5.328125 -9.421875 C 4.867188 -9.128906 4.550781 -8.703125 4.375 -8.140625 C 4.195312 -7.578125 4.109375 -6.890625 4.109375 -6.078125 Z M 4.109375 -6.078125 "/></g></g></g><g clip-path="url(#6c76469876)"><path fill="#e6ff2a" d="M 165.132812 183.527344 L 135.042969 153.4375 L 165.339844 123.140625 L 171.503906 129.300781 L 147.363281 153.4375 L 171.292969 177.367188 L 165.132812 183.527344 " fill-opacity="1" fill-rule="nonzero"/></g><g clip-path="url(#1775223ec9)"><path fill="#0c4651" d="M 164.566406 183.15625 L 134.480469 153.070312 L 164.777344 122.769531 L 170.9375 128.929688 L 146.800781 153.070312 L 170.726562 176.996094 L 164.566406 183.15625 " fill-opacity="1" fill-rule="nonzero"/></g><g clip-path="url(#510b48119f)"><path fill="#e6ff2a" d="M 215.996094 122.785156 L 246.085938 152.871094 L 215.789062 183.167969 L 209.625 177.007812 L 233.761719 152.871094 L 209.835938 128.945312 L 215.996094 122.785156 " fill-opacity="1" fill-rule="nonzero"/></g><g clip-path="url(#cf848153c1)"><path fill="#0c4651" d="M 216.5625 123.148438 L 246.648438 153.234375 L 216.351562 183.53125 L 210.191406 177.371094 L 234.328125 153.234375 L 210.398438 129.308594 L 216.5625 123.148438 " fill-opacity="1" fill-rule="nonzero"/></g><g fill="#ffffff" fill-opacity="1"><g transform="translate(171.224472, 165.391863)"><g><path d="M 1.71875 -20.109375 L 1.71875 -23.84375 L 8.109375 -23.84375 L 8.109375 -20.109375 Z M 1.828125 0 L 1.828125 -17.921875 L 8 -17.921875 L 8 0 Z M 1.828125 0 "/></g></g></g><g fill="#ffffff" fill-opacity="1"><g transform="translate(192.677087, 164.042826)"><g><path d="M 1.34375 -10.1875 C 1.34375 -11.570312 1.550781 -12.910156 1.96875 -14.203125 C 2.394531 -15.492188 3.054688 -16.65625 3.953125 -17.6875 C 4.847656 -18.71875 6.03125 -19.53125 7.5 -20.125 C 8.96875 -20.726562 10.757812 -21.03125 12.875 -21.03125 C 15.34375 -21.03125 17.382812 -20.613281 19 -19.78125 C 20.625 -18.957031 21.847656 -17.84375 22.671875 -16.4375 C 23.503906 -15.039062 23.945312 -13.488281 24 -11.78125 L 17.109375 -11.78125 C 17.003906 -12.96875 16.625 -13.894531 15.96875 -14.5625 C 15.320312 -15.226562 14.316406 -15.5625 12.953125 -15.5625 C 11.492188 -15.5625 10.363281 -15.175781 9.5625 -14.40625 C 8.757812 -13.632812 8.359375 -12.226562 8.359375 -10.1875 C 8.359375 -8.144531 8.742188 -6.738281 9.515625 -5.96875 C 10.285156 -5.195312 11.394531 -4.8125 12.84375 -4.8125 C 14.28125 -4.8125 15.335938 -5.171875 16.015625 -5.890625 C 16.691406 -6.609375 17.085938 -7.523438 17.203125 -8.640625 L 24.078125 -8.640625 C 24.023438 -7.035156 23.597656 -5.519531 22.796875 -4.09375 C 21.992188 -2.664062 20.785156 -1.515625 19.171875 -0.640625 C 17.554688 0.222656 15.484375 0.65625 12.953125 0.65625 C 10.835938 0.65625 9.046875 0.359375 7.578125 -0.234375 C 6.109375 -0.835938 4.910156 -1.65625 3.984375 -2.6875 C 3.066406 -3.71875 2.394531 -4.878906 1.96875 -6.171875 C 1.550781 -7.460938 1.34375 -8.800781 1.34375 -10.1875 Z M 1.34375 -10.1875 "/></g></g></g><path stroke-linecap="butt" transform="matrix(0.111485, -0.741668, 0.741668, 0.111485, 183.593532, 176.97686)" fill="none" stroke-linejoin="miter" d="M -0.00038773 1.501404 L 65.656237 1.502186 " stroke="#ffffff" stroke-width="3" stroke-opacity="1" stroke-miterlimit="4"/></svg>