<svg xmlns="http://www.w3.org/2000/svg" xmlns:xlink="http://www.w3.org/1999/xlink" viewBox="0 0 274.36 345.11"><defs><style>.a{isolation:isolate;}.b,.c,.cl,.ct{opacity:0.2;}.b{fill:url(#a);}.d{opacity:0;}.e{opacity:0.09;}.f{opacity:0.18;}.g{opacity:0.27;}.h{opacity:0.36;}.i{opacity:0.45;}.j{opacity:0.55;}.k{opacity:0.64;}.l{opacity:0.73;}.m{opacity:0.82;}.n{opacity:0.91;}.o{fill:url(#b);}.p{fill:url(#c);}.q{opacity:0.82;fill:url(#d);}.bi,.bq,.by,.cl,.cm,.co,.q,.u{mix-blend-mode:multiply;}.r,.w{opacity:0.6;}.ac,.ag,.al,.ap,.at,.ax,.cn,.cq,.cs,.ct,.cu,.r,.w,.x{mix-blend-mode:screen;}.r{fill:url(#e);}.s{fill:url(#f);}.t{fill:url(#g);}.u{fill:#bcbec0;}.v{fill:url(#h);}.w{fill:url(#i);}.x{fill:url(#j);}.y{opacity:0.9;}.z{fill:url(#k);}.aa{fill:url(#l);}.ab{fill:url(#m);}.ac{fill:url(#n);}.ad{fill:url(#o);}.ae{fill:url(#p);}.af{fill:url(#q);}.ag{fill:url(#r);}.ah{fill:url(#s);}.ai{fill:url(#t);}.aj{fill:url(#u);}.ak{fill:#fff;}.al{fill:url(#v);}.am{fill:url(#w);}.an{fill:url(#x);}.ao{fill:url(#y);}.ap{fill:url(#z);}.aq{fill:url(#aa);}.ar{fill:url(#ab);}.as{fill:url(#ac);}.at{fill:url(#ad);}.au{fill:url(#ae);}.av{fill:url(#af);}.aw{fill:url(#ag);}.ax{fill:url(#ah);}.ay{fill:url(#ai);}.az{fill:url(#aj);}.ba{fill:url(#ak);}.bb{fill:url(#al);}.bc{fill:#138bbd;}.bd{fill:#18a0ca;}.be{fill:#1cb6d7;}.bf{fill:#21cbe5;}.bg{fill:#25e1f2;}.bh{fill:#2af6ff;}.bi{fill:url(#am);}.bj{fill:url(#an);}.bk{fill:#9f19ab;}.bl{fill:#b228b2;}.bm{fill:#c537b9;}.bn{fill:#d945c0;}.bo{fill:#ec54c7;}.bp{fill:#ff63ce;}.bq{fill:url(#ao);}.br{fill:url(#ap);}.bs{fill:#ffba78;}.bt{fill:#ffc281;}.bu{fill:#ffcb8b;}.bv{fill:#ffd394;}.bw{fill:#ffdc9e;}.bx{fill:#ffe4a7;}.by{fill:#e6e7e8;}.bz{fill:url(#aq);}.ca{fill:url(#ar);}.cb,.ck,.cr{mix-blend-mode:color-dodge;}.cb{fill:url(#as);}.cc{fill:url(#at);}.cd{fill:url(#au);}.ce{fill:url(#av);}.cf{fill:url(#aw);}.cg{fill:url(#ax);}.ch{fill:url(#ay);}.ci{fill:url(#az);}.cj{fill:url(#ba);}.ck{fill:url(#bb);}.cl{fill:url(#bc);}.cm{opacity:0.3;fill:url(#bd);}.cn{fill:url(#be);}.co{fill:#939598;}.cp{fill:url(#bf);}.cq{fill:#58595b;}.cr{fill:url(#bg);}.cs{opacity:0.5;fill:url(#bh);}.ct{fill:url(#bi);}.cu{fill:url(#bj);}.cv{fill:url(#bk);}.cw{fill:url(#bl);}.cx{fill:url(#bm);}</style><linearGradient id="a" x1="88.74" y1="275.67" x2="232.54" y2="275.67" gradientUnits="userSpaceOnUse"><stop offset="0.06" stop-color="#200041"/><stop offset="0.26" stop-color="#210243"/><stop offset="0.36" stop-color="#25084b"/><stop offset="0.43" stop-color="#2c1358"/><stop offset="0.47" stop-color="#311b61"/><stop offset="0.48" stop-color="#351f65"/><stop offset="0.5" stop-color="#422c73"/><stop offset="0.51" stop-color="#584188"/><stop offset="0.52" stop-color="#765fa7"/><stop offset="0.53" stop-color="#8770b8"/><stop offset="0.54" stop-color="#7e67ae"/><stop offset="0.56" stop-color="#5c468d"/><stop offset="0.59" stop-color="#442e75"/><stop offset="0.61" stop-color="#362066"/><stop offset="0.63" stop-color="#311b61"/><stop offset="0.67" stop-color="#2a1155"/><stop offset="0.75" stop-color="#230446"/><stop offset="0.81" stop-color="#200041"/><stop offset="1" stop-color="#200041"/></linearGradient><linearGradient id="b" x1="88.74" y1="253.74" x2="232.54" y2="253.74" xlink:href="#a"/><linearGradient id="c" x1="127.22" y1="262.98" x2="192.4" y2="226.92" gradientUnits="userSpaceOnUse"><stop offset="0" stop-color="#311b61"/><stop offset="0.2" stop-color="#290f52"/><stop offset="0.49" stop-color="#200041"/><stop offset="1" stop-color="#0f001f"/></linearGradient><linearGradient id="d" x1="161.79" y1="245.94" x2="174.58" y2="224.48" gradientUnits="userSpaceOnUse"><stop offset="0" stop-color="#fff"/><stop offset="1"/></linearGradient><radialGradient id="e" cx="162.21" cy="275.09" r="51.16" gradientUnits="userSpaceOnUse"><stop offset="0" stop-color="#af8afc"/><stop offset="1" stop-color="#10054d"/></radialGradient><linearGradient id="f" x1="267.31" y1="288.31" x2="47.26" y2="-16.19" xlink:href="#c"/><linearGradient id="g" x1="77.02" y1="14.14" x2="264.24" y2="295.66" gradientUnits="userSpaceOnUse"><stop offset="0.01" stop-color="#9f19ab"/><stop offset="0.43" stop-color="#5f27bd"/><stop offset="0.9" stop-color="#3d065f"/></linearGradient><linearGradient id="h" x1="314.06" y1="294.92" x2="140.86" y2="18.17" xlink:href="#a"/><radialGradient id="i" cx="264.93" cy="137.32" r="29.48" xlink:href="#e"/><linearGradient id="j" x1="61.6" y1="177.3" x2="90.79" y2="157.6" gradientUnits="userSpaceOnUse"><stop offset="0" stop-color="#fdd65b"/><stop offset="0.01" stop-color="#f7d159"/><stop offset="0.13" stop-color="#bea144"/><stop offset="0.25" stop-color="#8b7632"/><stop offset="0.37" stop-color="#605223"/><stop offset="0.49" stop-color="#3e3416"/><stop offset="0.62" stop-color="#231d0c"/><stop offset="0.74" stop-color="#0f0d05"/><stop offset="0.87" stop-color="#040301"/><stop offset="1"/></linearGradient><linearGradient id="k" x1="72.33" y1="180.89" x2="102.62" y2="171.82" gradientUnits="userSpaceOnUse"><stop offset="0.04" stop-color="#ffa98c"/><stop offset="0.32" stop-color="#ffb892"/><stop offset="0.86" stop-color="#fee1a3"/><stop offset="1" stop-color="#feeca8"/></linearGradient><linearGradient id="l" x1="26.19" y1="184.66" x2="95.58" y2="169.11" xlink:href="#k"/><linearGradient id="m" x1="74.75" y1="144.24" x2="63.88" y2="164.94" xlink:href="#k"/><linearGradient id="n" x1="61.6" y1="148.82" x2="90.79" y2="129.11" xlink:href="#j"/><linearGradient id="o" x1="72.33" y1="152.4" x2="102.62" y2="143.33" xlink:href="#k"/><linearGradient id="p" x1="26.19" y1="156.18" x2="95.58" y2="140.62" xlink:href="#k"/><linearGradient id="q" x1="74.75" y1="115.76" x2="63.88" y2="136.46" xlink:href="#k"/><linearGradient id="r" x1="61.6" y1="120.07" x2="90.79" y2="100.36" xlink:href="#j"/><linearGradient id="s" x1="72.33" y1="123.65" x2="102.62" y2="114.58" xlink:href="#k"/><linearGradient id="t" x1="26.19" y1="127.43" x2="95.58" y2="111.87" xlink:href="#k"/><linearGradient id="u" x1="74.75" y1="87.01" x2="63.88" y2="107.71" xlink:href="#k"/><linearGradient id="v" x1="228.85" y1="236.22" x2="258.04" y2="216.51" gradientUnits="userSpaceOnUse"><stop offset="0" stop-color="#2af6ff"/><stop offset="0.02" stop-color="#29eef7"/><stop offset="0.13" stop-color="#1fb7be"/><stop offset="0.25" stop-color="#17868b"/><stop offset="0.37" stop-color="#105d60"/><stop offset="0.49" stop-color="#0a3b3e"/><stop offset="0.62" stop-color="#062123"/><stop offset="0.74" stop-color="#030f0f"/><stop offset="0.87" stop-color="#010404"/><stop offset="1"/></linearGradient><linearGradient id="w" x1="239.57" y1="239.8" x2="269.87" y2="230.73" gradientUnits="userSpaceOnUse"><stop offset="0.04" stop-color="#138bbd"/><stop offset="0.23" stop-color="#169ac7"/><stop offset="0.59" stop-color="#1fc3df"/><stop offset="1" stop-color="#2af6ff"/></linearGradient><linearGradient id="x" x1="193.44" y1="243.58" x2="262.83" y2="228.02" xlink:href="#w"/><linearGradient id="y" x1="242" y1="203.16" x2="231.13" y2="223.86" xlink:href="#w"/><linearGradient id="z" x1="228.85" y1="196.97" x2="258.04" y2="177.26" gradientUnits="userSpaceOnUse"><stop offset="0" stop-color="#c211a1"/><stop offset="0.01" stop-color="#bd119d"/><stop offset="0.15" stop-color="#8b0c73"/><stop offset="0.29" stop-color="#600850"/><stop offset="0.42" stop-color="#3e0533"/><stop offset="0.56" stop-color="#23031d"/><stop offset="0.7" stop-color="#0f010d"/><stop offset="0.85" stop-color="#040003"/><stop offset="1"/></linearGradient><linearGradient id="aa" x1="239.57" y1="200.55" x2="269.87" y2="191.48" gradientUnits="userSpaceOnUse"><stop offset="0.04" stop-color="#9f19ab"/><stop offset="0.24" stop-color="#ae25b1"/><stop offset="0.65" stop-color="#d744bf"/><stop offset="1" stop-color="#ff63ce"/></linearGradient><linearGradient id="ab" x1="193.44" y1="204.33" x2="262.83" y2="188.77" xlink:href="#aa"/><linearGradient id="ac" x1="242" y1="163.91" x2="231.13" y2="184.61" xlink:href="#aa"/><linearGradient id="ad" x1="228.85" y1="167.74" x2="258.04" y2="148.04" xlink:href="#z"/><linearGradient id="ae" x1="239.57" y1="171.33" x2="269.87" y2="162.26" xlink:href="#aa"/><linearGradient id="af" x1="193.44" y1="175.1" x2="262.83" y2="159.55" xlink:href="#aa"/><linearGradient id="ag" x1="242" y1="134.68" x2="231.13" y2="155.38" xlink:href="#aa"/><linearGradient id="ah" x1="228.85" y1="137.82" x2="258.04" y2="118.11" xlink:href="#z"/><linearGradient id="ai" x1="239.57" y1="141.4" x2="269.87" y2="132.33" xlink:href="#aa"/><linearGradient id="aj" x1="193.44" y1="145.18" x2="262.83" y2="129.62" xlink:href="#aa"/><linearGradient id="ak" x1="242" y1="104.76" x2="231.13" y2="125.46" xlink:href="#aa"/><linearGradient id="al" x1="-3484.21" y1="3033.75" x2="-3481.1" y2="3008.04" gradientTransform="matrix(0.87, 0.5, -1, 0.58, 6103.21, 292.81)" gradientUnits="userSpaceOnUse"><stop offset="0.03" stop-color="#d4d1d8"/><stop offset="1" stop-color="#eeebf2"/></linearGradient><linearGradient id="am" x1="-3484.28" y1="3033.87" x2="-3481.51" y2="3011.02" xlink:href="#al"/><linearGradient id="an" x1="-3491.01" y1="3042.51" x2="-3484.5" y2="3019.21" xlink:href="#al"/><linearGradient id="ao" x1="-3491.48" y1="3042.39" x2="-3485.42" y2="3020.69" xlink:href="#al"/><linearGradient id="ap" x1="-3501.75" y1="3052.37" x2="-3484.36" y2="3022.78" xlink:href="#al"/><linearGradient id="aq" x1="145.72" y1="141.34" x2="134.47" y2="101.59" gradientTransform="translate(82.06 -54.12) rotate(30.31)" gradientUnits="userSpaceOnUse"><stop offset="0.04" stop-color="#ffba78"/><stop offset="0.4" stop-color="#ffc987"/><stop offset="1" stop-color="#feeca8"/></linearGradient><linearGradient id="ar" x1="165.32" y1="212.66" x2="136.82" y2="126.91" xlink:href="#w"/><radialGradient id="as" cx="182.06" cy="127.76" r="44.73" gradientUnits="userSpaceOnUse"><stop offset="0" stop-color="#fa45c1"/><stop offset="0.21" stop-color="#cb389d"/><stop offset="0.67" stop-color="#571843"/><stop offset="1"/></radialGradient><linearGradient id="at" x1="3.76" y1="274.18" x2="11.76" y2="239.68" xlink:href="#k"/><linearGradient id="au" x1="42.93" y1="270.32" x2="34.18" y2="243.32" xlink:href="#k"/><radialGradient id="av" cx="662.55" cy="5828.9" r="3.2" gradientTransform="translate(4847.96 -3106.35) rotate(61.68)" gradientUnits="userSpaceOnUse"><stop offset="0.1" stop-color="#8493ba"/><stop offset="0.21" stop-color="#606c90"/><stop offset="0.33" stop-color="#444d6e"/><stop offset="0.43" stop-color="#303756"/><stop offset="0.53" stop-color="#232a47"/><stop offset="0.62" stop-color="#1f2542"/><stop offset="0.71" stop-color="#242a49"/><stop offset="0.83" stop-color="#34395b"/><stop offset="0.98" stop-color="#4d5179"/><stop offset="0.98" stop-color="#4d517a"/></radialGradient><linearGradient id="aw" x1="657.09" y1="5820.45" x2="668.76" y2="5820.45" gradientTransform="translate(4847.96 -3106.35) rotate(61.68)" gradientUnits="userSpaceOnUse"><stop offset="0" stop-color="#7d62b8"/><stop offset="0.13" stop-color="#9039b1"/><stop offset="0.25" stop-color="#9f19ab"/><stop offset="0.29" stop-color="#89169c"/><stop offset="0.36" stop-color="#5e1080"/><stop offset="0.43" stop-color="#3c0b6a"/><stop offset="0.5" stop-color="#24085a"/><stop offset="0.56" stop-color="#150650"/><stop offset="0.62" stop-color="#10054d"/><stop offset="0.67" stop-color="#150754"/><stop offset="0.75" stop-color="#230e66"/><stop offset="0.84" stop-color="#391985"/><stop offset="0.93" stop-color="#5526ab"/><stop offset="0.96" stop-color="#4d1ba4"/><stop offset="1" stop-color="#4916a1"/></linearGradient><linearGradient id="ax" x1="656.63" y1="5799.23" x2="668.84" y2="5799.23" xlink:href="#aw"/><linearGradient id="ay" x1="2151.75" y1="5148.43" x2="2173.61" y2="5149.92" gradientTransform="translate(5223.7 -1944.7) rotate(90)" gradientUnits="userSpaceOnUse"><stop offset="0" stop-color="#d6dae6"/><stop offset="0.01" stop-color="#d4d8e6"/><stop offset="0.28" stop-color="#b4b8e3"/><stop offset="0.4" stop-color="#9a9fc8"/><stop offset="0.53" stop-color="#838ab0"/><stop offset="0.65" stop-color="#757da1"/><stop offset="0.76" stop-color="#70789c"/><stop offset="0.85" stop-color="#777ea2"/><stop offset="0.99" stop-color="#898eb3"/><stop offset="1" stop-color="#8b90b5"/></linearGradient><linearGradient id="az" x1="656.68" y1="5756.02" x2="668.48" y2="5756.02" gradientTransform="translate(4847.96 -3106.35) rotate(61.68)" gradientUnits="userSpaceOnUse"><stop offset="0.01" stop-color="#c1a1d5"/><stop offset="0.05" stop-color="#c8abda"/><stop offset="0.11" stop-color="#dac6e6"/><stop offset="0.2" stop-color="#f7f2f9"/><stop offset="0.22" stop-color="#fff"/><stop offset="0.25" stop-color="#f9f5fb"/><stop offset="0.3" stop-color="#e9dbf2"/><stop offset="0.36" stop-color="#d1b4e3"/><stop offset="0.43" stop-color="#b395d6"/><stop offset="0.49" stop-color="#9c7dcb"/><stop offset="0.56" stop-color="#8e6ec5"/><stop offset="0.61" stop-color="#8969c3"/><stop offset="0.76" stop-color="#9471c6"/><stop offset="1" stop-color="#b086cc"/></linearGradient><linearGradient id="ba" x1="2129.98" y1="5103.77" x2="2147.68" y2="5104.98" gradientTransform="translate(5223.7 -1944.7) rotate(90)" xlink:href="#az"/><radialGradient id="bb" cx="116.58" cy="193.91" r="3.72" gradientUnits="userSpaceOnUse"><stop offset="0" stop-color="#b4299a"/><stop offset="0.12" stop-color="#8a2076"/><stop offset="0.26" stop-color="#601652"/><stop offset="0.4" stop-color="#3e0e35"/><stop offset="0.55" stop-color="#23081e"/><stop offset="0.69" stop-color="#0f030d"/><stop offset="0.84" stop-color="#040103"/><stop offset="1"/></radialGradient><radialGradient id="bc" cx="-54.24" cy="4989.19" r="21.08" gradientTransform="matrix(0.74, 0.68, -0.26, 0.28, 1361.79, -1126.54)" gradientUnits="userSpaceOnUse"><stop offset="0"/><stop offset="1" stop-color="#fff"/></radialGradient><radialGradient id="bd" cx="-54.04" cy="4993.08" r="9.4" xlink:href="#bc"/><radialGradient id="be" cx="1790.89" cy="-7144.55" r="12.83" gradientTransform="matrix(1.44, -0.76, 0.1, 0.18, -1806, 2862.6)" gradientUnits="userSpaceOnUse"><stop offset="0" stop-color="#fff"/><stop offset="0.13" stop-color="#ff63ce"/><stop offset="1"/></radialGradient><linearGradient id="bf" x1="50.05" y1="225.15" x2="55.86" y2="235.37" gradientTransform="translate(115.2 3.06) rotate(28.56)" xlink:href="#aw"/><radialGradient id="bg" cx="53.72" cy="247.29" r="30.35" xlink:href="#bb"/><radialGradient id="bh" cx="-9894.66" cy="5274.39" r="7.68" gradientTransform="matrix(0.15, 0.19, -0.78, 0.62, 5674.99, -1136.47)" gradientUnits="userSpaceOnUse"><stop offset="0" stop-color="#742a97"/><stop offset="0.04" stop-color="#6a268a"/><stop offset="0.19" stop-color="#4a1b60"/><stop offset="0.35" stop-color="#2f113d"/><stop offset="0.51" stop-color="#1b0a23"/><stop offset="0.67" stop-color="#0c040f"/><stop offset="0.83" stop-color="#030104"/><stop offset="1"/></radialGradient><radialGradient id="bi" cx="-12962.76" cy="6837.17" r="7.68" gradientTransform="matrix(0.04, 0.14, -0.82, 0.25, 6198.71, 366.19)" xlink:href="#bh"/><linearGradient id="bj" x1="93.25" y1="72.33" x2="123.48" y2="37.06" gradientUnits="userSpaceOnUse"><stop offset="0" stop-color="#b086cc"/><stop offset="0.04" stop-color="#a37cbd"/><stop offset="0.17" stop-color="#785b8b"/><stop offset="0.3" stop-color="#533f60"/><stop offset="0.44" stop-color="#35283e"/><stop offset="0.57" stop-color="#1e1723"/><stop offset="0.71" stop-color="#0d0a0f"/><stop offset="0.85" stop-color="#030204"/><stop offset="1"/></linearGradient><linearGradient id="bk" x1="133.48" y1="88.86" x2="165.82" y2="73.2" gradientUnits="userSpaceOnUse"><stop offset="0" stop-color="#9f79c8"/><stop offset="0.14" stop-color="#a580cb"/><stop offset="0.33" stop-color="#b492d3"/><stop offset="0.55" stop-color="#cdb0e1"/><stop offset="0.58" stop-color="#d1b4e3"/><stop offset="0.76" stop-color="#dbc4e9"/><stop offset="1" stop-color="#ebdef3"/></linearGradient><linearGradient id="bl" x1="48.85" y1="93.72" x2="131.48" y2="38.16" xlink:href="#bk"/><linearGradient id="bm" x1="115.8" y1="19.6" x2="95.53" y2="49.2" xlink:href="#bk"/></defs><g class="a"><path class="b" d="M219.6,251.21c0,1.93-1.4,4-4.16,5.55l-39.8,38c-5,2.9-12.65,3.22-17,.7l-72.41-42c-2.11-1.22-3.06-2.88-2.92-4.59a2.36,2.36,0,0,0,0,.3v5.47c0,1.57,1,3.07,2.94,4.19l72.41,42.05c4.36,2.52,12,2.2,17-.7l39.8-38c2.8-1.61,4.21-3.69,4.17-5.64C219.6,256.16,219.66,252.55,219.6,251.21Z"/><g class="c"><path class="d" d="M166,300.13a20.83,20.83,0,0,1-10.43-2.52L83.18,255.56c-3.8-2.19-6-5.67-6-9.53,0-4.23,2.62-8.18,7.2-10.82L148,210.77a25.63,25.63,0,0,1,12.66-3.22A20.94,20.94,0,0,1,171,210.06l48.66,28.51c3.81,2.2,6,5.67,6,9.53,0,4.24-2.63,8.18-7.21,10.82l-39.8,38A25.61,25.61,0,0,1,166,300.13Z"/><path class="e" d="M84.68,235.69l63.55-24.44a25.12,25.12,0,0,1,12.6-3.14,24,24,0,0,1,5.5.71,20.27,20.27,0,0,1,4.82,2l47,27.52,1.43.84a10.12,10.12,0,0,1,5.21,9.48c-.21,3.84-3.11,8.12-7.27,10.52l-39.09,37.3a25.13,25.13,0,0,1-12.35,3.15,20.42,20.42,0,0,1-10.18-2.44L83.46,255.08c-3.66-2.11-5.72-5.42-5.71-9.09C77.77,242,80.29,238.23,84.68,235.69Z"/><path class="f" d="M85,236.17l63.54-24.45a24.7,24.7,0,0,1,12.55-3,21.08,21.08,0,0,1,10.21,2.79L218,238.84c.09,0,1.34.8,1.41.86a9.27,9.27,0,0,1,4.44,9.41c-.39,3.44-3.59,8.06-7.34,10.23L178.13,296a24.57,24.57,0,0,1-12,3.07,19.89,19.89,0,0,1-9.94-2.36L83.73,254.6c-3.5-2-5.46-5.17-5.42-8.65C78.34,242.16,80.75,238.6,85,236.17Z"/><path class="g" d="M85.23,236.65l63.55-24.45a24,24,0,0,1,12.49-2.95,22.67,22.67,0,0,1,5.39.87,26.4,26.4,0,0,1,4.71,2.06l46.46,27.22c.14.07,1.3.77,1.4.86,3.55,2.3,4.28,5.69,3.66,9.36-.51,3-4.06,8-7.39,9.92l-37.65,35.93a24,24,0,0,1-11.75,3,19.36,19.36,0,0,1-9.68-2.29L84,254.13c-3.35-1.94-5.2-4.93-5.15-8.22C78.92,242.34,81.21,239,85.23,236.65Z"/><path class="h" d="M85.51,237.13l63.54-24.45a23.58,23.58,0,0,1,12.44-2.87,23.13,23.13,0,0,1,5.34,1,32.87,32.87,0,0,1,4.65,2.11L217.69,240c.17.1,1.24.75,1.38.87,3.47,2.33,4.52,5.91,2.89,9.3,0,2.7-4.54,7.95-7.46,9.63L177.58,295a23.55,23.55,0,0,1-11.45,2.92,18.85,18.85,0,0,1-9.43-2.22l-72.41-42c-3.21-1.85-4.94-4.68-4.87-7.78C79.49,242.52,81.67,239.34,85.51,237.13Z"/><path class="i" d="M85.78,237.6l63.55-24.44a23,23,0,0,1,12.38-2.78,22.05,22.05,0,0,1,5.29,1,38,38,0,0,1,4.59,2.17l45.95,26.92c.22.13,1.2.72,1.37.87,3.39,2.37,4.15,6,2.12,9.25,0,2.31-5,7.89-7.52,9.33L177.3,294.52a22.93,22.93,0,0,1-11.14,2.84,18.29,18.29,0,0,1-9.19-2.14L84.56,253.17c-3-1.77-4.68-4.44-4.59-7.34C80.06,242.7,82.13,239.71,85.78,237.6Z"/><path class="j" d="M86.06,238.08l63.55-24.44a21.2,21.2,0,0,1,17.55-1.57,47.78,47.78,0,0,1,4.54,2.22l45.69,26.77c.27.16,1.16.71,1.36.88,3.31,2.4,3.79,6,1.35,9.19,0,1.93-5.51,7.84-7.59,9L177,294a22.46,22.46,0,0,1-10.83,2.77,17.67,17.67,0,0,1-8.94-2.07L84.84,252.69c-2.91-1.68-4.42-4.19-4.31-6.9C80.64,242.89,82.59,240.08,86.06,238.08Z"/><path class="k" d="M86.34,238.56l63.54-24.44a20.59,20.59,0,0,1,17.45-1.4c.64.21,3.95,2,4.48,2.28l45.44,26.62a12.46,12.46,0,0,1,1.34.89c3.22,2.43,3.42,6.08.58,9.13,0,1.54-6,7.77-7.65,8.74l-34.77,33.18a21.91,21.91,0,0,1-10.53,2.7,17.22,17.22,0,0,1-8.7-2l-72.4-42c-2.76-1.59-4.16-3.94-4-6.46C81.21,243.07,83.05,240.46,86.34,238.56Z"/><path class="l" d="M86.61,239l63.55-24.45a21.51,21.51,0,0,1,12.2-2.51,21.26,21.26,0,0,1,5.14,1.29c.47.17,4,2.1,4.42,2.33l45.18,26.47a11.42,11.42,0,0,1,1.33.9c3.14,2.47,3.06,6.14-.19,9.07,0,1.16-6.47,7.72-7.72,8.44l-34.05,32.5a21.3,21.3,0,0,1-10.22,2.63,16.84,16.84,0,0,1-8.45-1.92L85.39,251.73c-2.6-1.5-3.89-3.69-3.75-6S83.51,240.83,86.61,239Z"/><path class="m" d="M86.89,239.52l63.55-24.45a19.35,19.35,0,0,1,17.23-1c.31.12,4.1,2.23,4.36,2.38L217,242.73a9.41,9.41,0,0,1,1.31.9c3.06,2.5,2.69,6.21-1,9,0,.77-6.95,7.66-7.78,8.14L176.19,292.6a20.72,20.72,0,0,1-9.92,2.55,16.18,16.18,0,0,1-8.19-1.84L85.67,251.25c-2.46-1.41-3.64-3.44-3.48-5.58S84,241.2,86.89,239.52Z"/><path class="n" d="M87.17,240l63.54-24.45a18.79,18.79,0,0,1,17.12-.88c.16.06,4.18,2.36,4.31,2.44l44.67,26.17a8.27,8.27,0,0,1,1.3.91c3,2.54,2.33,6.27-1.73,9,0,.39-7.43,7.61-7.85,7.85l-32.61,31.12a20.18,20.18,0,0,1-9.62,2.48,15.86,15.86,0,0,1-8-1.77l-72.41-42c-2.3-1.34-3.37-3.2-3.19-5.15S84.44,241.57,87.17,240Z"/><path d="M158.63,292.35,86.22,250.3c-4.36-2.52-3.81-6.92,1.22-9.83L151,216c5-2.91,12.65-3.22,17-.7l48.67,28.51c4.36,2.51,3.81,6.91-1.23,9.82l-39.8,38C170.61,294.55,163,294.87,158.63,292.35Z"/></g><path class="o" d="M158.63,292.25,86.22,250.2c-1.94-1.13-2.91-2.62-2.94-4.19v-5.47c0-1.91,1.44,1.4,4.16-.17L151,215.93c5-2.91,12.65-3.22,17-.71l48.67,28.52c1.45.84,2.51-2.73,2.88-1.6.13.38,0,5.39.06,5.78,0,2-1.37,4-4.17,5.64l-39.8,38C170.61,294.45,163,294.77,158.63,292.25Z"/><path class="p" d="M158.63,286.88l-72.41-42c-4.36-2.52-3.81-6.92,1.22-9.83L151,210.56c5-2.91,12.65-3.22,17-.7l48.67,28.51c4.36,2.51,3.81,6.91-1.23,9.82l-39.8,38C170.61,289.08,163,289.4,158.63,286.88Z"/><path class="q" d="M216.67,238.37,168,209.86c-4.36-2.52-12-2.21-17,.7l-32,12.32a7.6,7.6,0,0,0,1,.68l72.41,42.06a12.35,12.35,0,0,0,3.46,1.28l19.6-18.71C220.48,245.28,221,240.88,216.67,238.37Z"/><path class="r" d="M215.44,247.28l-39.8,38c-5,2.91-12.65,3.23-17,.71L86.22,243.92a5.23,5.23,0,0,1-2.91-3.87c-.23,1.78.73,3.52,2.91,4.78l72.41,42c4.36,2.52,12,2.2,17-.7l39.8-38c2.95-1.7,4.35-3.91,4.14-6C219.35,244,218,245.83,215.44,247.28Z"/><path class="s" d="M253.23,287.11,75.4,184.36C66.31,179.11,58.94,165,58.94,152.9V16.9C58.94,4.78,66.31-.79,75.4,4.45L253.23,107.21c9.09,5.25,16.46,19.33,16.46,31.45v136C269.69,286.79,262.32,292.36,253.23,287.11Z"/><path class="t" d="M255.35,277.65,80,176.35c-7.31-4.65-11.84-13.94-11.84-23.45V16a2.92,2.92,0,0,1,4.4-2.52l.51.3L248.61,115.21c8.71,5,11.84,14,11.84,23.45V275.13a3.15,3.15,0,0,1-4.71,2.74Z"/><path class="u" d="M248.61,115.21,73.09,13.79l-.51-.3A2.92,2.92,0,0,0,68.18,16V152.9c0,9.51,4.53,18.8,11.84,23.45l175.33,101.3.39.22a3.15,3.15,0,0,0,4.71-2.74V138.66C260.45,129.16,257.32,120.23,248.61,115.21Zm10,159.92a1.3,1.3,0,0,1-1.31,1.3,1.25,1.25,0,0,1-.64-.17L81,174.75C74.34,170.55,70,162,70,152.9V16a1.08,1.08,0,0,1,1.08-1.07,1,1,0,0,1,.53.15l176,101.72c9,5.21,10.92,14.76,10.92,21.85Z"/><path class="v" d="M257.9,104.73,80.06,2C76.47-.1,73.14-.48,70.43.56c-.34.14-4.93,2.57-5.26,2.75l0,0C68,2,71.52,2.21,75.4,4.45L253.23,107.21c9.09,5.25,16.46,19.33,16.46,31.45v136c0,7.56-2.87,12.58-7.24,14a2.77,2.77,0,0,0,1.45-.49c.2-.12,5.19-2.93,5.38-3.07,3.13-2.19,5.08-6.69,5.08-12.92v-136C274.36,124.06,267,110,257.9,104.73Z"/><path class="w" d="M254,106.81,76.19,4.06C72.46,1.91,69,1.6,66.27,2.79a12.19,12.19,0,0,1,7.94,1.86L252.05,107.41c9.09,5.25,16.46,19.33,16.46,31.45v136c0,7.15-2.58,12-6.55,13.71,5.08-.81,8.52-6,8.52-14.31v-136C270.48,126.15,263.11,112.06,254,106.81Z"/><polygon class="x" points="92.24 159.36 72.25 147.72 50.17 160.3 50.17 182.27 70.1 193.78 70.1 193.8 70.11 193.79 70.12 193.8 70.12 193.78 92.24 181.33 92.24 159.36"/><g class="y"><polygon class="z" points="70.1 172 70.1 193.8 79.16 188.57 79.16 166.6 70.1 172"/><polygon class="aa" points="70.12 172 70.12 193.8 50.17 182.27 50.17 160.3 70.12 172"/><polygon class="ab" points="50.17 160.3 70.12 172 79.16 166.6 59.16 154.96 50.17 160.3"/></g><polygon class="ac" points="92.24 130.88 72.25 119.24 50.17 131.82 50.17 153.78 70.1 165.3 70.1 165.31 70.11 165.3 70.12 165.31 70.12 165.3 92.24 152.84 92.24 130.88"/><g class="y"><polygon class="ad" points="70.1 143.52 70.1 165.31 79.16 160.08 79.16 138.12 70.1 143.52"/><polygon class="ae" points="70.12 143.52 70.12 165.31 50.17 153.78 50.17 131.82 70.12 143.52"/><polygon class="af" points="50.17 131.82 70.12 143.52 79.16 138.12 59.16 126.48 50.17 131.82"/></g><polygon class="ag" points="92.24 102.13 72.25 90.49 50.17 103.07 50.17 125.03 70.1 136.55 70.1 136.56 70.11 136.55 70.12 136.56 70.12 136.55 92.24 124.09 92.24 102.13"/><g class="y"><polygon class="ah" points="70.1 114.77 70.1 136.56 79.16 131.33 79.16 109.37 70.1 114.77"/><polygon class="ai" points="70.12 114.77 70.12 136.56 50.17 125.03 50.17 103.07 70.12 114.77"/><polygon class="aj" points="50.17 103.07 70.12 114.77 79.16 109.37 59.16 97.73 50.17 103.07"/></g><polygon class="ak" points="65.64 129.81 54.48 123.37 54.48 110.56 65.64 117 65.64 129.81"/><path class="ak" d="M66.73,152.29c0,4-2.79,5.54-6.23,3.55a13.71,13.71,0,0,1-6.23-10.74c0-3.94,2.79-5.53,6.23-3.55A13.74,13.74,0,0,1,66.73,152.29Z"/><polygon class="ak" points="56.66 182.2 53.15 173.21 56.66 168.26 63.68 172.31 67.19 181.31 63.68 186.25 56.66 182.2"/><polygon class="al" points="259.49 218.28 239.5 206.64 217.42 219.22 217.42 241.19 237.35 252.7 237.35 252.71 237.36 252.71 237.37 252.71 237.37 252.7 259.49 240.24 259.49 218.28"/><g class="y"><polygon class="am" points="237.35 230.92 237.35 252.71 246.41 247.48 246.41 225.52 237.35 230.92"/><polygon class="an" points="237.37 230.92 237.37 252.71 217.42 241.19 217.42 219.22 237.37 230.92"/><polygon class="ao" points="217.42 219.22 237.37 230.92 246.41 225.52 226.41 213.88 217.42 219.22"/></g><polygon class="ap" points="259.49 179.03 239.5 167.39 217.42 179.97 217.42 201.94 237.35 213.45 237.35 213.46 237.36 213.46 237.37 213.46 237.37 213.45 259.49 200.99 259.49 179.03"/><g class="y"><polygon class="aq" points="237.35 191.67 237.35 213.46 246.41 208.23 246.41 186.27 237.35 191.67"/><polygon class="ar" points="237.37 191.67 237.37 213.46 217.42 201.94 217.42 179.97 237.37 191.67"/><polygon class="as" points="217.42 179.97 237.37 191.67 246.41 186.27 226.41 174.63 217.42 179.97"/></g><polygon class="at" points="259.49 149.8 239.5 138.16 217.42 150.74 217.42 172.71 237.35 184.22 237.35 184.24 237.36 184.23 237.37 184.24 237.37 184.22 259.49 171.77 259.49 149.8"/><g class="y"><polygon class="au" points="237.35 162.44 237.35 184.24 246.41 179.01 246.41 157.04 237.35 162.44"/><polygon class="av" points="237.37 162.44 237.37 184.24 217.42 172.71 217.42 150.74 237.37 162.44"/><polygon class="aw" points="217.42 150.74 237.37 162.44 246.41 157.04 226.41 145.4 217.42 150.74"/></g><polygon class="ax" points="259.49 119.88 239.5 108.24 217.42 120.82 217.42 142.78 237.35 154.3 237.35 154.31 237.36 154.3 237.37 154.31 237.37 154.3 259.49 141.84 259.49 119.88"/><g class="y"><polygon class="ay" points="237.35 132.52 237.35 154.31 246.41 149.08 246.41 127.12 237.35 132.52"/><polygon class="az" points="237.37 132.52 237.37 154.31 217.42 142.78 217.42 120.82 237.37 132.52"/><polygon class="ba" points="217.42 120.82 237.37 132.52 246.41 127.12 226.41 115.48 217.42 120.82"/></g><path class="ak" d="M231.59,160.79l-10.5,6-1.3,5.73,5.59,1.68,10.5-6Zm-10.44,9.48.55-2.43,3.07,5.3-2.38-.72Zm1-2.89,6.85-3.91,3.26,5.62L225.38,173Z"/><path class="ak" d="M230.09,144.67l2.09-4L235,139l-4.63-8-2.86,1.63-4.55-.22c-.09,0-.15,0-.18.14l-2.5,8.49a.65.65,0,0,0,.14.51c.13.16.29.24.4.19l.18-.08-.16.11c-.1.07-.12.25,0,.44l0,.09a.6.6,0,0,0,.32.28l8.67,2.14A.18.18,0,0,0,230.09,144.67Zm-7.94-2.61,3-2.11c.42.47,1,.7,1.3.5s.45-1.09,0-1.86-1.17-1.2-1.62-.94-.42.76-.22,1.37l-3.38,1.55,2.13-7.26,4.12.2,3.91,6.75-1.89,3.63Z"/><path class="ak" d="M232.29,199.55l-1.72-3a5.51,5.51,0,0,1,2.54.08,1.37,1.37,0,0,0,1-.11c1.11-.64,1-2.9-.46-4.74a3.23,3.23,0,0,0-2.58-1.5,1.27,1.27,0,0,0-1.08.93,6.16,6.16,0,0,1-1.24,2.23l-1.7-2.93-1.68.95.77,1.34-4.87,2.77a2.24,2.24,0,0,0-1,1.85l-.12,1.51a.4.4,0,0,1-.08.21l-.64.88a.76.76,0,0,0,.08.77c.16.28.41.49.65.46l1-.13a.49.49,0,0,1,.23,0l1.51.7A2.24,2.24,0,0,0,225,202l4.89-2.79.77,1.33Zm-7.84,1.55a1.8,1.8,0,0,1-1.64,0l-1.5-.7a1,1,0,0,0-.53-.09l-.32,0,.26-.35a.88.88,0,0,0,.17-.5l.12-1.51a1.77,1.77,0,0,1,.78-1.46l4.87-2.78,2.68,4.61Z"/><path class="ak" d="M233.43,244.62l-2.87-5a1.39,1.39,0,0,0-1.11-.81l-.84-1.45c1.26-1.18,1.13-4-.39-6.61-1.66-2.86-4.35-4.42-6-3.47s-1.66,4,0,6.9c1.52,2.62,3.9,4.14,5.57,3.65l.84,1.45a1.38,1.38,0,0,0,.14,1.36l2.88,4.95c.36.62.94,1,1.3.76l.49-.28C233.79,245.91,233.79,245.24,233.43,244.62Zm-6.23-8.69c-1.1.62-2.87-.4-4-2.29s-1.1-3.92,0-4.54,2.86.4,4,2.28S228.29,235.31,227.2,235.93Z"/><g class="c"><path class="d" d="M48.14,345.11a12.9,12.9,0,0,1-6.48-1.57L12.54,287.13a6.84,6.84,0,0,1-3.72-5.93c0-2.63,1.63-5.08,4.48-6.72l17.28-6.33a16,16,0,0,1,7.88-2,13,13,0,0,1,6.48,1.56L120.58,314a6.86,6.86,0,0,1,3.72,5.92c0,2.63-1.63,5.09-4.48,6.73L56,343.1A15.91,15.91,0,0,1,48.14,345.11Z"/><path class="e" d="M13.57,274.63l17.15-6.28a15.2,15.2,0,0,1,1.52-.73,16.2,16.2,0,0,1,6.29-1.27,13.38,13.38,0,0,1,5.36,1,11.76,11.76,0,0,1,1.06.55L120,313.82a7.61,7.61,0,0,1,3.89,5.54c0,.06,0,.11,0,.17.23,2.54-1.29,5-4.15,6.66L56.58,342.5a17.2,17.2,0,0,1-7.8,2,12.2,12.2,0,0,1-6.85-1.38L13.07,287.2a7.69,7.69,0,0,1-3.64-5.62l0-.29C9.19,278.75,10.71,276.28,13.57,274.63Z"/><path class="f" d="M13.84,274.79l17-6.23c.39-.23,1.08-.53,1.51-.72a16.15,16.15,0,0,1,6.24-1.29,13,13,0,0,1,5.3,1,11.51,11.51,0,0,1,1.05.54l74.46,45.55c1.89,1.09,3.83,3.43,4,5.33,0,.05,0,.1,0,.15.44,2.45-1,4.93-3.84,6.6L57.15,341.89a18.64,18.64,0,0,1-7.72,2,11.85,11.85,0,0,1-7.23-1.2L13.61,287.27A8.64,8.64,0,0,1,10,281.65c0-.09,0-.18,0-.28C9.56,278.93,11,276.45,13.84,274.79Z"/><path class="g" d="M14.11,274.94,31,268.76c.35-.2,1.12-.52,1.5-.69a15.69,15.69,0,0,1,6.18-1.32,12.89,12.89,0,0,1,5.26,1c.27.13.78.4,1,.55l73.87,45.18c1.68,1,3.94,3.45,4.22,5.12a.88.88,0,0,0,0,.15c.67,2.35-.6,4.85-3.51,6.53l-61.88,16a20.56,20.56,0,0,1-7.65,1.95,11.59,11.59,0,0,1-7.6-1L14.14,287.35c-1.64-1-3.19-4-3.49-5.63a2.58,2.58,0,0,0-.08-.26C9.93,279.11,11.22,276.61,14.11,274.94Z"/><path class="h" d="M14.38,275.1,31.14,269c.3-.18,1.16-.53,1.5-.68A15.54,15.54,0,0,1,38.75,267,12.58,12.58,0,0,1,44,268c.24.11.8.42,1,.54l73.28,44.83c1.47.85,4.35,3.42,4.39,4.9l.06.14c.9,2.26-.25,4.78-3.18,6.47L58.29,340.69a23.12,23.12,0,0,1-7.58,1.93,11.43,11.43,0,0,1-8-.83L14.68,287.42c-1.44-.83-3.35-4.18-3.42-5.63a1.86,1.86,0,0,1-.1-.25C10.3,279.28,11.47,276.78,14.38,275.1Z"/><path class="i" d="M14.65,275.25l16.62-6.08c.27-.15,1.21-.53,1.5-.65a15.1,15.1,0,0,1,6.06-1.36,12.19,12.19,0,0,1,5.16,1l1,.55,72.69,44.46c1.26.73,4.53,3.42,4.56,4.69l.08.14c1.13,2.17.08,4.7-2.86,6.4L58.85,340.08A26.36,26.36,0,0,1,51.36,342a11.37,11.37,0,0,1-8.35-.65l-27.8-53.86c-1.23-.71-3.28-4.38-3.34-5.63a1.71,1.71,0,0,1-.13-.23C10.67,279.46,11.73,276.94,14.65,275.25Z"/><path class="j" d="M14.92,275.41l16.49-6c.22-.12,1.25-.52,1.49-.63a14.91,14.91,0,0,1,6-1.38,12,12,0,0,1,5.12,1c.17.08.83.46,1,.55l72.1,44.1c1.05.6,4.7,3.42,4.73,4.48l.09.13c1.36,2.07.43,4.62-2.54,6.33l-60,15.49a31.09,31.09,0,0,1-7.42,1.9,11.4,11.4,0,0,1-8.72-.47L15.75,287.56c-1-.59-3.22-4.59-3.27-5.62-.06-.08-.1-.15-.15-.23C11,279.64,12,277.11,14.92,275.41Z"/><path class="k" d="M15.2,275.57l16.35-6c.18-.1,1.3-.53,1.48-.62a15,15,0,0,1,5.94-1.4,11.57,11.57,0,0,1,5.07,1l1,.55,71.51,43.74c.84.49,4.88,3.42,4.9,4.27l.1.12c1.6,2,.78,4.55-2.21,6.27L60,338.87a37.55,37.55,0,0,1-7.35,1.89c-2.89,1.15-6.72,1.07-9.09-.29L16.28,287.63c-.82-.47-3.16-4.79-3.19-5.62l-.18-.21C11.39,279.81,12.24,277.27,15.2,275.57Z"/><path class="l" d="M15.47,275.72l16.22-5.94c.13-.07,1.34-.52,1.48-.59a14.51,14.51,0,0,1,5.88-1.43,11.34,11.34,0,0,1,5,1.05l1,.55,70.92,43.38c.63.36,5,3.42,5.07,4.05l.12.12c1.83,1.88,1.12,4.47-1.89,6.21L60.56,338.27a49.63,49.63,0,0,1-7.27,1.86c-2.95,1.32-7,1.31-9.47-.1l-27-52.32c-.62-.36-3.1-5-3.13-5.63l-.19-.2C11.75,280,12.49,277.44,15.47,275.72Z"/><path class="m" d="M15.74,275.88,31.83,270c.09-.05,1.38-.53,1.47-.58A14.41,14.41,0,0,1,39.12,268a11.09,11.09,0,0,1,5,1.05l.94.55,70.33,43c.42.25,5.23,3.42,5.24,3.84l.13.11c2.07,1.78,1.46,4.4-1.56,6.15l-58,15a70.08,70.08,0,0,1-7.19,1.85c-3,1.48-7.29,1.54-9.83.08L17.35,287.78a32,32,0,0,1-3.05-5.63l-.22-.19C12.11,280.18,12.75,277.6,15.74,275.88Z"/><path class="n" d="M16,276l16-5.84,1.46-.55a14,14,0,0,1,5.76-1.47,10.79,10.79,0,0,1,4.93,1.05l.92.55,69.74,42.66c.21.12,5.41,3.41,5.41,3.63a.71.71,0,0,1,.14.1c2.31,1.68,1.81,4.32-1.24,6.08l-57.4,14.82c-.2.11-6.86,1.83-7.12,1.83-3.07,1.64-7.58,1.77-10.2.26l-26.48-51.3a61.84,61.84,0,0,1-3-5.63l-.24-.17C12.47,280.36,13,277.77,16,276Z"/><path d="M44.64,338.71,15.52,282.3c-2.71-1.57-2.37-4.3.76-6.11l17.29-6.33c3.13-1.81,7.86-2,10.58-.44l75.63,46.27c2.71,1.56,2.37,4.3-.76,6.11l-63.8,16.47C52.09,340.08,47.35,340.27,44.64,338.71Z"/></g><polygon class="bb" points="95.27 332.91 9.66 271.44 35.7 259.39 121.31 320.85 95.27 332.91"/><polygon class="bc" points="30.49 283.08 20.82 276.13 41.23 266.68 50.9 273.63 30.49 283.08"/><polygon class="bd" points="43.16 292.18 33.49 285.23 53.9 275.78 63.57 282.73 43.16 292.18"/><polygon class="be" points="55.83 301.27 46.16 294.33 66.57 284.88 76.24 291.82 55.83 301.27"/><polygon class="bf" points="68.51 310.37 58.84 303.43 79.25 293.98 88.92 300.92 68.51 310.37"/><polygon class="bg" points="81.18 319.47 71.51 312.53 91.92 303.08 101.59 310.02 81.18 319.47"/><polygon class="bh" points="93.85 328.57 84.18 321.63 104.59 312.18 114.26 319.12 93.85 328.57"/><polygon class="bi" points="95.27 332.91 9.66 271.44 35.7 259.39 102.52 329.55 95.27 332.91"/><polygon class="bj" points="70.14 337.97 5.71 268.46 35.21 259.42 99.64 328.93 70.14 337.97"/><polygon class="bk" points="22.46 282.11 15.18 274.26 38.3 267.18 45.58 275.03 22.46 282.11"/><polygon class="bl" points="31.99 292.4 24.72 284.55 47.84 277.46 55.11 285.32 31.99 292.4"/><polygon class="bm" points="41.53 302.69 34.25 294.84 57.37 287.75 64.65 295.61 41.53 302.69"/><polygon class="bn" points="51.07 312.98 43.79 305.13 66.91 298.04 74.19 305.89 51.07 312.98"/><polygon class="bo" points="60.6 323.27 53.33 315.42 76.45 308.33 83.73 316.18 60.6 323.27"/><polygon class="bp" points="70.14 333.56 62.87 325.7 85.98 318.62 93.26 326.47 70.14 333.56"/><polygon class="bq" points="70.14 337.97 5.71 268.46 35.21 259.42 79.27 335.3 70.14 337.97"/><polygon class="br" points="44.36 340.8 2.74 265.78 34.62 259.99 76.24 335.01 44.36 340.8"/><polygon class="bs" points="14.95 280.94 10.24 272.47 35.23 267.93 39.93 276.4 14.95 280.94"/><polygon class="bt" points="21.11 292.05 16.4 283.57 41.39 279.04 46.09 287.51 21.11 292.05"/><polygon class="bu" points="27.27 303.15 22.56 294.68 47.55 290.14 52.25 298.62 27.27 303.15"/><polygon class="bv" points="33.42 314.26 28.72 305.79 53.71 301.25 58.41 309.72 33.42 314.26"/><polygon class="bw" points="39.59 325.36 34.88 316.89 59.87 312.35 64.57 320.82 39.59 325.36"/><polygon class="bx" points="45.74 336.47 41.04 328 66.03 323.46 70.73 331.93 45.74 336.47"/><path class="by" d="M142.43,136.76c6.18,3.57,11.18.71,11.18-6.38s-5-15.72-11.18-19.29-11.18-.71-11.18,6.38S136.25,133.19,142.43,136.76ZM180,133.23c-10.21-5.89-17.47,37.88-28.85,31.31s-15.5-26.06-24.52-31.28c-6.25-3.6-13.39,22.11-18.45,26.05v.41l95.56,55.16v-1.07C195.88,199.84,187.82,137.75,180,133.23Zm20.54,2.4V137L181.9,126v-1.72L178.07,122v1.69l-14.54-8.56v-1l-3.5-2v4l3.5,2v-1.84l13.9,8.19a5.61,5.61,0,0,0-1.77.25c-3.66,1.12-6.42,5.75-8.86,10.71l-1.65-1a.5.5,0,0,0-.5,0,.48.48,0,0,0-.25.43v4.4a.48.48,0,0,0,.25.43l3.83,2.21a.52.52,0,0,0,.25.07A.59.59,0,0,0,169,142a.5.5,0,0,0,.25-.43v-4.4a.5.5,0,0,0-.25-.43l-1.31-.75c2.24-4.57,5-9.24,8.28-10.26a4.89,4.89,0,0,1,2.12-.16v.88l3.83,2.21v-1.17c3,2.72,7.34,9.33,9.89,19.87l-1.14-.66a.5.5,0,0,0-.5,0,.48.48,0,0,0-.25.43v4.39a.5.5,0,0,0,.25.44l3.83,2.21a.51.51,0,0,0,.25.06.57.57,0,0,0,.25-.06.52.52,0,0,0,.25-.44v-4.39a.5.5,0,0,0-.25-.43L193,148c-2-8.7-5.41-15.57-8.66-19.47l16.21,9.54v1.54l3.5,2v-4Zm-32.3,1.82v3.24l-2.83-1.63v-3.24Zm25.5,12.17v3.24l-2.83-1.64V148Z"/><ellipse class="bz" cx="140.93" cy="124.43" rx="9.1" ry="15.77" transform="translate(-43.53 88.13) rotate(-30.31)"/><path class="ca" d="M106.67,160.22l95.56,55.16v-1.07c-7.85-14-15.91-76.06-23.74-80.58C168.28,127.84,161,171.61,149.64,165s-15.5-26.06-24.52-31.28c-6.25-3.6-13.39,22.11-18.45,26.05Z"/><path class="cb" d="M199,136.13v1.32l-18.63-11v-1.72l-3.83-2.22v1.69L162,115.67v-1l-3.5-2v4l3.5,2v-1.84l13.9,8.19a5.61,5.61,0,0,0-1.77.25c-3.66,1.12-6.42,5.75-8.86,10.71l-1.65-1a.5.5,0,0,0-.5,0,.48.48,0,0,0-.25.43v4.4a.48.48,0,0,0,.25.43l3.83,2.21a.52.52,0,0,0,.25.07.59.59,0,0,0,.25-.07.5.5,0,0,0,.25-.43v-4.4a.5.5,0,0,0-.25-.43l-1.31-.75c2.24-4.57,5-9.24,8.28-10.26a4.89,4.89,0,0,1,2.12-.16v.88l3.83,2.21V128c3,2.72,7.34,9.33,9.89,19.87l-1.14-.66a.5.5,0,0,0-.5,0,.48.48,0,0,0-.25.43V152a.5.5,0,0,0,.25.44l3.83,2.21a.51.51,0,0,0,.25.06.57.57,0,0,0,.25-.06.52.52,0,0,0,.25-.44v-4.39a.5.5,0,0,0-.25-.43l-1.5-.86c-2-8.7-5.41-15.57-8.66-19.47L199,138.61v1.54l3.5,2v-4Zm-32.3,5.06-2.83-1.63v-3.24l2.83,1.63Zm25.5,12.17-2.83-1.64v-3.23l2.83,1.63Z"/><path class="cc" d="M9.74,254.43A13.79,13.79,0,0,1,3,252.8c-1.91-1.1-3-2.6-3-4.2s1-3.08,2.92-4.16a13.58,13.58,0,0,1,6.7-1.61,13.79,13.79,0,0,1,6.78,1.63c1.91,1.1,3,2.59,3,4.2s-1,3.07-2.91,4.16A13.62,13.62,0,0,1,9.74,254.43Zm-.12-10.6a12.63,12.63,0,0,0-6.2,1.47c-1.56.9-2.42,2.07-2.42,3.3s.87,2.42,2.46,3.33a12.71,12.71,0,0,0,6.28,1.5A12.67,12.67,0,0,0,16,252c1.56-.9,2.41-2.07,2.41-3.3s-.87-2.42-2.46-3.34A12.82,12.82,0,0,0,9.62,243.83Z"/><path class="cd" d="M21,276.81l-.88-.3-.05-.31c-.18-1.23-1.92-3.71-3.59-6.1-2.45-3.5-5-7.12-4.54-9.16a1.75,1.75,0,0,1,.88-1.19c2.44-1.41,6.05-1.36,9.87-1.3,4.2.06,8.54.12,11.7-1.7a1.87,1.87,0,0,0,1-1.24c.49-2.17-2.3-6.2-4.54-9.43a.5.5,0,1,1,.83-.57c2.47,3.57,5.27,7.62,4.69,10.22a2.85,2.85,0,0,1-1.44,1.88c-3.4,2-7.88,1.9-12.21,1.84-3.68-.06-7.16-.11-9.36,1.16a.82.82,0,0,0-.41.55c-.35,1.6,2.28,5.35,4.39,8.37C19,272,20.54,274.19,21,275.67l43.34-25a.49.49,0,0,1,.68.18.51.51,0,0,1-.18.69Z"/><path class="ce" d="M32.53,244c-.78.42-3.23,1-3.66.25s1.35-2.67,2.13-3.09A1.61,1.61,0,1,1,32.53,244Z"/><path class="cf" d="M46.43,241.06c4.16-2.18-1.4-12.89-5.94-10.26s-9.55,9.44-9.55,9.44h0a2.26,2.26,0,0,0-.09,2.77,2.17,2.17,0,0,0,2.37,1.45h0S42.27,243.25,46.43,241.06Z"/><path class="cg" d="M77.33,224l-5.68-10.56L40.41,230.78h0l0,0c-1.69.91-1.8,4-.23,6.93s4.22,4.54,5.92,3.62l0,0h0Z"/><path class="ch" d="M77.31,224c-1.7.91-4.34-.71-5.92-3.62s-1.46-6,.23-6.94,4.35.71,5.92,3.63S79,223.13,77.31,224Z"/><path class="ci" d="M121.6,199,117,190.48l-45.42,23.1h0l0,0c-1.7.91-1.8,4-.23,6.93s4.22,4.54,5.91,3.63l.05,0h0Z"/><path class="cj" d="M121.58,199c-1.37.74-3.52-.57-4.79-2.93s-1.19-4.88.19-5.62,3.52.57,4.79,2.93S123,198.3,121.58,199Z"/><path class="ck" d="M117,196.07c-1.27-2.37-1.19-4.88.19-5.62l.09,0a1.42,1.42,0,0,0-.45.16c-1.38.74-1.46,3.25-.19,5.61s3.32,3.61,4.7,3C120,199.45,118.13,198.18,117,196.07Z"/><path class="cl" d="M79.28,271.33,39.77,247.77a4.64,4.64,0,0,0-.47-.24,65.65,65.65,0,0,0-9.12-3.87h0c-.63-.21-1,0-.79.72a3.5,3.5,0,0,0,1.37,2h0s5.84,4.83,9.62,7.34a4.25,4.25,0,0,0,.64.46l0,0h0L80.73,278Z"/><path class="cm" d="M52,256.4,34.29,245.83l-.21-.11A30,30,0,0,0,30,244h0c-.29-.09-.15.87.26,1.23h0s2.63,2.17,4.32,3.29a1.42,1.42,0,0,0,.29.21h0l17.8,10.68Z"/><path class="cn" d="M114.38,194.36c.65,1.24-9.4,7.84-19.26,13s-18.39,8.37-19,7.12,6.81-6.45,16.67-11.63S113.72,193.11,114.38,194.36Z"/><rect class="co" x="38.54" y="224.42" width="32.54" height="3.5" rx="1.25" transform="translate(-101.45 53.71) rotate(-28.56)"/><rect class="cp" x="42.06" y="226.55" width="19.06" height="2.59" rx="0.92" transform="translate(-102.64 52.38) rotate(-28.56)"/><path class="cq" d="M60,223.3a1.25,1.25,0,0,0-.49-.48,1.81,1.81,0,0,1,.18.21,1.3,1.3,0,0,1-.52,1.76l-14.46,7.87a1.3,1.3,0,0,1-1.28,0,1.28,1.28,0,0,0,1.59.3l14.46-7.87A1.29,1.29,0,0,0,60,223.3Z"/><path class="cr" d="M113.73,192.5,40.78,231.2a4.47,4.47,0,0,0-.51.38c-4.37,2.84-9.33,8.66-9.33,8.66h0a2.26,2.26,0,0,0-.09,2.77,2.17,2.17,0,0,0,2.37,1.45h0s7.58-1,12.06-2.86a2.15,2.15,0,0,0,.78-.24l0,0h0l72.17-40.49Z"/><path class="cs" d="M43.39,233.48c3.69-2.91,2-5.33-2.08-2s-9.54,8.71-9.54,8.71h0c-.63.6-.93,1.07-.73,1.33s.53.16,1.46-.41h0S39.69,236.38,43.39,233.48Z"/><path class="ct" d="M45.09,240.87c3.86-1.15,3.5-2.88-.8-1.57S33.87,243,33.87,243h0c-.7.26-1.11.49-1,.68s.33.18,1.25,0h0S41.23,242,45.09,240.87Z"/><polygon class="cu" points="165.25 56.29 81.02 7.49 50.38 25.69 50.38 54.4 134.54 103.08 134.54 103.09 134.55 103.08 134.56 103.09 134.56 103.08 165.25 84.99 165.25 56.29"/><g class="y"><polygon class="cv" points="134.54 74.54 134.54 103.09 142.81 98.31 142.81 69.61 134.54 74.54"/><polygon class="cw" points="134.56 74.54 134.56 103.09 50.38 54.4 50.38 25.69 134.56 74.54"/><polygon class="cx" points="50.38 25.69 134.56 74.54 142.81 69.61 58.59 20.81 50.38 25.69"/></g><polygon class="bc" points="65.84 58.62 56.14 53.02 56.14 34.03 65.84 39.63 65.84 58.62"/><polygon class="bd" points="78.55 65.95 68.85 60.35 68.85 41.37 78.55 46.97 78.55 65.95"/><polygon class="be" points="91.26 73.29 81.56 67.69 81.56 48.71 91.26 54.31 91.26 73.29"/><polygon class="bf" points="103.97 80.63 94.27 75.03 94.27 56.05 103.97 61.65 103.97 80.63"/><polygon class="bg" points="116.68 87.97 106.98 82.37 106.98 63.38 116.68 68.98 116.68 87.97"/><polygon class="bh" points="129.39 95.31 119.69 89.71 119.69 70.72 129.39 76.32 129.39 95.31"/></g></svg>